SplineFontDB: 3.2
FontName: Samaano-Bold-Slanted
FullName: Samaano Bold Slanted
FamilyName: Samaano
Weight: Bold
Copyright: Copyright 2024 The Samaano Project Authors (https://github.com/mitradranirban/samaano-fonts)
UComments: "2024-8-27: Created with FontForge (http://fontforge.org)"
Version: 1.511
ItalicAngle: -20
UnderlinePosition: 0
UnderlineWidth: 102
Ascent: 1638
Descent: 410
InvalidEm: 0
UFOAscent: 1638
UFODescent: -410
LayerCount: 2
Layer: 0 0 "Back" 1
Layer: 1 0 "public.default" 0 "glyphs"
StyleMap: 0x0021
FSType: 0
OS2Version: 0
OS2_WeightWidthSlopeOnly: 0
OS2_UseTypoMetrics: 0
CreationTime: 1730004169
ModificationTime: 1730308530
PfmFamily: 49
TTFWeight: 700
TTFWidth: 5
LineGap: 0
VLineGap: 0
Panose: 2 7 8 9 2 2 5 2 4 4
OS2TypoAscent: 2457
OS2TypoAOffset: 0
OS2TypoDescent: -615
OS2TypoDOffset: 0
OS2TypoLinegap: 0
OS2WinAscent: 2834
OS2WinAOffset: 0
OS2WinDescent: 978
OS2WinDOffset: 0
HheadAscent: 2457
HheadAOffset: 0
HheadDescent: -615
HheadDOffset: 0
OS2CapHeight: 1548
OS2XHeight: 1023
OS2FamilyClass: 1031
OS2Vendor: 'anir'
MacStyle: 3
Lookup: 4 0 1 "ligaStandardLigaturesinLatinlookup0" { "ligaStandardLigaturesinLatinlookup0 subtable"  } ['liga' ('latn' <'dflt' > 'DFLT' <'dflt' > ) ]
Lookup: 4 0 0 "nuktNuktaFormsinDevanagari2lookup0" { "nuktNuktaFormsinDevanagari2lookup0 subtable"  } ['nukt' ('dev2' <'dflt' > 'DFLT' <'dflt' > ) ]
Lookup: 4 0 0 "akhnAkhandinDevanagari2lookup0" { "akhnAkhandinDevanagari2lookup0 subtable"  } ['akhn' ('dev2' <'dflt' > 'DFLT' <'dflt' > ) ]
Lookup: 4 0 0 "rphfRephForminDevanagari2lookup0" { "rphfRephForminDevanagari2lookup0 subtable"  } ['rphf' ('dev2' <'dflt' > 'DFLT' <'dflt' > ) ]
Lookup: 4 0 0 "blwfBelowBaseFormsinDevanagari2lookup0" { "blwfBelowBaseFormsinDevanagari2lookup0 subtable"  } ['blwf' ('dev2' <'dflt' > 'DFLT' <'dflt' > ) ]
Lookup: 4 0 0 "halfHalfFormsinDevanagari2lookup0" { "halfHalfFormsinDevanagari2lookup0 subtable"  } ['half' ('dev2' <'dflt' > 'DFLT' <'dflt' > ) ]

StartChar: .notdef
Encoding: 0 0 0
GlifName: _notdef
Width: 1024
VWidth: 0
Flags: W
LayerCount: 2
Fore
SplineSet
-285.455078125 -26 m 257
 712.544921875 -26 l 257
 1309.45507812 1614 l 257
 311.455078125 1614 l 257
 -285.455078125 -26 l 257
-182.337890625 54 m 257
 357.4296875 1537 l 257
 488.37109375 817 l 257
 -182.337890625 54 l 257
-90.337890625 54 m 257
 498.345703125 740 l 257
 589.662109375 54 l 257
 -90.337890625 54 l 257
481.43359375 1548 m 257
 1112.43359375 1548 l 257
 558.216796875 899 l 257
 481.43359375 1548 l 257
568.19140625 822 m 257
 1208.43359375 1548 l 257
 664.662109375 54 l 257
 568.19140625 822 l 257
EndSplineSet
EndChar

StartChar: A
Encoding: 65 65 1
GlifName: A_
Width: 1024
VWidth: 0
Flags: W
AnchorPoint: "top" 525 1641 basechar 0
AnchorPoint: "base" 546 0 basechar 0
LayerCount: 2
Fore
SplineSet
-168.212890625 0 m 257
 30.787109375 0 l 257
 594.212890625 1548 l 257
 395.212890625 1548 l 257
 -168.212890625 0 l 257
377.595703125 1332 m 257
 1038.59570312 1332 l 257
 1117.21289062 1548 l 257
 456.212890625 1548 l 257
 377.595703125 1332 l 257
283.12890625 1023 m 257
 219.797851562 849 l 257
 850.797851562 849 l 257
 914.12890625 1023 l 257
 283.12890625 1023 l 257
428.787109375 0 m 257
 628.787109375 0 l 257
 1192.21289062 1548 l 257
 992.212890625 1548 l 257
 428.787109375 0 l 257
EndSplineSet
EndChar

StartChar: AE
Encoding: 198 198 2
GlifName: A_E_
Width: 1024
VWidth: 0
Flags: HW
LayerCount: 2
Fore
SplineSet
713.334960938 185 m 257
 646 0 l 257
 996 0 l 257
 1063.33496094 185 l 257
 713.334960938 185 l 257
125 0 m 257
 324 0 l 257
 887.42578125 1548 l 257
 688.42578125 1548 l 257
 125 0 l 257
670.80859375 1332 m 257
 1458.80859375 1332 l 257
 1537.42578125 1548 l 257
 749.42578125 1548 l 257
 670.80859375 1332 l 257
576.341796875 1023 m 257
 513.010742188 849 l 257
 1231.01074219 849 l 257
 1294.34179688 1023 l 257
 576.341796875 1023 l 257
551 0 m 257
 751 0 l 257
 1314.42578125 1548 l 257
 1114.42578125 1548 l 257
 551 0 l 257
EndSplineSet
EndChar

StartChar: B
Encoding: 66 66 14
GlifName: B_
Width: 1024
VWidth: 0
Flags: W
AnchorPoint: "top" 262 1657 basechar 0
AnchorPoint: "base" 250 -67 basechar 0
LayerCount: 2
Fore
SplineSet
-128.111328125 0 m 257
 79.888671875 0 l 257
 639.310546875 1537 l 257
 431.310546875 1537 l 257
 -128.111328125 0 l 257
680.33203125 1331 m 257
 1068.85546875 989 l 257
 1151.11132812 1215 l 257
 755.310546875 1537 l 257
 680.33203125 1331 l 257
493.34375 820 m 257
 1070.58203125 991 l 257
 1152.11132812 1215 l 257
 567.23046875 1023 l 257
 493.34375 820 l 257
210.046875 201 m 257
 136.888671875 0 l 257
 823.373046875 364 l 257
 904.90234375 588 l 257
 210.046875 201 l 257
410.259765625 567 m 257
 823.373046875 364 l 257
 904.173828125 586 l 257
 482.689453125 766 l 257
 410.259765625 567 l 257
405.23046875 1023 m 257
 331.34375 820 l 257
 493.34375 820 l 257
 567.23046875 1023 l 257
 405.23046875 1023 l 257
310.689453125 766 m 257
 238.259765625 567 l 257
 410.259765625 567 l 257
 482.689453125 766 l 257
 310.689453125 766 l 257
42.681640625 200 m 257
 -30.111328125 0 l 257
 136.888671875 0 l 257
 209.681640625 200 l 257
 42.681640625 200 l 257
591.310546875 1537 m 257
 516.33203125 1331 l 257
 679.33203125 1331 l 257
 754.310546875 1537 l 257
 591.310546875 1537 l 257
EndSplineSet
EndChar

StartChar: C
Encoding: 67 67 15
GlifName: C_
Width: 1024
VWidth: 0
Flags: W
AnchorPoint: "top" 470 1637 basechar 0
AnchorPoint: "base" 518 -47 basechar 0
LayerCount: 2
Fore
SplineSet
350.7109375 1537 m 257
 -208.7109375 0 l 257
 -8.7109375 0 l 257
 550.7109375 1537 l 257
 350.7109375 1537 l 257
449.7109375 1537 m 257
 377.28125 1338 l 257
 1160.28125 1338 l 257
 1232.7109375 1537 l 257
 449.7109375 1537 l 257
-51.28125 199 m 257
 -123.7109375 0 l 257
 671.2890625 0 l 257
 743.71875 199 l 257
 -51.28125 199 l 257
EndSplineSet
EndChar

StartChar: D
Encoding: 68 68 21
GlifName: D_
Width: 1024
VWidth: 0
Flags: W
AnchorPoint: "top" 294 1641 basechar 0
LayerCount: 2
Fore
SplineSet
484.754882812 1548 m 257
 -78.6708984375 0 l 257
 123.329101562 0 l 257
 686.754882812 1548 l 257
 484.754882812 1548 l 257
810.754882812 1548 m 257
 738.688476562 1350 l 257
 1009.49414062 767 l 257
 1102.67089844 1023 l 257
 810.754882812 1548 l 257
328.487304688 201 m 257
 255.329101562 0 l 257
 1007.22265625 769 l 257
 1099.67089844 1023 l 257
 328.487304688 201 l 257
648.754882812 1548 m 257
 576.325195312 1349 l 257
 738.325195312 1349 l 257
 810.754882812 1548 l 257
 648.754882812 1548 l 257
166.123046875 200 m 257
 93.3291015625 0 l 257
 255.329101562 0 l 257
 328.123046875 200 l 257
 166.123046875 200 l 257
EndSplineSet
EndChar

StartChar: Dcroat
Encoding: 272 272 23
GlifName: D_croat
Width: 1024
VWidth: 0
Flags: HW
LayerCount: 2
Fore
SplineSet
340.3125 935 m 257
 265.698242188 730 l 257
 741.698242188 730 l 257
 816.3125 935 l 257
 340.3125 935 l 257
670.42578125 1548 m 257
 107 0 l 257
 309 0 l 257
 872.42578125 1548 l 257
 670.42578125 1548 l 257
996.42578125 1548 m 257
 924.359375 1350 l 257
 1195.16503906 767 l 257
 1288.34179688 1023 l 257
 996.42578125 1548 l 257
514.158203125 201 m 257
 441 0 l 257
 1192.89355469 769 l 257
 1285.34179688 1023 l 257
 514.158203125 201 l 257
834.42578125 1548 m 257
 761.99609375 1349 l 257
 923.99609375 1349 l 257
 996.42578125 1548 l 257
 834.42578125 1548 l 257
351.793945312 200 m 257
 279 0 l 257
 441 0 l 257
 513.793945312 200 l 257
 351.793945312 200 l 257
EndSplineSet
EndChar

StartChar: E
Encoding: 69 69 24
GlifName: E_
Width: 1024
VWidth: 0
Flags: W
AnchorPoint: "top" 470 1641 basechar 0
AnchorPoint: "base" 546 -96 basechar 0
LayerCount: 2
Fore
SplineSet
393.2109375 1537 m 257
 -166.2109375 0 l 257
 33.7890625 0 l 257
 593.2109375 1537 l 257
 393.2109375 1537 l 257
471.2109375 1537 m 257
 396.9609375 1333 l 257
 1115.9609375 1333 l 257
 1190.2109375 1537 l 257
 471.2109375 1537 l 257
-25.3251953125 203 m 257
 -99.2109375 0 l 257
 646.7890625 0 l 257
 720.674804688 203 l 257
 -25.3251953125 203 l 257
223.995117188 888 m 257
 151.200195312 688 l 257
 650.200195312 688 l 257
 722.995117188 888 l 257
 223.995117188 888 l 257
EndSplineSet
EndChar

StartChar: Eng
Encoding: 330 330 33
GlifName: E_ng
Width: 1024
VWidth: 0
Flags: HW
LayerCount: 2
Fore
SplineSet
524 -211 m 257
 524 -406 l 257
 911 -406 l 257
 911 -211 l 257
 524 -211 l 257
112 1490 m 257
 112 0 l 257
 313 0 l 257
 313 1490 l 257
 112 1490 l 257
711 1476 m 257
 711 -406 l 257
 912 -406 l 257
 912 1476 l 257
 711 1476 l 257
112 1548 m 257
 112 1353 l 257
 911 1353 l 257
 911 1548 l 257
 112 1548 l 257
EndSplineSet
EndChar

StartChar: Eth
Encoding: 208 208 35
GlifName: E_th
Width: 1024
VWidth: 0
Flags: HW
LayerCount: 2
Fore
SplineSet
340.3125 935 m 257
 265.698242188 730 l 257
 741.698242188 730 l 257
 816.3125 935 l 257
 340.3125 935 l 257
670.42578125 1548 m 257
 107 0 l 257
 309 0 l 257
 872.42578125 1548 l 257
 670.42578125 1548 l 257
996.42578125 1548 m 257
 924.359375 1350 l 257
 1195.16503906 767 l 257
 1288.34179688 1023 l 257
 996.42578125 1548 l 257
514.158203125 201 m 257
 441 0 l 257
 1192.89355469 769 l 257
 1285.34179688 1023 l 257
 514.158203125 201 l 257
834.42578125 1548 m 257
 761.99609375 1349 l 257
 923.99609375 1349 l 257
 996.42578125 1548 l 257
 834.42578125 1548 l 257
351.793945312 200 m 257
 279 0 l 257
 441 0 l 257
 513.793945312 200 l 257
 351.793945312 200 l 257
EndSplineSet
EndChar

StartChar: Euro
Encoding: 8364 8364 36
GlifName: E_uro
Width: 1024
VWidth: 0
Flags: HW
LayerCount: 2
Fore
SplineSet
303.264648438 520 m 257
 249.396484375 372 l 257
 1045.39648438 372 l 257
 1099.26464844 520 l 257
 303.264648438 520 l 257
466.3125 935 m 257
 412.80859375 788 l 257
 1192.80859375 788 l 257
 1246.3125 935 l 257
 466.3125 935 l 257
754.341796875 1023 m 257
 447.150390625 179 l 257
 637.150390625 179 l 257
 944.341796875 1023 l 257
 754.341796875 1023 l 257
1294.36328125 1633 m 257
 753.341796875 1023 l 257
 944.341796875 1023 l 257
 1402.71679688 1601 l 257
 1294.36328125 1633 l 257
447.150390625 179 m 257
 578.228515625 -406 l 257
 730.228515625 -406 l 257
 637.150390625 179 l 257
 447.150390625 179 l 257
EndSplineSet
EndChar

StartChar: F
Encoding: 70 70 37
GlifName: F_
Width: 1024
VWidth: 0
Flags: W
LayerCount: 2
Fore
SplineSet
425.712890625 1548 m 257
 -137.712890625 0 l 257
 62.287109375 0 l 257
 625.712890625 1548 l 257
 425.712890625 1548 l 257
527.712890625 1548 m 257
 454.5546875 1347 l 257
 1088.5546875 1347 l 257
 1161.71289062 1548 l 257
 527.712890625 1548 l 257
270.760742188 875 m 257
 196.875 672 l 257
 745.875 672 l 257
 819.760742188 875 l 257
 270.760742188 875 l 257
EndSplineSet
EndChar

StartChar: G
Encoding: 71 71 38
GlifName: G_
Width: 1024
VWidth: 0
Flags: W
AnchorPoint: "top" 502 1649 basechar 0
AnchorPoint: "base" 540 -42 basechar 0
LayerCount: 2
Fore
SplineSet
414.712890625 1548 m 257
 -148.712890625 0 l 257
 53.287109375 0 l 257
 616.712890625 1548 l 257
 414.712890625 1548 l 257
472.712890625 1548 m 257
 399.5546875 1347 l 257
 1099.5546875 1347 l 257
 1172.71289062 1548 l 257
 472.712890625 1548 l 257
-44.1904296875 202 m 257
 -117.712890625 0 l 257
 645.287109375 0 l 257
 718.809570312 202 l 257
 -44.1904296875 202 l 257
650.474609375 561 m 257
 452.838867188 18 l 257
 651.838867188 18 l 257
 849.474609375 561 l 257
 650.474609375 561 l 257
EndSplineSet
EndChar

StartChar: H
Encoding: 72 72 42
GlifName: H_
Width: 1024
VWidth: 0
Flags: W
AnchorPoint: "top" 496 1638 basechar 0
AnchorPoint: "base" 496 -34 basechar 0
LayerCount: 2
Fore
SplineSet
393.7109375 1537 m 257
 -165.7109375 0 l 257
 34.2890625 0 l 257
 593.7109375 1537 l 257
 393.7109375 1537 l 257
979.7109375 1537 m 257
 420.2890625 0 l 257
 630.2890625 0 l 257
 1189.7109375 1537 l 257
 979.7109375 1537 l 257
326.630859375 1023 m 257
 252.016601562 818 l 257
 798.016601562 818 l 257
 872.630859375 1023 l 257
 326.630859375 1023 l 257
EndSplineSet
EndChar

StartChar: Hbar
Encoding: 294 294 43
GlifName: H_bar
Width: 1024
VWidth: 0
Flags: HW
LayerCount: 2
Fore
SplineSet
648.421875 1537 m 257
 89 0 l 257
 289 0 l 257
 848.421875 1537 l 257
 648.421875 1537 l 257
1234.421875 1537 m 257
 675 0 l 257
 885 0 l 257
 1444.421875 1537 l 257
 1234.421875 1537 l 257
581.341796875 1023 m 257
 506.727539062 818 l 257
 1052.72753906 818 l 257
 1127.34179688 1023 l 257
 581.341796875 1023 l 257
549.93359375 1434 m 257
 474.227539062 1226 l 257
 1399.22753906 1226 l 257
 1474.93359375 1434 l 257
 549.93359375 1434 l 257
EndSplineSet
EndChar

StartChar: I
Encoding: 73 73 45
GlifName: I_
Width: 1024
VWidth: 0
Flags: W
AnchorPoint: "top" 470 1641 basechar 0
AnchorPoint: "base" 736 -26 basechar 0
LayerCount: 2
Fore
SplineSet
450.119140625 1537 m 257
 376.59765625 1335 l 257
 1077.59765625 1335 l 257
 1151.11914062 1537 l 257
 450.119140625 1537 l 257
658.005859375 1468 m 257
 154.270507812 84 l 257
 354.270507812 84 l 257
 858.005859375 1468 l 257
 658.005859375 1468 l 257
-55.052734375 204 m 257
 -127.119140625 6 l 257
 628.880859375 6 l 257
 700.947265625 204 l 257
 -55.052734375 204 l 257
EndSplineSet
EndChar

StartChar: J
Encoding: 74 74 56
GlifName: J_
Width: 1024
VWidth: 0
Flags: W
AnchorPoint: "top" 798 1649 basechar 0
LayerCount: 2
Fore
SplineSet
976.890625 1527 m 257
 421.109375 0 l 257
 621.109375 0 l 257
 1176.890625 1527 l 257
 976.890625 1527 l 257
-77.185546875 208 m 257
 -152.890625 0 l 257
 462.109375 0 l 257
 537.814453125 208 l 257
 -77.185546875 208 l 257
29.185546875 503 m 257
 -134.96484375 52 l 257
 63.03515625 52 l 257
 227.185546875 503 l 257
 29.185546875 503 l 257
EndSplineSet
EndChar

StartChar: K
Encoding: 75 75 58
GlifName: K_
Width: 1024
VWidth: 0
Flags: W
AnchorPoint: "top" 524 1642 basechar 0
LayerCount: 2
Fore
SplineSet
381.755859375 1537 m 257
 -175.845703125 5 l 257
 25.154296875 5 l 257
 582.755859375 1537 l 257
 381.755859375 1537 l 257
230.94140625 999 m 257
 290.25 835 l 257
 1199.84570312 1529 l 257
 932.845703125 1529 l 257
 230.94140625 999 l 257
287.783203125 798 m 257
 94.3671875 643 l 257
 415.333984375 0 l 257
 696.333984375 0 l 257
 287.783203125 798 l 257
EndSplineSet
EndChar

StartChar: L
Encoding: 76 76 59
GlifName: L_
Width: 1024
VWidth: 0
Flags: W
AnchorPoint: "top" 140 1650 basechar 0
LayerCount: 2
Fore
SplineSet
618.98046875 1542 m 257
 57.73828125 0 l 257
 255.73828125 0 l 257
 816.98046875 1542 l 257
 618.98046875 1542 l 257
240.26171875 202 m 257
 166.73828125 0 l 257
 892.73828125 0 l 257
 966.26171875 202 l 257
 240.26171875 202 l 257
EndSplineSet
EndChar

StartChar: Lcaron
Encoding: 317 317 61
GlifName: L_caron
Width: 1024
VWidth: 0
Flags: HW
LayerCount: 2
Fore
SplineSet
614.2421875 1542 m 257
 53 0 l 257
 251 0 l 257
 812.2421875 1542 l 257
 614.2421875 1542 l 257
235.522460938 202 m 257
 162 0 l 257
 888 0 l 257
 961.522460938 202 l 257
 235.522460938 202 l 257
991.499023438 1496 m 257
 907.05859375 1264 l 257
 1037.05859375 1264 l 257
 1121.49902344 1496 l 257
 991.499023438 1496 l 257
EndSplineSet
EndChar

StartChar: Lslash
Encoding: 321 321 63
GlifName: L_slash
Width: 1024
VWidth: 0
Flags: HW
LayerCount: 2
Fore
SplineSet
732.2421875 1542 m 257
 171 0 l 257
 369 0 l 257
 930.2421875 1542 l 257
 732.2421875 1542 l 257
353.522460938 202 m 257
 280 0 l 257
 1006 0 l 257
 1079.52246094 202 l 257
 353.522460938 202 l 257
344.30078125 902 m 257
 361.698242188 730 l 257
 869.220703125 932 l 257
 851.823242188 1104 l 257
 344.30078125 902 l 257
EndSplineSet
EndChar

StartChar: M
Encoding: 77 77 64
GlifName: M_
Width: 1024
VWidth: 0
Flags: W
AnchorPoint: "top" 532 1642 basechar 0
LayerCount: 2
Fore
SplineSet
384.21484375 1548 m 257
 -179.2109375 0 l 257
 23.7890625 0 l 257
 587.21484375 1548 l 257
 384.21484375 1548 l 257
1001.2109375 1537 m 257
 441.7890625 0 l 257
 643.7890625 0 l 257
 1203.2109375 1537 l 257
 1001.2109375 1537 l 257
377.90234375 1429 m 257
 523.041992188 1031 l 257
 711.041992188 1031 l 257
 563.21484375 1548 l 257
 377.90234375 1429 l 257
1028.2109375 1537 m 257
 519.130859375 1023 l 257
 706.130859375 1023 l 257
 1176.37695312 1488 l 257
 1028.2109375 1537 l 257
EndSplineSet
EndChar

StartChar: N
Encoding: 78 78 65
GlifName: N_
Width: 1024
VWidth: 0
Flags: W
AnchorPoint: "top" 488 1642 basechar 0
AnchorPoint: "base" 522 -36 basechar 0
LayerCount: 2
Fore
SplineSet
379.212890625 1548 m 257
 -184.212890625 0 l 257
 20.787109375 0 l 257
 584.212890625 1548 l 257
 379.212890625 1548 l 257
1006.21289062 1548 m 257
 442.787109375 0 l 257
 644.787109375 0 l 257
 1208.21289062 1548 l 257
 1006.21289062 1548 l 257
380.212890625 1548 m 257
 443.787109375 0 l 257
 646.787109375 0 l 257
 585.212890625 1548 l 257
 380.212890625 1548 l 257
EndSplineSet
EndChar

StartChar: O
Encoding: 79 79 69
GlifName: O_
Width: 1024
VWidth: 0
Flags: W
AnchorPoint: "top" 456 1646 basechar 0
AnchorPoint: "base" 832 -34 basechar 0
LayerCount: 2
Fore
SplineSet
391.7109375 1537 m 257
 -167.7109375 0 l 257
 33.2890625 0 l 257
 592.7109375 1537 l 257
 391.7109375 1537 l 257
988.7109375 1537 m 257
 429.2890625 0 l 257
 632.2890625 0 l 257
 1191.7109375 1537 l 257
 988.7109375 1537 l 257
455.7109375 1537 m 257
 382.916992188 1337 l 257
 1025.91699219 1337 l 257
 1098.7109375 1537 l 257
 455.7109375 1537 l 257
-53.4609375 204 m 257
 -127.7109375 0 l 257
 545.2890625 0 l 257
 619.5390625 204 l 257
 -53.4609375 204 l 257
EndSplineSet
EndChar

StartChar: OE
Encoding: 338 338 70
GlifName: O_E_
Width: 1024
VWidth: 0
Flags: HW
LayerCount: 2
Fore
SplineSet
111 1548 m 257
 111 0 l 257
 312 0 l 257
 312 1548 l 257
 111 1548 l 257
503 1548 m 257
 503 0 l 257
 704 0 l 257
 704 1548 l 257
 503 1548 l 257
148 1548 m 257
 148 1349 l 257
 880 1349 l 257
 880 1548 l 257
 148 1548 l 257
150 200 m 257
 150 0 l 257
 888 0 l 257
 888 200 l 257
 150 200 l 257
606 859 m 257
 606 659 l 257
 850 659 l 257
 850 859 l 257
 606 859 l 257
EndSplineSet
EndChar

StartChar: Oslash
Encoding: 216 216 79
GlifName: O_slash
Width: 1024
VWidth: 0
Flags: HW
LayerCount: 2
Fore
SplineSet
1394.73828125 1667 m 257
 18.62109375 -45 l 257
 180.051757812 -118 l 257
 1556.16894531 1594 l 257
 1394.73828125 1667 l 257
669.421875 1537 m 257
 110 0 l 257
 311 0 l 257
 870.421875 1537 l 257
 669.421875 1537 l 257
1266.421875 1537 m 257
 707 0 l 257
 910 0 l 257
 1469.421875 1537 l 257
 1266.421875 1537 l 257
733.421875 1537 m 257
 660.627929688 1337 l 257
 1303.62792969 1337 l 257
 1376.421875 1537 l 257
 733.421875 1537 l 257
224.25 204 m 257
 150 0 l 257
 823 0 l 257
 897.25 204 l 257
 224.25 204 l 257
EndSplineSet
EndChar

StartChar: P
Encoding: 80 80 82
GlifName: P_
Width: 1024
VWidth: 0
Flags: W
AnchorPoint: "top" 448 1642 basechar 0
LayerCount: 2
Fore
SplineSet
414.575195312 1548 m 257
 -145.575195312 9 l 257
 44.4248046875 9 l 257
 604.575195312 1548 l 257
 414.575195312 1548 l 257
493.575195312 1548 m 257
 420.053710938 1346 l 257
 1076.05371094 1346 l 257
 1149.57519531 1548 l 257
 493.575195312 1548 l 257
969.575195312 1548 m 257
 726.807617188 881 l 257
 926.807617188 881 l 257
 1169.57519531 1548 l 257
 969.575195312 1548 l 257
302.869140625 1068 m 257
 230.075195312 868 l 257
 917.075195312 868 l 257
 989.869140625 1068 l 257
 302.869140625 1068 l 257
EndSplineSet
EndChar

StartChar: Q
Encoding: 81 81 83
GlifName: Q_
Width: 1024
VWidth: 0
Flags: W
LayerCount: 2
Fore
SplineSet
390.80078125 1537 m 257
 -166.80078125 5 l 257
 32.19921875 5 l 257
 589.80078125 1537 l 257
 390.80078125 1537 l 257
989.80078125 1537 m 257
 430.37890625 0 l 257
 631.37890625 0 l 257
 1190.80078125 1537 l 257
 989.80078125 1537 l 257
454.80078125 1537 m 257
 382.006835938 1337 l 257
 1025.00683594 1337 l 257
 1097.80078125 1537 l 257
 454.80078125 1537 l 257
-54.0068359375 205 m 257
 -128.62109375 0 l 257
 544.37890625 0 l 257
 618.993164062 205 l 257
 -54.0068359375 205 l 257
287.022460938 21 m 257
 361.647460938 -285 l 257
 594.868164062 -169 l 257
 520.243164062 137 l 257
 287.022460938 21 l 257
EndSplineSet
EndChar

StartChar: R
Encoding: 82 82 84
GlifName: R_
Width: 1024
VWidth: 0
Flags: W
AnchorPoint: "top" 480 1642 basechar 0
LayerCount: 2
Fore
SplineSet
410.7109375 1537 m 257
 -148.7109375 0 l 257
 52.2890625 0 l 257
 611.7109375 1537 l 257
 410.7109375 1537 l 257
489.7109375 1537 m 257
 416.189453125 1335 l 257
 1072.18945312 1335 l 257
 1145.7109375 1537 l 257
 489.7109375 1537 l 257
972.7109375 1537 m 257
 730.670898438 872 l 257
 930.670898438 872 l 257
 1172.7109375 1537 l 257
 972.7109375 1537 l 257
307.012695312 1079 m 257
 230.21484375 868 l 257
 917.21484375 868 l 257
 994.012695312 1079 l 257
 307.012695312 1079 l 257
371.399414062 874 m 257
 455.2890625 0 l 257
 695.2890625 0 l 257
 597.670898438 872 l 257
 371.399414062 874 l 257
EndSplineSet
EndChar

StartChar: S
Encoding: 83 83 87
GlifName: S_
Width: 1024
VWidth: 0
Flags: W
AnchorPoint: "top" 508 1650 basechar 0
AnchorPoint: "base" 528 -58 basechar 0
LayerCount: 2
Fore
SplineSet
478.7109375 1537 m 257
 405.553710938 1336 l 257
 1003.55371094 1336 l 257
 1076.7109375 1537 l 257
 478.7109375 1537 l 257
480.53125 1542 m 257
 293.450195312 1028 l 257
 495.450195312 1028 l 257
 682.53125 1542 l 257
 480.53125 1542 l 257
19.71875 199 m 257
 -52.7109375 0 l 257
 655.2890625 0 l 257
 727.71875 199 l 257
 19.71875 199 l 257
490.2890625 0 m 257
 691.2890625 0 l 257
 820.498046875 355 l 257
 619.498046875 355 l 257
 490.2890625 0 l 257
293.450195312 1028 m 257
 619.498046875 355 l 257
 820.498046875 355 l 257
 495.450195312 1028 l 257
 293.450195312 1028 l 257
EndSplineSet
EndChar

StartChar: T
Encoding: 84 84 92
GlifName: T_
Width: 1024
VWidth: 0
Flags: W
AnchorPoint: "top" 516 1638 basechar 0
AnchorPoint: "base" 492 -54 basechar 0
LayerCount: 2
Fore
SplineSet
262.12109375 1548 m 257
 189.327148438 1348 l 257
 963.327148438 1348 l 257
 1036.12109375 1548 l 257
 262.12109375 1548 l 257
508.356445312 1436 m 257
 -12.12109375 6 l 257
 187.87890625 6 l 257
 708.356445312 1436 l 257
 508.356445312 1436 l 257
EndSplineSet
EndChar

StartChar: Thorn
Encoding: 222 222 94
GlifName: T_horn
Width: 1024
VWidth: 0
Flags: HW
LayerCount: 2
Fore
SplineSet
673.2421875 1542 m 257
 115.275390625 9 l 257
 305.275390625 9 l 257
 863.2421875 1542 l 257
 673.2421875 1542 l 257
640.139648438 1234 m 257
 567.708984375 1035 l 257
 1223.70898438 1035 l 257
 1296.13964844 1234 l 257
 640.139648438 1234 l 257
1115.77539062 1233 m 257
 874.098632812 569 l 257
 1074.09863281 569 l 257
 1315.77539062 1233 l 257
 1115.77539062 1233 l 257
427.956054688 684 m 257
 355.161132812 484 l 257
 1042.16113281 484 l 257
 1114.95605469 684 l 257
 427.956054688 684 l 257
EndSplineSet
EndChar

StartChar: U
Encoding: 85 85 95
GlifName: U_
Width: 1024
VWidth: 0
Flags: W
AnchorPoint: "top" 508 1642 basechar 0
AnchorPoint: "base" 536 -94 basechar 0
LayerCount: 2
Fore
SplineSet
436.7109375 1537 m 257
 -122.7109375 0 l 257
 77.2890625 0 l 257
 636.7109375 1537 l 257
 436.7109375 1537 l 257
947.7109375 1537 m 257
 388.2890625 0 l 257
 587.2890625 0 l 257
 1146.7109375 1537 l 257
 947.7109375 1537 l 257
-2.9169921875 200 m 257
 -75.7109375 0 l 257
 544.2890625 0 l 257
 617.083007812 200 l 257
 -2.9169921875 200 l 257
EndSplineSet
EndChar

StartChar: V
Encoding: 86 86 107
GlifName: V_
Width: 1024
VWidth: 0
Flags: W
AnchorPoint: "top" 496 1642 basechar 0
AnchorPoint: "base" 564 -54 basechar 0
LayerCount: 2
Fore
SplineSet
258.212890625 1548 m 257
 -45.212890625 0 l 257
 175.787109375 0 l 257
 459.212890625 1548 l 257
 258.212890625 1548 l 257
868.212890625 1548 m 257
 79.787109375 0 l 257
 302.787109375 0 l 257
 1069.21289062 1548 l 257
 868.212890625 1548 l 257
EndSplineSet
EndChar

StartChar: W
Encoding: 87 87 108
GlifName: W_
Width: 1024
VWidth: 0
Flags: W
AnchorPoint: "top" 508 1646 basechar 0
LayerCount: 2
Fore
SplineSet
385.212890625 1548 m 257
 -178.212890625 0 l 257
 22.787109375 0 l 257
 586.212890625 1548 l 257
 385.212890625 1548 l 257
1002.21289062 1548 m 257
 443.154296875 12 l 257
 644.154296875 12 l 257
 1203.21289062 1548 l 257
 1002.21289062 1548 l 257
504.948242188 1028 m 257
 130.787109375 0 l 257
 331.787109375 0 l 257
 705.948242188 1028 l 257
 504.948242188 1028 l 257
-106.0546875 201 m 257
 -179.212890625 0 l 257
 639.787109375 0 l 257
 712.9453125 201 l 257
 -106.0546875 201 l 257
EndSplineSet
EndChar

StartChar: X
Encoding: 88 88 113
GlifName: X_
Width: 1024
VWidth: 0
Flags: W
LayerCount: 2
Fore
SplineSet
374.12109375 1548 m 257
 452.6953125 0 l 257
 652.6953125 0 l 257
 573.12109375 1548 l 257
 374.12109375 1548 l 257
-184.12109375 6 m 257
 16.87890625 6 l 257
 1208.12109375 1548 l 257
 1009.12109375 1548 l 257
 -184.12109375 6 l 257
EndSplineSet
EndChar

StartChar: Y
Encoding: 89 89 114
GlifName: Y_
Width: 1024
VWidth: 0
Flags: W
AnchorPoint: "top" 524 1638 basechar 0
AnchorPoint: "base" 508 -70 basechar 0
LayerCount: 2
Fore
SplineSet
330.268554688 897 m 257
 3.787109375 0 l 257
 205.787109375 0 l 257
 532.268554688 897 l 257
 330.268554688 897 l 257
316.212890625 1548 m 257
 65.4375 859 l 257
 265.4375 859 l 257
 516.212890625 1548 l 257
 316.212890625 1548 l 257
821.212890625 1548 m 257
 570.4375 859 l 257
 769.4375 859 l 257
 1020.21289062 1548 l 257
 821.212890625 1548 l 257
193.12890625 1023 m 257
 133.4375 859 l 257
 679.4375 859 l 257
 739.12890625 1023 l 257
 193.12890625 1023 l 257
EndSplineSet
EndChar

StartChar: Z
Encoding: 90 90 119
GlifName: Z_
Width: 1024
VWidth: 0
Flags: W
AnchorPoint: "top" 496 1646 basechar 0
AnchorPoint: "base" 560 -46 basechar 0
LayerCount: 2
Fore
SplineSet
376.212890625 1548 m 257
 299.051757812 1336 l 257
 1133.05175781 1336 l 257
 1210.21289062 1548 l 257
 376.212890625 1548 l 257
-109.05078125 212 m 257
 -186.212890625 0 l 257
 641.787109375 0 l 257
 718.94921875 212 l 257
 -109.05078125 212 l 257
871.6875 1335 m 257
 -109.415039062 211 l 257
 97.5849609375 211 l 257
 1116.6875 1335 l 257
 871.6875 1335 l 257
EndSplineSet
EndChar

StartChar: a
Encoding: 97 97 123
GlifName: a
Width: 1024
VWidth: 0
Flags: W
AnchorPoint: "top" 500 1134 basechar 0
AnchorPoint: "base" 752 -62 basechar 0
LayerCount: 2
Fore
SplineSet
353.670898438 1023 m 257
 281.240234375 824 l 257
 887.240234375 824 l 257
 959.670898438 1023 l 257
 353.670898438 1023 l 257
846.670898438 1023 m 257
 474.329101562 0 l 257
 668.329101562 0 l 257
 1040.67089844 1023 l 257
 846.670898438 1023 l 257
203.34765625 599 m 257
 130.916992188 400 l 257
 754.916992188 400 l 257
 827.34765625 599 l 257
 203.34765625 599 l 257
194.612304688 575 m 257
 -14.6708984375 0 l 257
 186.329101562 0 l 257
 395.612304688 575 l 257
 194.612304688 575 l 257
56.4873046875 201 m 257
 -16.6708984375 0 l 257
 673.329101562 0 l 257
 746.487304688 201 l 257
 56.4873046875 201 l 257
EndSplineSet
EndChar

StartChar: acute
Encoding: 180 180 127
GlifName: acute
Width: 1024
VWidth: 0
Flags: W
LayerCount: 2
Fore
SplineSet
586.9140625 1556 m 257
 364.46484375 1302 l 257
 435.72265625 1256 l 257
 659.53515625 1511 l 257
 586.9140625 1556 l 257
EndSplineSet
EndChar

StartChar: acutecomb
Encoding: 769 769 128
GlifName: acutecomb
Width: 0
VWidth: 0
GlyphClass: 4
Flags: HW
AnchorPoint: "top" 596 1832 mark 0
LayerCount: 2
Fore
SplineSet
813.955078125 2180 m 257
 591.505859375 1926 l 257
 662.763671875 1880 l 257
 886.576171875 2135 l 257
 813.955078125 2180 l 257
EndSplineSet
EndChar

StartChar: ae
Encoding: 230 230 130
GlifName: ae
Width: 1024
VWidth: 0
Flags: HW
LayerCount: 2
Fore
SplineSet
420.341796875 1023 m 257
 347.911132812 824 l 257
 1166.91113281 824 l 257
 1239.34179688 1023 l 257
 420.341796875 1023 l 257
821.341796875 1023 m 257
 449 0 l 257
 643 0 l 257
 1015.34179688 1023 l 257
 821.341796875 1023 l 257
289.018554688 599 m 257
 216.587890625 400 l 257
 1013.58789062 400 l 257
 1086.01855469 599 l 257
 289.018554688 599 l 257
280.283203125 575 m 257
 71 0 l 257
 272 0 l 257
 481.283203125 575 l 257
 280.283203125 575 l 257
142.158203125 201 m 257
 69 0 l 257
 989 0 l 257
 1062.15820312 201 l 257
 142.158203125 201 l 257
1145.34179688 1023 m 257
 918.587890625 400 l 257
 1113.58789062 400 l 257
 1340.34179688 1023 l 257
 1145.34179688 1023 l 257
EndSplineSet
EndChar

StartChar: ampersand
Encoding: 38 38 134
GlifName: ampersand
Width: 1024
VWidth: 0
Flags: W
LayerCount: 2
Fore
SplineSet
594.619140625 1537 m 257
 487.564453125 12 l 257
 649.580078125 56 l 257
 756.619140625 1537 l 257
 594.619140625 1537 l 257
1089.11914062 1401 m 257
 1138.61914062 1537 l 257
 672.619140625 1537 l 257
 623.119140625 1401 l 257
 1089.11914062 1401 l 257
945.498046875 1446 m 257
 752.958007812 917 l 257
 912.958007812 917 l 257
 1105.49804688 1446 l 257
 945.498046875 1446 l 257
263.545898438 1045 m 257
 190.024414062 843 l 257
 886.024414062 843 l 257
 959.545898438 1045 l 257
 263.545898438 1045 l 257
263.545898438 1045 m 257
 -108.067382812 24 l 257
 101.932617188 24 l 257
 473.545898438 1045 l 257
 263.545898438 1045 l 257
-47.6484375 190 m 257
 -114.619140625 6 l 257
 693.380859375 6 l 257
 760.3515625 190 l 257
 -47.6484375 190 l 257
EndSplineSet
EndChar

StartChar: asciicircum
Encoding: 94 94 138
GlifName: asciicircum
Width: 1024
VWidth: 0
Flags: W
LayerCount: 2
Fore
SplineSet
812.98046875 1023 m 257
 663.98046875 1023 l 257
 174.7734375 407 l 257
 302.20703125 345 l 257
 812.98046875 1023 l 257
626.66796875 904 m 257
 678.48046875 343 l 257
 849.2265625 400 l 257
 812.98046875 1023 l 257
 626.66796875 904 l 257
EndSplineSet
EndChar

StartChar: asciitilde
Encoding: 126 126 139
GlifName: asciitilde
Width: 1024
VWidth: 0
Flags: W
LayerCount: 2
Fore
SplineSet
384.376953125 815 m 257
 348.34375 716 l 257
 676.141601562 655 l 257
 712.174804688 754 l 257
 384.376953125 815 l 257
125.266601562 757 m 257
 104.59765625 659 l 257
 348.34375 716 l 257
 384.376953125 815 l 257
 125.266601562 757 l 257
712.174804688 754 m 257
 676.141601562 655 l 257
 908.461914062 796 l 257
 919.40234375 892 l 257
 712.174804688 754 l 257
EndSplineSet
EndChar

StartChar: asterisk
Encoding: 42 42 140
GlifName: asterisk
Width: 1024
VWidth: 0
Flags: W
LayerCount: 2
Fore
SplineSet
587.666015625 1297 m 257
 224.787109375 300 l 257
 454.787109375 300 l 257
 817.666015625 1297 l 257
 587.666015625 1297 l 257
158.599609375 1099 m 257
 617.625 360 l 257
 829.037109375 504 l 257
 365.283203125 1241 l 257
 158.599609375 1099 l 257
959.0078125 1232 m 257
 -21.3203125 525 l 257
 64.9921875 372 l 257
 1045.3203125 1079 l 257
 959.0078125 1232 l 257
EndSplineSet
EndChar

StartChar: at
Encoding: 64 64 141
GlifName: at
Width: 1024
VWidth: 0
Flags: W
LayerCount: 2
Fore
SplineSet
336.306640625 1023 m 257
 283.89453125 879 l 257
 1102.89453125 879 l 257
 1155.30664062 1023 l 257
 336.306640625 1023 l 257
715.435546875 592 m 257
 499.96484375 0 l 257
 652.96484375 0 l 257
 868.435546875 592 l 257
 715.435546875 592 l 257
385.34765625 600 m 257
 328.568359375 444 l 257
 753.568359375 444 l 257
 810.34765625 600 l 257
 385.34765625 600 l 257
378.34375 589 m 257
 168.33203125 12 l 257
 342.33203125 12 l 257
 552.34375 589 l 257
 378.34375 589 l 257
230.392578125 188 m 257
 161.96484375 0 l 257
 655.96484375 0 l 257
 724.392578125 188 l 257
 230.392578125 188 l 257
248.306640625 1023 m 257
 -205.19921875 -223 l 257
 -29.19921875 -223 l 257
 424.306640625 1023 l 257
 248.306640625 1023 l 257
-157.3359375 -86 m 257
 -219.939453125 -258 l 257
 728.060546875 -258 l 257
 790.6640625 -86 l 257
 -157.3359375 -86 l 257
1092.93945312 1011 m 257
 724.96484375 0 l 257
 875.96484375 0 l 257
 1243.93945312 1011 l 257
 1092.93945312 1011 l 257
660.66015625 175 m 257
 596.96484375 0 l 257
 805.96484375 0 l 257
 869.66015625 175 l 257
 660.66015625 175 l 257
EndSplineSet
EndChar

StartChar: b
Encoding: 98 98 143
GlifName: b
Width: 1024
VWidth: 0
Flags: W
AnchorPoint: "top" 220 1646 basechar 0
LayerCount: 2
Fore
SplineSet
506.431640625 1537 m 257
 -52.990234375 0 l 257
 146.009765625 0 l 257
 705.431640625 1537 l 257
 506.431640625 1537 l 257
419.990234375 1033 m 257
 347.560546875 834 l 257
 865.560546875 834 l 257
 937.990234375 1033 l 257
 419.990234375 1033 l 257
877.990234375 1033 m 257
 502.009765625 0 l 257
 701.009765625 0 l 257
 1076.99023438 1033 l 257
 877.990234375 1033 l 257
147.3515625 207 m 257
 72.009765625 0 l 257
 622.009765625 0 l 257
 697.3515625 207 l 257
 147.3515625 207 l 257
EndSplineSet
EndChar

StartChar: backslash
Encoding: 92 92 144
GlifName: backslash
Width: 1024
VWidth: 0
Flags: W
LayerCount: 2
Fore
SplineSet
353.412109375 1441 m 257
 451.19921875 -13 l 257
 670.587890625 65 l 257
 573.80078125 1519 l 257
 353.412109375 1441 l 257
EndSplineSet
EndChar

StartChar: bar
Encoding: 124 124 145
GlifName: bar
Width: 1024
VWidth: 0
Flags: W
LayerCount: 2
Fore
SplineSet
688.02734375 1435 m 257
 132.97265625 -90 l 257
 335.97265625 -90 l 257
 891.02734375 1435 l 257
 688.02734375 1435 l 257
EndSplineSet
EndChar

StartChar: braceleft
Encoding: 123 123 146
GlifName: braceleft
Width: 1024
VWidth: 0
Flags: W
LayerCount: 2
Fore
SplineSet
693.251953125 1548 m 257
 434.83203125 838 l 257
 580.83203125 838 l 257
 839.251953125 1548 l 257
 693.251953125 1548 l 257
296.1484375 424 m 257
 37.73046875 -286 l 257
 183.73046875 -286 l 257
 442.1484375 424 l 257
 296.1484375 424 l 257
91.96484375 690 m 257
 70.126953125 630 l 257
 580.83203125 838 l 257
 434.83203125 838 l 257
 91.96484375 690 l 257
91.96484375 690 m 257
 70.126953125 630 l 257
 294.513671875 425 l 257
 443.513671875 425 l 257
 91.96484375 690 l 257
714.26953125 1603 m 257
 659.310546875 1452 l 257
 971.71484375 1574 l 257
 986.26953125 1603 l 257
 714.26953125 1603 l 257
91.869140625 -140 m 257
 38.3671875 -287 l 257
 314.3671875 -287 l 257
 319.09765625 -274 l 257
 91.869140625 -140 l 257
EndSplineSet
EndChar

StartChar: braceright
Encoding: 125 125 147
GlifName: braceright
Width: 1024
VWidth: 0
Flags: W
LayerCount: 2
Fore
SplineSet
987.38671875 1548 m 257
 825.38671875 1548 l 257
 566.96875 838 l 257
 728.96875 838 l 257
 987.38671875 1548 l 257
564.28515625 424 m 257
 404.28515625 424 l 257
 145.865234375 -286 l 257
 305.865234375 -286 l 257
 564.28515625 424 l 257
948.1015625 690 m 257
 723.96875 838 l 257
 562.96875 838 l 257
 926.26171875 630 l 257
 948.1015625 690 l 257
948.1015625 690 m 257
 404.28515625 424 l 257
 564.28515625 424 l 257
 926.26171875 630 l 257
 948.1015625 690 l 257
1008.40625 1603 m 257
 733.40625 1603 l 257
 726.849609375 1574 l 257
 953.4453125 1452 l 257
 1008.40625 1603 l 257
344.005859375 -140 m 257
 19.234375 -274 l 257
 15.59375 -284 l 257
 291.59375 -284 l 257
 344.005859375 -140 l 257
EndSplineSet
EndChar

StartChar: bracketleft
Encoding: 91 91 148
GlifName: bracketleft
Width: 1024
VWidth: 0
Flags: W
LayerCount: 2
Fore
SplineSet
704.979492188 1542 m 257
 55.65625 -242 l 257
 177.65625 -242 l 257
 826.979492188 1542 l 257
 704.979492188 1542 l 257
759.34375 1543 m 257
 713.119140625 1416 l 257
 922.119140625 1416 l 257
 968.34375 1543 l 257
 759.34375 1543 l 257
164.616210938 -91 m 257
 109.65625 -242 l 257
 323.65625 -242 l 257
 378.616210938 -91 l 257
 164.616210938 -91 l 257
EndSplineSet
EndChar

StartChar: bracketright
Encoding: 93 93 149
GlifName: bracketright
Width: 1024
VWidth: 0
Flags: W
LayerCount: 2
Fore
SplineSet
850.662109375 1542 m 257
 201.337890625 -242 l 257
 323.337890625 -242 l 257
 972.662109375 1542 l 257
 850.662109375 1542 l 257
701.025390625 1543 m 257
 654.80078125 1416 l 257
 863.80078125 1416 l 257
 910.025390625 1543 l 257
 701.025390625 1543 l 257
106.298828125 -91 m 257
 51.337890625 -242 l 257
 265.337890625 -242 l 257
 320.298828125 -91 l 257
 106.298828125 -91 l 257
EndSplineSet
EndChar

StartChar: breve
Encoding: 728 728 150
GlifName: breve
Width: 1024
VWidth: 0
Flags: W
LayerCount: 2
Fore
SplineSet
659.34765625 1548 m 257
 634.59765625 1480 l 257
 824.34765625 1548 l 257
 859.65234375 1645 l 257
 659.34765625 1548 l 257
335.34765625 1548 m 257
 310.59765625 1480 l 257
 634.59765625 1480 l 257
 659.34765625 1548 l 257
 335.34765625 1548 l 257
194.193359375 1630 m 257
 164.34765625 1548 l 257
 310.59765625 1480 l 257
 335.34765625 1548 l 257
 194.193359375 1630 l 257
EndSplineSet
EndChar

StartChar: brokenbar
Encoding: 166 166 151
GlifName: brokenbar
Width: 1024
VWidth: 0
Flags: W
LayerCount: 2
Fore
SplineSet
97.353515625 -332 m 257
 207.353515625 -332 l 257
 576.418945312 682 l 257
 466.418945312 682 l 257
 97.353515625 -332 l 257
508.727539062 790 m 257
 618.727539062 790 l 257
 926.646484375 1636 l 257
 816.646484375 1636 l 257
 508.727539062 790 l 257
EndSplineSet
EndChar

StartChar: bullet
Encoding: 8226 8226 152
GlifName: bullet
Width: 1024
VWidth: 0
Flags: W
LayerCount: 2
Fore
SplineSet
416.452148438 1023 m 257
 322.547851562 765 l 257
 607.547851562 765 l 257
 701.452148438 1023 l 257
 416.452148438 1023 l 257
EndSplineSet
EndChar

StartChar: c
Encoding: 99 99 153
GlifName: c
Width: 1024
VWidth: 0
Flags: W
AnchorPoint: "top" 492 1162 basechar 0
LayerCount: 2
Fore
SplineSet
349.170898438 1023 m 257
 277.46875 826 l 257
 973.46875 826 l 257
 1045.17089844 1023 l 257
 349.170898438 1023 l 257
336.975585938 984 m 257
 -21.1708984375 0 l 257
 180.829101562 0 l 257
 538.975585938 984 l 257
 336.975585938 984 l 257
157.987304688 201 m 257
 84.8291015625 0 l 257
 666.829101562 0 l 257
 739.987304688 201 l 257
 157.987304688 201 l 257
EndSplineSet
EndChar

StartChar: caron
Encoding: 711 711 155
GlifName: caron
Width: 1024
VWidth: 0
Flags: W
LayerCount: 2
Fore
SplineSet
433.9375 1083 m 257
 424.783203125 1437 l 257
 334.772460938 1404 l 257
 355.9375 1083 l 257
 433.9375 1083 l 257
381.868164062 1146 m 257
 433.9375 1083 l 257
 689.227539062 1408 l 257
 621.783203125 1437 l 257
 381.868164062 1146 l 257
EndSplineSet
EndChar

StartChar: cedilla
Encoding: 184 184 160
GlifName: cedilla
Width: 1024
VWidth: 0
Flags: W
LayerCount: 2
Fore
SplineSet
427.764648438 242 m 257
 309.837890625 -82 l 257
 465.837890625 -82 l 257
 583.764648438 242 l 257
 427.764648438 242 l 257
258.426757812 -226 m 257
 214.75 -346 l 257
 660.75 -346 l 257
 704.426757812 -226 l 257
 258.426757812 -226 l 257
657.25 62 m 257
 521.852539062 -310 l 257
 673.852539062 -310 l 257
 809.25 62 l 257
 657.25 62 l 257
363.25 62 m 257
 306.470703125 -94 l 257
 752.470703125 -94 l 257
 809.25 62 l 257
 363.25 62 l 257
EndSplineSet
EndChar

StartChar: cent
Encoding: 162 162 161
GlifName: cent
Width: 1024
VWidth: 0
Flags: W
LayerCount: 2
Fore
SplineSet
934.40625 1183 m 257
 787.40625 1183 l 257
 325.52734375 -86 l 257
 472.52734375 -86 l 257
 934.40625 1183 l 257
349.170898438 1023 m 257
 277.46875 826 l 257
 973.46875 826 l 257
 1045.17089844 1023 l 257
 349.170898438 1023 l 257
336.975585938 984 m 257
 -21.1708984375 0 l 257
 180.829101562 0 l 257
 538.975585938 984 l 257
 336.975585938 984 l 257
157.987304688 201 m 257
 84.8291015625 0 l 257
 666.829101562 0 l 257
 739.987304688 201 l 257
 157.987304688 201 l 257
EndSplineSet
EndChar

StartChar: circumflex
Encoding: 710 710 162
GlifName: circumflex
Width: 1024
VWidth: 0
Flags: W
LayerCount: 2
Fore
SplineSet
632.946289062 1330 m 257
 572.946289062 1330 l 257
 377.045898438 1083 l 257
 427.946289062 1058 l 257
 632.946289062 1330 l 257
557.475585938 1282 m 257
 578.946289062 1058 l 257
 646.954101562 1080 l 257
 632.946289062 1330 l 257
 557.475585938 1282 l 257
EndSplineSet
EndChar

StartChar: colon
Encoding: 58 58 163
GlifName: colon
Width: 1024
VWidth: 0
Flags: W
LayerCount: 2
Fore
SplineSet
275.439453125 430 m 257
 192.08984375 201 l 257
 440.08984375 201 l 257
 523.439453125 430 l 257
 275.439453125 430 l 257
565.91015625 1294 m 257
 476.009765625 1047 l 257
 742.009765625 1047 l 257
 831.91015625 1294 l 257
 565.91015625 1294 l 257
EndSplineSet
EndChar

StartChar: comma
Encoding: 44 44 164
GlifName: comma
Width: 1024
VWidth: 0
Flags: W
LayerCount: 2
Fore
SplineSet
467.700195312 237 m 257
 384.3515625 8 l 257
 632.3515625 8 l 257
 715.700195312 237 l 257
 467.700195312 237 l 257
528.575195312 135 m 257
 308.299804688 -146 l 257
 430.461914062 -206 l 257
 627.439453125 0 l 257
 528.575195312 135 l 257
EndSplineSet
EndChar

StartChar: copyright
Encoding: 169 169 165
GlifName: copyright
Width: 1024
VWidth: 0
Flags: W
LayerCount: 2
Fore
SplineSet
291.2109375 1537 m 257
 -268.2109375 0 l 257
 -67.2109375 0 l 257
 492.2109375 1537 l 257
 291.2109375 1537 l 257
1089.2109375 1537 m 257
 529.7890625 0 l 257
 732.7890625 0 l 257
 1292.2109375 1537 l 257
 1089.2109375 1537 l 257
401.2109375 1537 m 257
 328.416992188 1337 l 257
 1019.41699219 1337 l 257
 1092.2109375 1537 l 257
 401.2109375 1537 l 257
-59.9609375 204 m 257
 -134.2109375 0 l 257
 538.7890625 0 l 257
 613.0390625 204 l 257
 -59.9609375 204 l 257
413.461914062 1197 m 257
 340.303710938 996 l 257
 775.303710938 996 l 257
 848.461914062 1197 l 257
 413.461914062 1197 l 257
398.810546875 1154 m 257
 102.5390625 340 l 257
 271.5390625 340 l 257
 567.810546875 1154 l 257
 398.810546875 1154 l 257
158.954101562 495 m 257
 85.7958984375 294 l 257
 525.795898438 294 l 257
 598.954101562 495 l 257
 158.954101562 495 l 257
EndSplineSet
EndChar

StartChar: currency
Encoding: 164 164 166
GlifName: currency
Width: 1024
VWidth: 0
Flags: W
LayerCount: 2
Fore
SplineSet
278.61328125 1202 m 257
 -93.36328125 180 l 257
 106.63671875 180 l 257
 478.61328125 1202 l 257
 278.61328125 1202 l 257
894.341796875 1204 m 257
 521.63671875 180 l 257
 723.63671875 180 l 257
 1096.34179688 1204 l 257
 894.341796875 1204 l 257
402.341796875 1204 m 257
 328.8203125 1002 l 257
 914.8203125 1002 l 257
 988.341796875 1204 l 257
 402.341796875 1204 l 257
106.4296875 380 m 257
 34 181 l 257
 606 181 l 257
 678.4296875 380 l 257
 106.4296875 380 l 257
255.666015625 1356 m 257
 165.763671875 1109 l 257
 433.763671875 1109 l 257
 523.666015625 1356 l 257
 255.666015625 1356 l 257
944.56640625 1331 m 257
 854.666015625 1084 l 257
 1118.66601562 1084 l 257
 1208.56640625 1331 l 257
 944.56640625 1331 l 257
-94.666015625 366 m 257
 -184.56640625 119 l 257
 79.43359375 119 l 257
 169.333984375 366 l 257
 -94.666015625 366 l 257
577.154296875 371 m 257
 487.25390625 124 l 257
 751.25390625 124 l 257
 841.154296875 371 l 257
 577.154296875 371 l 257
EndSplineSet
EndChar

StartChar: d
Encoding: 100 100 167
GlifName: d
Width: 1024
VWidth: 0
Flags: W
AnchorPoint: "top" 824 1642 basechar 0
LayerCount: 2
Fore
SplineSet
969.390625 1527 m 257
 413.609375 0 l 257
 614.609375 0 l 257
 1170.390625 1527 l 257
 969.390625 1527 l 257
321.951171875 1023 m 257
 248.79296875 822 l 257
 801.79296875 822 l 257
 874.951171875 1023 l 257
 321.951171875 1023 l 257
225.951171875 1023 m 257
 -146.390625 0 l 257
 54.609375 0 l 257
 426.951171875 1023 l 257
 225.951171875 1023 l 257
20.583984375 195 m 257
 -50.390625 0 l 257
 566.609375 0 l 257
 637.583984375 195 l 257
 20.583984375 195 l 257
EndSplineSet
EndChar

StartChar: dagger
Encoding: 8224 8224 168
GlifName: dagger
Width: 1024
VWidth: 0
Flags: W
LayerCount: 2
Fore
SplineSet
324.6640625 1251 m 257
 264.607421875 1086 l 257
 870.607421875 1086 l 257
 930.6640625 1251 l 257
 324.6640625 1251 l 257
656.76171875 1548 m 257
 93.3359375 0 l 257
 238.3359375 0 l 257
 801.76171875 1548 l 257
 656.76171875 1548 l 257
EndSplineSet
EndChar

StartChar: daggerdbl
Encoding: 8225 8225 169
GlifName: daggerdbl
Width: 1024
VWidth: 0
Flags: W
LayerCount: 2
Fore
SplineSet
210.376953125 937 m 257
 150.322265625 772 l 257
 756.322265625 772 l 257
 816.376953125 937 l 257
 210.376953125 937 l 257
324.6640625 1251 m 257
 264.607421875 1086 l 257
 870.607421875 1086 l 257
 930.6640625 1251 l 257
 324.6640625 1251 l 257
656.76171875 1548 m 257
 93.3359375 0 l 257
 238.3359375 0 l 257
 801.76171875 1548 l 257
 656.76171875 1548 l 257
EndSplineSet
EndChar

StartChar: dcaron
Encoding: 271 271 170
GlifName: dcaron
Width: 1024
VWidth: 0
Flags: HW
LayerCount: 2
Fore
SplineSet
1168.78222656 1527 m 257
 613 0 l 257
 814 0 l 257
 1369.78222656 1527 l 257
 1168.78222656 1527 l 257
521.341796875 1023 m 257
 448.18359375 822 l 257
 1001.18359375 822 l 257
 1074.34179688 1023 l 257
 521.341796875 1023 l 257
425.341796875 1023 m 257
 53 0 l 257
 254 0 l 257
 626.341796875 1023 l 257
 425.341796875 1023 l 257
219.974609375 195 m 257
 149 0 l 257
 766 0 l 257
 836.974609375 195 l 257
 219.974609375 195 l 257
1404.49902344 1496 m 257
 1320.05859375 1264 l 257
 1450.05859375 1264 l 257
 1534.49902344 1496 l 257
 1404.49902344 1496 l 257
EndSplineSet
EndChar

StartChar: dcroat
Encoding: 273 273 171
GlifName: dcroat
Width: 1024
VWidth: 0
Flags: HW
LayerCount: 2
Fore
SplineSet
1247.78222656 1527 m 257
 692 0 l 257
 893 0 l 257
 1448.78222656 1527 l 257
 1247.78222656 1527 l 257
600.341796875 1023 m 257
 527.18359375 822 l 257
 1080.18359375 822 l 257
 1153.34179688 1023 l 257
 600.341796875 1023 l 257
504.341796875 1023 m 257
 132 0 l 257
 333 0 l 257
 705.341796875 1023 l 257
 504.341796875 1023 l 257
298.974609375 195 m 257
 228 0 l 257
 845 0 l 257
 915.974609375 195 l 257
 298.974609375 195 l 257
1065.65039062 1403 m 257
 992.4921875 1202 l 257
 1436.4921875 1202 l 257
 1509.65039062 1403 l 257
 1065.65039062 1403 l 257
EndSplineSet
EndChar

StartChar: degree
Encoding: 176 176 172
GlifName: degree
Width: 1024
VWidth: 0
Flags: W
LayerCount: 2
Fore
SplineSet
459.9296875 1456 m 257
 607.9296875 1456 l 257
 560.615234375 1326 l 257
 412.615234375 1326 l 257
 459.9296875 1456 l 257
388.416015625 1548 m 257
 275.583984375 1238 l 257
 635.583984375 1238 l 257
 748.416015625 1548 l 257
 388.416015625 1548 l 257
EndSplineSet
EndChar

StartChar: dieresis
Encoding: 168 168 173
GlifName: dieresis
Width: 1024
VWidth: 0
Flags: W
LayerCount: 2
Fore
SplineSet
353.380859375 1030 m 257
 316.619140625 929 l 257
 428.619140625 929 l 257
 465.380859375 1030 l 257
 353.380859375 1030 l 257
595.380859375 1030 m 257
 558.619140625 929 l 257
 670.619140625 929 l 257
 707.380859375 1030 l 257
 595.380859375 1030 l 257
EndSplineSet
EndChar

StartChar: divide
Encoding: 247 247 174
GlifName: divide
Width: 1024
VWidth: 0
Flags: HW
LayerCount: 2
Fore
SplineSet
556.506835938 430 m 257
 473.158203125 201 l 257
 721.158203125 201 l 257
 804.506835938 430 l 257
 556.506835938 430 l 257
846.977539062 1294 m 257
 757.077148438 1047 l 257
 1023.07714844 1047 l 257
 1112.97753906 1294 l 257
 846.977539062 1294 l 257
393.087890625 808 m 257
 317.381835938 600 l 257
 1143.38183594 600 l 257
 1219.08789062 808 l 257
 393.087890625 808 l 257
EndSplineSet
EndChar

StartChar: dollar
Encoding: 36 36 175
GlifName: dollar
Width: 1024
VWidth: 0
Flags: W
LayerCount: 2
Fore
SplineSet
478.7109375 1537 m 257
 413.560546875 1358 l 257
 1011.56054688 1358 l 257
 1076.7109375 1537 l 257
 478.7109375 1537 l 257
480.53125 1542 m 257
 293.450195312 1028 l 257
 498.450195312 1028 l 257
 685.53125 1542 l 257
 480.53125 1542 l 257
6.6162109375 163 m 257
 -52.7109375 0 l 257
 655.2890625 0 l 257
 714.616210938 163 l 257
 6.6162109375 163 l 257
485.2890625 0 m 257
 691.2890625 0 l 257
 820.498046875 355 l 257
 614.498046875 355 l 257
 485.2890625 0 l 257
293.450195312 1028 m 257
 614.498046875 355 l 257
 820.498046875 355 l 257
 498.450195312 1028 l 257
 293.450195312 1028 l 257
773.744140625 1636 m 257
 100.03515625 -215 l 257
 314.03515625 -215 l 257
 987.744140625 1636 l 257
 773.744140625 1636 l 257
EndSplineSet
EndChar

StartChar: dotaccent
Encoding: 729 729 176
GlifName: dotaccent
Width: 1024
VWidth: 0
Flags: W
AnchorPoint: "top" -28 1468 mark 0
LayerCount: 2
Fore
SplineSet
455.48046875 1053 m 257
 400.51953125 902 l 257
 568.51953125 902 l 257
 623.48046875 1053 l 257
 455.48046875 1053 l 257
EndSplineSet
EndChar

StartChar: dotbelowcomb
Encoding: 803 803 177
GlifName: dotbelowcomb
Width: 0
VWidth: 0
GlyphClass: 4
Flags: HW
AnchorPoint: "base" -14 -187 mark 0
LayerCount: 2
Fore
SplineSet
-206.25 -204 m 257
 -296.150390625 -451 l 257
 -32.150390625 -451 l 257
 57.75 -204 l 257
 -206.25 -204 l 257
EndSplineSet
EndChar

StartChar: dotlessi
Encoding: 305 305 178
GlifName: dotlessi
Width: 1024
VWidth: 0
Flags: HW
AnchorPoint: "top" 925.488 1191 basechar 0
AnchorPoint: "base" 1178.72 -9 basechar 0
LayerCount: 2
Fore
SplineSet
781.521484375 1018 m 257
 461.591796875 139 l 257
 663.591796875 139 l 257
 983.521484375 1018 l 257
 781.521484375 1018 l 257
215.25 204 m 257
 143.18359375 6 l 257
 885.18359375 6 l 257
 957.25 204 l 257
 215.25 204 l 257
561.521484375 1018 m 257
 488.727539062 818 l 257
 864.727539062 818 l 257
 937.521484375 1018 l 257
 561.521484375 1018 l 257
EndSplineSet
EndChar

StartChar: e
Encoding: 101 101 179
GlifName: e
Width: 1024
VWidth: 0
Flags: W
AnchorPoint: "top" 512 1166 basechar 0
AnchorPoint: "base" 492 -96 basechar 0
LayerCount: 2
Fore
SplineSet
405.670898438 1023 m 257
 328.873046875 812 l 257
 963.873046875 812 l 257
 1040.67089844 1023 l 257
 405.670898438 1023 l 257
355.670898438 1023 m 257
 -16.6708984375 0 l 257
 185.329101562 0 l 257
 557.670898438 1023 l 257
 355.670898438 1023 l 257
158.487304688 201 m 257
 85.3291015625 0 l 257
 667.329101562 0 l 257
 740.487304688 201 l 257
 158.487304688 201 l 257
280.810546875 625 m 257
 215.66015625 446 l 257
 805.66015625 446 l 257
 870.810546875 625 l 257
 280.810546875 625 l 257
832.751953125 993 m 257
 633.295898438 445 l 257
 828.295898438 445 l 257
 1027.75195312 993 l 257
 832.751953125 993 l 257
EndSplineSet
EndChar

StartChar: eight
Encoding: 56 56 187
GlifName: eight
Width: 1024
VWidth: 0
Flags: W
LayerCount: 2
Fore
SplineSet
337.212890625 1548 m 257
 -226.212890625 0 l 257
 686.787109375 0 l 257
 1250.21289062 1548 l 257
 337.212890625 1548 l 257
761.040039062 759 m 257
 556.489257812 197 l 257
 49.4892578125 197 l 257
 254.040039062 759 l 257
 761.040039062 759 l 257
834.834960938 959 m 257
 326.834960938 959 l 257
 469.146484375 1350 l 257
 977.146484375 1350 l 257
 834.834960938 959 l 257
EndSplineSet
EndChar

StartChar: ellipsis
Encoding: 8230 8230 188
GlifName: ellipsis
Width: 1024
VWidth: 0
Flags: W
LayerCount: 2
Fore
SplineSet
200.74609375 114 m 257
 159.25390625 0 l 257
 301.25390625 0 l 257
 342.74609375 114 l 257
 200.74609375 114 l 257
456.74609375 114 m 257
 415.25390625 0 l 257
 559.25390625 0 l 257
 600.74609375 114 l 257
 456.74609375 114 l 257
722.74609375 114 m 257
 681.25390625 0 l 257
 823.25390625 0 l 257
 864.74609375 114 l 257
 722.74609375 114 l 257
EndSplineSet
EndChar

StartChar: emdash
Encoding: 8212 8212 190
GlifName: emdash
Width: 1024
VWidth: 0
Flags: W
LayerCount: 2
Fore
SplineSet
-37.853515625 600 m 257
 986.146484375 600 l 257
 1061.85351562 808 l 257
 37.853515625 808 l 257
 -37.853515625 600 l 257
EndSplineSet
EndChar

StartChar: endash
Encoding: 8211 8211 191
GlifName: endash
Width: 1024
VWidth: 0
Flags: HW
LayerCount: 2
Fore
SplineSet
317.381835938 600 m 257
 393.087890625 808 l 257
 1219.08789062 808 l 257
 1143.38183594 600 l 257
 317.381835938 600 l 257
EndSplineSet
EndChar

StartChar: eng
Encoding: 331 331 192
GlifName: eng
Width: 1024
VWidth: 0
Flags: HW
LayerCount: 2
Fore
SplineSet
456 -211 m 257
 456 -406 l 257
 843 -406 l 257
 843 -211 l 257
 456 -211 l 257
244 990 m 257
 244 0 l 257
 445 0 l 257
 445 990 l 257
 244 990 l 257
643 976 m 257
 643 -406 l 257
 844 -406 l 257
 844 976 l 257
 643 976 l 257
65 1023 m 257
 65 826 l 257
 843 826 l 257
 843 1023 l 257
 65 1023 l 257
EndSplineSet
EndChar

StartChar: equal
Encoding: 61 61 194
GlifName: equal
Width: 1024
VWidth: 0
Flags: W
LayerCount: 2
Fore
SplineSet
206.639648438 914 m 257
 137.485351562 724 l 257
 953.485351562 724 l 257
 1022.63964844 914 l 257
 206.639648438 914 l 257
70.5146484375 540 m 257
 1.3603515625 350 l 257
 817.360351562 350 l 257
 886.514648438 540 l 257
 70.5146484375 540 l 257
EndSplineSet
EndChar

StartChar: eth
Encoding: 240 240 195
GlifName: eth
Width: 1024
VWidth: 0
Flags: HW
LayerCount: 2
Fore
SplineSet
804.42578125 1548 m 257
 692 0 l 257
 893 0 l 257
 1005.42578125 1548 l 257
 804.42578125 1548 l 257
600.341796875 1023 m 257
 527.18359375 822 l 257
 868.18359375 822 l 257
 941.341796875 1023 l 257
 600.341796875 1023 l 257
504.341796875 1023 m 257
 132 0 l 257
 333 0 l 257
 705.341796875 1023 l 257
 504.341796875 1023 l 257
298.974609375 195 m 257
 228 0 l 257
 845 0 l 257
 915.974609375 195 l 257
 298.974609375 195 l 257
676.381835938 1416 m 257
 608.319335938 1229 l 257
 1140.31933594 1229 l 257
 1208.38183594 1416 l 257
 676.381835938 1416 l 257
EndSplineSet
EndChar

StartChar: exclam
Encoding: 33 33 196
GlifName: exclam
Width: 1024
VWidth: 0
Flags: W
LayerCount: 2
Fore
SplineSet
169.4765625 17 m 257
 313.4765625 17 l 257
 403.741210938 265 l 257
 259.741210938 265 l 257
 169.4765625 17 l 257
356.001953125 502 m 257
 484.001953125 502 l 257
 854.5234375 1520 l 257
 726.5234375 1520 l 257
 356.001953125 502 l 257
EndSplineSet
EndChar

StartChar: exclamdown
Encoding: 161 161 197
GlifName: exclamdown
Width: 1024
VWidth: 0
Flags: W
LayerCount: 2
Fore
SplineSet
854.5234375 1520 m 257
 710.5234375 1520 l 257
 620.258789062 1272 l 257
 764.258789062 1272 l 257
 854.5234375 1520 l 257
667.998046875 1035 m 257
 539.998046875 1035 l 257
 169.4765625 17 l 257
 297.4765625 17 l 257
 667.998046875 1035 l 257
EndSplineSet
EndChar

StartChar: f
Encoding: 102 102 198
GlifName: f
Width: 1024
VWidth: 0
Flags: W
LayerCount: 2
Fore
SplineSet
500.056640625 1023 m 257
 -20.056640625 -406 l 257
 179.943359375 -406 l 257
 700.056640625 1023 l 257
 500.056640625 1023 l 257
562.056640625 1023 m 257
 492.173828125 831 l 257
 974.173828125 831 l 257
 1044.05664062 1023 l 257
 562.056640625 1023 l 257
147.173828125 559 m 257
 73.2880859375 356 l 257
 704.288085938 356 l 257
 778.173828125 559 l 257
 147.173828125 559 l 257
EndSplineSet
EndChar

StartChar: five
Encoding: 53 53 199
GlifName: five
Width: 1024
VWidth: 0
Flags: W
LayerCount: 2
Fore
SplineSet
755.540039062 759 m 257
 551.353515625 198 l 257
 -161.646484375 198 l 257
 -233.712890625 0 l 257
 684.287109375 0 l 257
 1033.33496094 959 l 257
 316.334960938 959 l 257
 459.375 1352 l 257
 1186.375 1352 l 257
 1257.71289062 1548 l 257
 330.712890625 1548 l 257
 43.5400390625 759 l 257
 755.540039062 759 l 257
EndSplineSet
EndChar

StartChar: four
Encoding: 52 52 200
GlifName: four
Width: 1024
VWidth: 0
Flags: W
LayerCount: 2
Fore
SplineSet
-50.22265625 761 m 257
 591.77734375 761 l 257
 317.34375 7 l 257
 513.34375 7 l 257
 1074.22265625 1548 l 257
 875.22265625 1548 l 257
 661.572265625 961 l 257
 222.572265625 961 l 257
 436.22265625 1548 l 257
 236.22265625 1548 l 257
 -50.22265625 761 l 257
EndSplineSet
EndChar

StartChar: g
Encoding: 103 103 201
GlifName: g
Width: 1024
VWidth: 0
Flags: W
LayerCount: 2
Fore
SplineSet
487.330078125 1023 m 257
 114.98828125 0 l 257
 306.98828125 0 l 257
 679.330078125 1023 l 257
 487.330078125 1023 l 257
527.330078125 1023 m 257
 454.537109375 823 l 257
 970.537109375 823 l 257
 1043.33007812 1023 l 257
 527.330078125 1023 l 257
871.330078125 1023 m 257
 349.396484375 -411 l 257
 543.396484375 -411 l 257
 1065.33007812 1023 l 257
 871.330078125 1023 l 257
250.0546875 198 m 257
 177.98828125 0 l 257
 634.98828125 0 l 257
 707.0546875 198 l 257
 250.0546875 198 l 257
31.099609375 -214 m 257
 -41.330078125 -413 l 257
 493.669921875 -413 l 257
 566.099609375 -214 l 257
 31.099609375 -214 l 257
EndSplineSet
EndChar

StartChar: germandbls
Encoding: 223 223 205
GlifName: germandbls
Width: 1024
VWidth: 0
Flags: HW
LayerCount: 2
Fore
SplineSet
18 1221 m 257
 18 1023 l 257
 269 1023 l 257
 269 1221 l 257
 18 1221 l 257
204 1548 m 257
 204 0 l 257
 410 0 l 257
 410 1548 l 257
 204 1548 l 257
410 1548 m 257
 410 1328 l 257
 805 1328 l 257
 805 1548 l 257
 410 1548 l 257
690 1548 m 257
 690 1023 l 257
 889 1023 l 257
 889 1548 l 257
 690 1548 l 257
690 1062 m 257
 490 1062 l 257
 490 826 l 257
 690 826 l 257
 690 1062 l 257
690 848 m 257
 690 175 l 257
 890 175 l 257
 890 848 l 257
 690 848 l 257
547 251 m 257
 547 40 l 257
 890 40 l 257
 890 251 l 257
 547 251 l 257
EndSplineSet
EndChar

StartChar: grave
Encoding: 96 96 206
GlifName: grave
Width: 1024
VWidth: 0
Flags: W
LayerCount: 2
Fore
SplineSet
406.673828125 1358 m 257
 442.119140625 1057 l 257
 617.326171875 1129 l 257
 580.880859375 1430 l 257
 406.673828125 1358 l 257
EndSplineSet
EndChar

StartChar: gravecomb
Encoding: 768 768 207
GlifName: gravecomb
Width: 0
VWidth: 0
GlyphClass: 4
Flags: HW
AnchorPoint: "top" 498 1246 mark 0
LayerCount: 2
Fore
SplineSet
428.38671875 1528 m 257
 462.48828125 1292 l 257
 565.23046875 1343 l 257
 532.4921875 1580 l 257
 428.38671875 1528 l 257
EndSplineSet
EndChar

StartChar: greater
Encoding: 62 62 208
GlifName: greater
Width: 1024
VWidth: 0
Flags: W
LayerCount: 2
Fore
SplineSet
1041.20019531 777 m 257
 305.09765625 1013 l 257
 230.119140625 807 l 257
 967.130859375 568 l 257
 1041.20019531 777 l 257
1041.20019531 777 m 257
 54.501953125 319 l 257
 -17.2001953125 122 l 257
 967.130859375 568 l 257
 1041.20019531 777 l 257
EndSplineSet
EndChar

StartChar: guillemotleft
Encoding: 171 171 209
GlifName: guillemotleft
Width: 1024
VWidth: 0
Flags: W
LayerCount: 2
Fore
SplineSet
116.361328125 609 m 257
 59.9453125 454 l 257
 493.3671875 631 l 257
 549.0546875 784 l 257
 116.361328125 609 l 257
116.361328125 609 m 257
 59.9453125 454 l 257
 307.107421875 122 l 257
 360.24609375 268 l 257
 116.361328125 609 l 257
531.361328125 609 m 257
 474.9453125 454 l 257
 908.3671875 631 l 257
 964.0546875 784 l 257
 531.361328125 609 l 257
531.361328125 609 m 257
 474.9453125 454 l 257
 722.107421875 122 l 257
 775.24609375 268 l 257
 531.361328125 609 l 257
EndSplineSet
EndChar

StartChar: guillemotright
Encoding: 187 187 210
GlifName: guillemotright
Width: 1024
VWidth: 0
Flags: W
LayerCount: 2
Fore
SplineSet
992.126953125 609 m 257
 686.821289062 784 l 257
 631.133789062 631 l 257
 935.7109375 454 l 257
 992.126953125 609 l 257
992.126953125 609 m 257
 500.012695312 268 l 257
 446.873046875 122 l 257
 935.7109375 454 l 257
 992.126953125 609 l 257
577.126953125 609 m 257
 271.821289062 784 l 257
 216.133789062 631 l 257
 520.7109375 454 l 257
 577.126953125 609 l 257
577.126953125 609 m 257
 85.0126953125 268 l 257
 31.873046875 122 l 257
 520.7109375 454 l 257
 577.126953125 609 l 257
EndSplineSet
EndChar

StartChar: guilsinglleft
Encoding: 8249 8249 211
GlifName: guilsinglleft
Width: 1024
VWidth: 0
Flags: W
LayerCount: 2
Fore
SplineSet
97.904296875 777 m 257
 22.1982421875 569 l 257
 926.823242188 807 l 257
 1001.80175781 1013 l 257
 97.904296875 777 l 257
97.904296875 777 m 257
 22.1982421875 569 l 257
 675.50390625 122 l 257
 747.206054688 319 l 257
 97.904296875 777 l 257
EndSplineSet
EndChar

StartChar: guilsinglright
Encoding: 8250 8250 212
GlifName: guilsinglright
Width: 1024
VWidth: 0
Flags: W
LayerCount: 2
Fore
SplineSet
1041.20019531 777 m 257
 305.09765625 1013 l 257
 230.119140625 807 l 257
 967.130859375 568 l 257
 1041.20019531 777 l 257
1041.20019531 777 m 257
 54.501953125 319 l 257
 -17.2001953125 122 l 257
 967.130859375 568 l 257
 1041.20019531 777 l 257
EndSplineSet
EndChar

StartChar: h
Encoding: 104 104 213
GlifName: h
Width: 1024
VWidth: 0
Flags: W
AnchorPoint: "top" 248 1646 basechar 0
AnchorPoint: "base" 512 -46 basechar 0
LayerCount: 2
Fore
SplineSet
546.159179688 1537 m 257
 -11.0791015625 6 l 257
 188.920898438 6 l 257
 746.159179688 1537 l 257
 546.159179688 1537 l 257
496.079101562 1023 m 257
 424.376953125 826 l 257
 955.376953125 826 l 257
 1027.07910156 1023 l 257
 496.079101562 1023 l 257
836.079101562 1023 m 257
 463.737304688 0 l 257
 662.737304688 0 l 257
 1035.07910156 1023 l 257
 836.079101562 1023 l 257
EndSplineSet
EndChar

StartChar: hbar
Encoding: 295 295 214
GlifName: hbar
Width: 1024
VWidth: 0
Flags: HW
LayerCount: 2
Fore
SplineSet
733.421875 1537 m 257
 176.18359375 6 l 257
 376.18359375 6 l 257
 933.421875 1537 l 257
 733.421875 1537 l 257
683.341796875 1023 m 257
 611.639648438 826 l 257
 1142.63964844 826 l 257
 1214.34179688 1023 l 257
 683.341796875 1023 l 257
1023.34179688 1023 m 257
 651 0 l 257
 850 0 l 257
 1222.34179688 1023 l 257
 1023.34179688 1023 l 257
558.11328125 1429 m 257
 482.407226562 1221 l 257
 938.407226562 1221 l 257
 1014.11328125 1429 l 257
 558.11328125 1429 l 257
EndSplineSet
EndChar

StartChar: hookabovecomb
Encoding: 777 777 216
GlifName: hookabovecomb
Width: 0
VWidth: 0
GlyphClass: 4
Flags: HW
AnchorPoint: "top" 406 1079 mark 0
LayerCount: 2
Fore
SplineSet
415.68359375 1774 m 257
 351.98828125 1599 l 257
 806.98828125 1599 l 257
 870.68359375 1774 l 257
 415.68359375 1774 l 257
668.68359375 1774 m 257
 544.205078125 1432 l 257
 751.205078125 1432 l 257
 875.68359375 1774 l 257
 668.68359375 1774 l 257
386.848632812 1453 m 257
 326.793945312 1288 l 257
 697.793945312 1288 l 257
 757.848632812 1453 l 257
 386.848632812 1453 l 257
386.848632812 1453 m 257
 291.125 1190 l 257
 472.125 1190 l 257
 567.848632812 1453 l 257
 386.848632812 1453 l 257
EndSplineSet
EndChar

StartChar: hungarumlaut
Encoding: 733 733 217
GlifName: hungarumlaut
Width: 1024
VWidth: 0
Flags: W
LayerCount: 2
Fore
SplineSet
194.8671875 122 m 257
 338.8671875 122 l 257
 429.1328125 370 l 257
 285.1328125 370 l 257
 194.8671875 122 l 257
594.8671875 122 m 257
 738.8671875 122 l 257
 829.1328125 370 l 257
 685.1328125 370 l 257
 594.8671875 122 l 257
EndSplineSet
EndChar

StartChar: hyphen
Encoding: 45 45 218
GlifName: hyphen
Width: 1024
VWidth: 0
Flags: W
LayerCount: 2
Fore
SplineSet
136.853515625 808 m 257
 61.146484375 600 l 257
 887.146484375 600 l 257
 962.853515625 808 l 257
 136.853515625 808 l 257
EndSplineSet
EndChar

StartChar: i
Encoding: 105 105 219
GlifName: i
Width: 1024
VWidth: 0
Flags: W
AnchorPoint: "base" 788 -38 basechar 0
LayerCount: 2
Fore
SplineSet
700.291992188 1018 m 257
 380.362304688 139 l 257
 582.362304688 139 l 257
 902.291992188 1018 l 257
 700.291992188 1018 l 257
134.020507812 204 m 257
 61.9541015625 6 l 257
 803.954101562 6 l 257
 876.020507812 204 l 257
 134.020507812 204 l 257
764.045898438 1369 m 257
 690.887695312 1168 l 257
 888.887695312 1168 l 257
 962.045898438 1369 l 257
 764.045898438 1369 l 257
480.291992188 1018 m 257
 407.498046875 818 l 257
 783.498046875 818 l 257
 856.291992188 1018 l 257
 480.291992188 1018 l 257
EndSplineSet
EndChar

StartChar: j
Encoding: 106 106 229
GlifName: j
Width: 1024
VWidth: 0
Flags: W
LayerCount: 2
Fore
SplineSet
819.58203125 1023 m 257
 297.6484375 -411 l 257
 496.6484375 -411 l 257
 1018.58203125 1023 l 257
 819.58203125 1023 l 257
-58.828125 -209 m 257
 -130.53125 -406 l 257
 399.46875 -406 l 257
 471.171875 -209 l 257
 -58.828125 -209 l 257
16.056640625 -6 m 257
 -109.513671875 -351 l 257
 90.486328125 -351 l 257
 216.056640625 -6 l 257
 16.056640625 -6 l 257
953.53125 1413 m 257
 881.1015625 1214 l 257
 1082.1015625 1214 l 257
 1154.53125 1413 l 257
 953.53125 1413 l 257
EndSplineSet
EndChar

StartChar: k
Encoding: 107 107 231
GlifName: k
Width: 1024
VWidth: 0
Flags: W
AnchorPoint: "top" 220 1638 basechar 0
LayerCount: 2
Fore
SplineSet
491.840820312 1537 m 257
 -65.7607421875 5 l 257
 134.239257812 5 l 257
 691.840820312 1537 l 257
 491.840820312 1537 l 257
169.227539062 516 m 257
 138.881835938 298 l 257
 1089.76074219 1023 l 257
 872.760742188 1023 l 257
 169.227539062 516 l 257
468.083984375 631 m 257
 262.216796875 483 l 257
 536.418945312 0 l 257
 774.418945312 0 l 257
 468.083984375 631 l 257
EndSplineSet
EndChar

StartChar: kgreenlandic
Encoding: 312 312 232
GlifName: kgreenlandic
Width: 1024
VWidth: 0
Flags: HW
AnchorPoint: "top" 140 1110 basechar 0
LayerCount: 2
Fore
SplineSet
42 1022 m 257
 42 5 l 257
 242 5 l 257
 242 1022 l 257
 42 1022 l 257
91 516 m 257
 140 298 l 257
 1012 1023 l 257
 795 1023 l 257
 91 516 l 257
424 631 m 257
 196 483 l 257
 765 0 l 257
 1003 0 l 257
 424 631 l 257
EndSplineSet
EndChar

StartChar: l
Encoding: 108 108 233
GlifName: l
Width: 1024
VWidth: 0
Flags: W
AnchorPoint: "top" 520 1654 basechar 0
LayerCount: 2
Fore
SplineSet
96.21875 209 m 257
 23.4248046875 9 l 257
 657.424804688 9 l 257
 730.21875 209 l 257
 96.21875 209 l 257
800.575195312 1548 m 257
 268.451171875 86 l 257
 468.451171875 86 l 257
 1000.57519531 1548 l 257
 800.575195312 1548 l 257
644.575195312 1548 m 257
 572.145507812 1349 l 257
 807.145507812 1349 l 257
 879.575195312 1548 l 257
 644.575195312 1548 l 257
EndSplineSet
EndChar

StartChar: lcaron
Encoding: 318 318 235
GlifName: lcaron
Width: 1024
VWidth: 0
Flags: HW
LayerCount: 2
Fore
SplineSet
209.069335938 209 m 257
 136.275390625 9 l 257
 770.275390625 9 l 257
 843.069335938 209 l 257
 209.069335938 209 l 257
913.42578125 1548 m 257
 381.301757812 86 l 257
 581.301757812 86 l 257
 1113.42578125 1548 l 257
 913.42578125 1548 l 257
757.42578125 1548 m 257
 684.99609375 1349 l 257
 919.99609375 1349 l 257
 992.42578125 1548 l 257
 757.42578125 1548 l 257
1174.49902344 1496 m 257
 1090.05859375 1264 l 257
 1220.05859375 1264 l 257
 1304.49902344 1496 l 257
 1174.49902344 1496 l 257
EndSplineSet
EndChar

StartChar: less
Encoding: 60 60 237
GlifName: less
Width: 1024
VWidth: 0
Flags: W
LayerCount: 2
Fore
SplineSet
97.904296875 777 m 257
 22.1982421875 569 l 257
 926.823242188 807 l 257
 1001.80175781 1013 l 257
 97.904296875 777 l 257
97.904296875 777 m 257
 22.1982421875 569 l 257
 675.50390625 122 l 257
 747.206054688 319 l 257
 97.904296875 777 l 257
EndSplineSet
EndChar

StartChar: logicalnot
Encoding: 172 172 238
GlifName: logicalnot
Width: 1024
VWidth: 0
Flags: W
LayerCount: 2
Fore
SplineSet
685.19921875 935 m 257
 577.828125 640 l 257
 687.828125 640 l 257
 795.19921875 935 l 257
 685.19921875 935 l 257
255.19921875 935 m 257
 218.80078125 835 l 257
 768.80078125 835 l 257
 805.19921875 935 l 257
 255.19921875 935 l 257
EndSplineSet
EndChar

StartChar: lslash
Encoding: 322 322 239
GlifName: lslash
Width: 1024
VWidth: 0
Flags: HW
LayerCount: 2
Fore
SplineSet
271.069335938 209 m 257
 198.275390625 9 l 257
 832.275390625 9 l 257
 905.069335938 209 l 257
 271.069335938 209 l 257
975.42578125 1548 m 257
 443.301757812 86 l 257
 643.301757812 86 l 257
 1175.42578125 1548 l 257
 975.42578125 1548 l 257
819.42578125 1548 m 257
 746.99609375 1349 l 257
 981.99609375 1349 l 257
 1054.42578125 1548 l 257
 819.42578125 1548 l 257
1256.49609375 1213 m 257
 414.095703125 830 l 257
 452.764648438 656 l 257
 1295.16503906 1039 l 257
 1256.49609375 1213 l 257
EndSplineSet
EndChar

StartChar: m
Encoding: 109 109 240
GlifName: m
Width: 1024
VWidth: 0
Flags: W
AnchorPoint: "top" 508 1110 basechar 0
LayerCount: 2
Fore
SplineSet
272.751953125 993 m 257
 -88.6708984375 0 l 257
 111.329101562 0 l 257
 472.751953125 993 l 257
 272.751953125 993 l 257
580.108398438 972 m 257
 226.329101562 0 l 257
 426.329101562 0 l 257
 780.108398438 972 l 257
 580.108398438 972 l 257
896.564453125 976 m 257
 541.329101562 0 l 257
 741.329101562 0 l 257
 1096.56445312 976 l 257
 896.564453125 976 l 257
206.670898438 1023 m 257
 134.96875 826 l 257
 1040.96875 826 l 257
 1112.67089844 1023 l 257
 206.670898438 1023 l 257
EndSplineSet
EndChar

StartChar: macron
Encoding: 175 175 241
GlifName: macron
Width: 1024
VWidth: 0
Flags: W
LayerCount: 2
Fore
SplineSet
246.376953125 1023 m 257
 217.623046875 944 l 257
 777.623046875 944 l 257
 806.376953125 1023 l 257
 246.376953125 1023 l 257
EndSplineSet
EndChar

StartChar: mu
Encoding: 181 181 243
GlifName: mu
Width: 1024
VWidth: 0
Flags: W
LayerCount: 2
Fore
SplineSet
972.91015625 935 m 257
 632.59765625 0 l 257
 742.59765625 0 l 257
 1082.91015625 935 l 257
 972.91015625 935 l 257
241.2734375 120 m 257
 197.59765625 0 l 257
 712.59765625 0 l 257
 756.2734375 120 l 257
 241.2734375 120 l 257
437.91015625 935 m 257
 -58.91015625 -430 l 257
 36.08984375 -430 l 257
 532.91015625 935 l 257
 437.91015625 935 l 257
EndSplineSet
EndChar

StartChar: multiply
Encoding: 215 215 244
GlifName: multiply
Width: 1024
VWidth: 0
Flags: HW
LayerCount: 2
Fore
SplineSet
91 302 m 257
 292 302 l 257
 927 1323 l 257
 728 1323 l 257
 91 302 l 257
93 1325 m 257
 735 298 l 257
 934 298 l 257
 295 1325 l 257
 93 1325 l 257
EndSplineSet
EndChar

StartChar: n
Encoding: 110 110 245
GlifName: n
Width: 1024
VWidth: 0
Flags: W
AnchorPoint: "top" 492 1158 basechar 0
LayerCount: 2
Fore
SplineSet
386.659179688 990 m 257
 26.3291015625 0 l 257
 227.329101562 0 l 257
 587.659179688 990 l 257
 386.659179688 990 l 257
780.564453125 976 m 257
 425.329101562 0 l 257
 626.329101562 0 l 257
 981.564453125 976 l 257
 780.564453125 976 l 257
219.670898438 1023 m 257
 147.96875 826 l 257
 925.96875 826 l 257
 997.670898438 1023 l 257
 219.670898438 1023 l 257
EndSplineSet
EndChar

StartChar: nine
Encoding: 57 57 248
GlifName: nine
Width: 1024
VWidth: 0
Flags: W
LayerCount: 2
Fore
SplineSet
758.448242188 759 m 257
 554.989257812 200 l 257
 -147.010742188 200 l 257
 -219.8046875 0 l 257
 678.1953125 0 l 257
 1243.8046875 1554 l 257
 323.8046875 1554 l 257
 317.6171875 1537 l 257
 34.4482421875 759 l 257
 758.448242188 759 l 257
828.243164062 959 m 257
 307.243164062 959 l 257
 451.010742188 1354 l 257
 972.010742188 1354 l 257
 828.243164062 959 l 257
EndSplineSet
EndChar

StartChar: numbersign
Encoding: 35 35 250
GlifName: numbersign
Width: 1024
VWidth: 0
Flags: W
LayerCount: 2
Fore
SplineSet
404.975585938 1347 m 257
 28.630859375 313 l 257
 168.630859375 313 l 257
 544.975585938 1347 l 257
 404.975585938 1347 l 257
816.067382812 1350 m 257
 426.255859375 279 l 257
 594.255859375 279 l 257
 984.067382812 1350 l 257
 816.067382812 1350 l 257
205.821289062 1157 m 257
 152.318359375 1010 l 257
 970.318359375 1010 l 257
 1023.82128906 1157 l 257
 205.821289062 1157 l 257
63.873046875 767 m 257
 0.1787109375 592 l 257
 828.178710938 592 l 257
 891.873046875 767 l 257
 63.873046875 767 l 257
EndSplineSet
EndChar

StartChar: o
Encoding: 111 111 251
GlifName: o
Width: 1024
VWidth: 0
Flags: W
AnchorPoint: "top" 504 1158 basechar 0
AnchorPoint: "base" 536 -38 basechar 0
LayerCount: 2
Fore
SplineSet
289.670898438 1023 m 257
 -82.6708984375 0 l 257
 117.329101562 0 l 257
 489.670898438 1023 l 257
 289.670898438 1023 l 257
904.670898438 1023 m 257
 532.329101562 0 l 257
 734.329101562 0 l 257
 1106.67089844 1023 l 257
 904.670898438 1023 l 257
412.670898438 1023 m 257
 339.512695312 822 l 257
 925.512695312 822 l 257
 998.670898438 1023 l 257
 412.670898438 1023 l 257
117.123046875 200 m 257
 44.3291015625 0 l 257
 616.329101562 0 l 257
 689.123046875 200 l 257
 117.123046875 200 l 257
EndSplineSet
EndChar

StartChar: oe
Encoding: 339 339 256
GlifName: oe
Width: 1024
VWidth: 0
Flags: HW
LayerCount: 2
Fore
SplineSet
597 645 m 257
 597 446 l 257
 824 446 l 257
 824 645 l 257
 597 645 l 257
799 1023 m 257
 799 445 l 257
 999 445 l 257
 999 1023 l 257
 799 1023 l 257
103 1023 m 257
 103 0 l 257
 303 0 l 257
 303 1023 l 257
 103 1023 l 257
451 1023 m 257
 451 0 l 257
 651 0 l 257
 651 1023 l 257
 451 1023 l 257
158 1023 m 257
 158 823 l 257
 859 823 l 257
 859 1023 l 257
 158 1023 l 257
149 200 m 257
 149 0 l 257
 999 0 l 257
 999 200 l 257
 149 200 l 257
EndSplineSet
EndChar

StartChar: ogonek
Encoding: 731 731 257
GlifName: ogonek
Width: 1024
VWidth: 0
Flags: W
LayerCount: 2
Fore
SplineSet
210.0625 -288 m 257
 167.114257812 -406 l 257
 709.114257812 -406 l 257
 752.0625 -288 l 257
 210.0625 -288 l 257
314.885742188 0 m 257
 167.114257812 -406 l 257
 285.114257812 -406 l 257
 432.885742188 0 l 257
 314.885742188 0 l 257
314.885742188 0 m 257
 270.845703125 -121 l 257
 812.845703125 -121 l 257
 856.885742188 0 l 257
 314.885742188 0 l 257
EndSplineSet
EndChar

StartChar: one
Encoding: 49 49 262
GlifName: one
Width: 1024
VWidth: 0
Flags: W
LayerCount: 2
Fore
SplineSet
130.787109375 0 m 257
 329.787109375 0 l 257
 893.212890625 1548 l 257
 694.212890625 1548 l 257
 130.787109375 0 l 257
698.212890625 1548 m 257
 392.477539062 1252 l 257
 506.081054688 1152 l 257
 812.1796875 1449 l 257
 698.212890625 1548 l 257
EndSplineSet
EndChar

StartChar: onehalf
Encoding: 189 189 263
GlifName: onehalf
Width: 1024
VWidth: 0
Flags: W
LayerCount: 2
Fore
SplineSet
983.84375 1483 m 257
 -123.740234375 6 l 257
 40.15625 -30 l 257
 1147.74023438 1447 l 257
 983.84375 1483 l 257
353.181640625 863 m 257
 436.181640625 863 l 257
 685.501953125 1548 l 257
 602.501953125 1548 l 257
 353.181640625 863 l 257
604.501953125 1548 m 257
 475.548828125 1419 l 257
 521.169921875 1374 l 257
 651.21484375 1506 l 257
 604.501953125 1548 l 257
614.548828125 603 m 257
 813.548828125 603 l 257
 742.2109375 407 l 257
 545.2109375 407 l 257
 397.076171875 0 l 257
 654.076171875 0 l 257
 686.83203125 90 l 257
 495.83203125 90 l 257
 578.455078125 317 l 257
 774.455078125 317 l 257
 911.306640625 693 l 257
 647.306640625 693 l 257
 614.548828125 603 l 257
EndSplineSet
EndChar

StartChar: onequarter
Encoding: 188 188 264
GlifName: onequarter
Width: 1024
VWidth: 0
Flags: W
LayerCount: 2
Fore
SplineSet
1021.51757812 1480 m 257
 -100.517578125 10 l 257
 2.482421875 10 l 257
 1124.51757812 1480 l 257
 1021.51757812 1480 l 257
504.19140625 1045 m 257
 558.19140625 1045 l 257
 741.267578125 1548 l 257
 687.267578125 1548 l 257
 504.19140625 1045 l 257
692.267578125 1548 m 257
 538.591796875 1428 l 257
 545.125 1391 l 257
 717.263671875 1537 l 257
 692.267578125 1548 l 257
522.787109375 379 m 257
 827.787109375 379 l 257
 692.390625 7 l 257
 751.390625 7 l 257
 1028.37109375 768 l 257
 968.37109375 768 l 257
 850.80859375 445 l 257
 605.80859375 445 l 257
 724.099609375 770 l 257
 665.099609375 770 l 257
 522.787109375 379 l 257
EndSplineSet
EndChar

StartChar: ordfeminine
Encoding: 170 170 265
GlifName: ordfeminine
Width: 1024
VWidth: 0
Flags: W
LayerCount: 2
Fore
SplineSet
453.857421875 1319 m 257
 381.0625 1119 l 257
 987.0625 1119 l 257
 1059.85742188 1319 l 257
 453.857421875 1319 l 257
947.220703125 1320 m 257
 574.515625 296 l 257
 768.515625 296 l 257
 1141.22070312 1320 l 257
 947.220703125 1320 l 257
303.169921875 894 m 257
 230.73828125 695 l 257
 854.73828125 695 l 257
 927.169921875 894 l 257
 303.169921875 894 l 257
294.43359375 870 m 257
 84.423828125 293 l 257
 285.423828125 293 l 257
 495.43359375 870 l 257
 294.43359375 870 l 257
156.30859375 496 m 257
 83.515625 296 l 257
 773.515625 296 l 257
 846.30859375 496 l 257
 156.30859375 496 l 257
-58.2578125 162 m 257
 -117.220703125 0 l 257
 750.779296875 0 l 257
 809.7421875 162 l 257
 -58.2578125 162 l 257
EndSplineSet
EndChar

StartChar: ordmasculine
Encoding: 186 186 266
GlifName: ordmasculine
Width: 1024
VWidth: 0
Flags: W
LayerCount: 2
Fore
SplineSet
368.920898438 1023 m 257
 -3.4208984375 0 l 257
 196.579101562 0 l 257
 568.920898438 1023 l 257
 368.920898438 1023 l 257
983.920898438 1023 m 257
 611.579101562 0 l 257
 813.579101562 0 l 257
 1185.92089844 1023 l 257
 983.920898438 1023 l 257
491.920898438 1023 m 257
 418.762695312 822 l 257
 1004.76269531 822 l 257
 1077.92089844 1023 l 257
 491.920898438 1023 l 257
196.373046875 200 m 257
 123.579101562 0 l 257
 695.579101562 0 l 257
 768.373046875 200 l 257
 196.373046875 200 l 257
-137.8984375 -70 m 257
 -161.920898438 -136 l 257
 862.079101562 -136 l 257
 886.1015625 -70 l 257
 -137.8984375 -70 l 257
EndSplineSet
EndChar

StartChar: oslash
Encoding: 248 248 267
GlifName: oslash
Width: 1024
VWidth: 0
Flags: HW
LayerCount: 2
Fore
SplineSet
1260.66113281 1164 m 257
 7.1796875 -5 l 257
 133.510742188 -103 l 257
 1387.9921875 1066 l 257
 1260.66113281 1164 l 257
476.341796875 1023 m 257
 104 0 l 257
 304 0 l 257
 676.341796875 1023 l 257
 476.341796875 1023 l 257
1091.34179688 1023 m 257
 719 0 l 257
 921 0 l 257
 1293.34179688 1023 l 257
 1091.34179688 1023 l 257
599.341796875 1023 m 257
 526.18359375 822 l 257
 1112.18359375 822 l 257
 1185.34179688 1023 l 257
 599.341796875 1023 l 257
303.793945312 200 m 257
 231 0 l 257
 803 0 l 257
 875.793945312 200 l 257
 303.793945312 200 l 257
EndSplineSet
EndChar

StartChar: p
Encoding: 112 112 270
GlifName: p
Width: 1024
VWidth: 0
Flags: W
AnchorPoint: "top" 268 1322 basechar 0
LayerCount: 2
Fore
SplineSet
519.071289062 1203 m 257
 -66.556640625 -406 l 257
 133.443359375 -406 l 257
 719.071289062 1203 l 257
 519.071289062 1203 l 257
551.556640625 1023 m 257
 478.034179688 821 l 257
 1017.03417969 821 l 257
 1090.55664062 1023 l 257
 551.556640625 1023 l 257
256.737304688 202 m 257
 183.21484375 0 l 257
 723.21484375 0 l 257
 796.737304688 202 l 257
 256.737304688 202 l 257
840.052734375 876 m 257
 584.909179688 175 l 257
 782.909179688 175 l 257
 1038.05273438 876 l 257
 840.052734375 876 l 257
EndSplineSet
EndChar

StartChar: paragraph
Encoding: 182 182 271
GlifName: paragraph
Width: 1024
VWidth: 0
Flags: W
LayerCount: 2
Fore
SplineSet
39.818359375 1130 m 257
 -12.95703125 985 l 257
 552.04296875 985 l 257
 604.818359375 1130 l 257
 39.818359375 1130 l 257
191.95703125 1548 m 257
 -7.498046875 1000 l 257
 152.501953125 1000 l 257
 351.95703125 1548 l 257
 191.95703125 1548 l 257
191.95703125 1548 m 257
 150.828125 1435 l 257
 970.828125 1435 l 257
 1011.95703125 1548 l 257
 191.95703125 1548 l 257
661.95703125 1548 m 257
 98.53125 0 l 257
 243.53125 0 l 257
 806.95703125 1548 l 257
 661.95703125 1548 l 257
931.95703125 1548 m 257
 368.53125 0 l 257
 473.53125 0 l 257
 1036.95703125 1548 l 257
 931.95703125 1548 l 257
EndSplineSet
EndChar

StartChar: parenleft
Encoding: 40 40 272
GlifName: parenleft
Width: 1024
VWidth: 0
Flags: W
LayerCount: 2
Fore
SplineSet
379.310546875 1023 m 257
 72.119140625 179 l 257
 262.119140625 179 l 257
 569.310546875 1023 l 257
 379.310546875 1023 l 257
919.33203125 1633 m 257
 381.130859375 1028 l 257
 569.130859375 1028 l 257
 951.880859375 1640 l 257
 919.33203125 1633 l 257
72.119140625 179 m 257
 203.197265625 -406 l 257
 235.197265625 -406 l 257
 262.119140625 179 l 257
 72.119140625 179 l 257
EndSplineSet
EndChar

StartChar: parenright
Encoding: 41 41 273
GlifName: parenright
Width: 1024
VWidth: 0
Flags: W
LayerCount: 2
Fore
SplineSet
748.056640625 1023 m 257
 440.865234375 179 l 257
 630.865234375 179 l 257
 938.056640625 1023 l 257
 748.056640625 1023 l 257
826.622070312 1629 m 257
 748.056640625 1023 l 257
 938.056640625 1023 l 257
 864.622070312 1629 l 257
 826.622070312 1629 l 257
440.865234375 179 m 257
 85.943359375 -406 l 257
 113.943359375 -406 l 257
 630.865234375 179 l 257
 440.865234375 179 l 257
EndSplineSet
EndChar

StartChar: percent
Encoding: 37 37 274
GlifName: percent
Width: 1024
VWidth: 0
Flags: W
LayerCount: 2
Fore
SplineSet
42.876953125 522 m 257
 34.1015625 377 l 257
 981.486328125 716 l 257
 989.8984375 860 l 257
 42.876953125 522 l 257
410.72265625 1148 m 257
 292.068359375 822 l 257
 370.068359375 822 l 257
 488.72265625 1148 l 257
 410.72265625 1148 l 257
412.177734375 1152 m 257
 377.6015625 1057 l 257
 725.6015625 1057 l 257
 760.177734375 1152 l 257
 412.177734375 1152 l 257
309.90234375 871 m 257
 280.056640625 789 l 257
 624.056640625 789 l 257
 653.90234375 871 l 257
 309.90234375 871 l 257
668.177734375 1152 m 257
 536.78515625 791 l 257
 628.78515625 791 l 257
 760.177734375 1152 l 257
 668.177734375 1152 l 257
479.576171875 436 m 257
 360.921875 110 l 257
 438.921875 110 l 257
 557.576171875 436 l 257
 479.576171875 436 l 257
481.03125 440 m 257
 446.453125 345 l 257
 792.453125 345 l 257
 827.03125 440 l 257
 481.03125 440 l 257
378.755859375 159 m 257
 348.91015625 77 l 257
 692.91015625 77 l 257
 722.755859375 159 l 257
 378.755859375 159 l 257
735.03125 440 m 257
 603.638671875 79 l 257
 695.638671875 79 l 257
 827.03125 440 l 257
 735.03125 440 l 257
EndSplineSet
EndChar

StartChar: period
Encoding: 46 46 275
GlifName: period
Width: 1024
VWidth: 0
Flags: W
LayerCount: 2
Fore
SplineSet
424.768554688 246 m 257
 335.231445312 0 l 257
 599.231445312 0 l 257
 688.768554688 246 l 257
 424.768554688 246 l 257
EndSplineSet
EndChar

StartChar: periodcentered
Encoding: 183 183 276
GlifName: periodcentered
Width: 1024
VWidth: 0
Flags: W
LayerCount: 2
Fore
SplineSet
424.451171875 1146 m 257
 334.548828125 899 l 257
 599.548828125 899 l 257
 689.451171875 1146 l 257
 424.451171875 1146 l 257
EndSplineSet
EndChar

StartChar: perthousand
Encoding: 8240 8240 277
GlifName: perthousand
Width: 1024
VWidth: 0
Flags: W
LayerCount: 2
Fore
SplineSet
651.009765625 436 m 257
 532.35546875 110 l 257
 610.35546875 110 l 257
 729.009765625 436 l 257
 651.009765625 436 l 257
652.46484375 440 m 257
 617.887695312 345 l 257
 963.887695312 345 l 257
 998.46484375 440 l 257
 652.46484375 440 l 257
550.189453125 159 m 257
 520.34375 77 l 257
 864.34375 77 l 257
 894.189453125 159 l 257
 550.189453125 159 l 257
906.46484375 440 m 257
 775.072265625 79 l 257
 867.072265625 79 l 257
 998.46484375 440 l 257
 906.46484375 440 l 257
36.310546875 522 m 257
 25.53515625 377 l 257
 972.920898438 716 l 257
 981.333007812 860 l 257
 36.310546875 522 l 257
404.15625 1148 m 257
 285.501953125 822 l 257
 363.501953125 822 l 257
 482.15625 1148 l 257
 404.15625 1148 l 257
405.612304688 1152 m 257
 371.03515625 1057 l 257
 717.03515625 1057 l 257
 751.612304688 1152 l 257
 405.612304688 1152 l 257
303.336914062 871 m 257
 273.491210938 789 l 257
 617.491210938 789 l 257
 647.336914062 871 l 257
 303.336914062 871 l 257
659.612304688 1152 m 257
 528.21875 791 l 257
 620.21875 791 l 257
 751.612304688 1152 l 257
 659.612304688 1152 l 257
249.009765625 436 m 257
 130.35546875 110 l 257
 208.35546875 110 l 257
 327.009765625 436 l 257
 249.009765625 436 l 257
250.46484375 440 m 257
 215.887695312 345 l 257
 563.887695312 345 l 257
 598.46484375 440 l 257
 250.46484375 440 l 257
148.189453125 159 m 257
 118.34375 77 l 257
 462.34375 77 l 257
 492.189453125 159 l 257
 148.189453125 159 l 257
506.46484375 440 m 257
 375.072265625 79 l 257
 467.072265625 79 l 257
 598.46484375 440 l 257
 506.46484375 440 l 257
EndSplineSet
EndChar

StartChar: plus
Encoding: 43 43 278
GlifName: plus
Width: 1024
VWidth: 0
Flags: W
LayerCount: 2
Fore
SplineSet
567.44140625 1221 m 257
 183.087890625 165 l 257
 408.087890625 165 l 257
 792.44140625 1221 l 257
 567.44140625 1221 l 257
98.853515625 821 m 257
 23.146484375 613 l 257
 925.146484375 613 l 257
 1000.85351562 821 l 257
 98.853515625 821 l 257
EndSplineSet
EndChar

StartChar: plusminus
Encoding: 177 177 279
GlifName: plusminus
Width: 1024
VWidth: 0
Flags: W
LayerCount: 2
Fore
SplineSet
-11.90234375 108 m 257
 -87.6083984375 -100 l 257
 738.391601562 -100 l 257
 814.09765625 108 l 257
 -11.90234375 108 l 257
678.196289062 1221 m 257
 293.84375 165 l 257
 518.84375 165 l 257
 903.196289062 1221 l 257
 678.196289062 1221 l 257
209.608398438 821 m 257
 133.90234375 613 l 257
 1035.90234375 613 l 257
 1111.60839844 821 l 257
 209.608398438 821 l 257
EndSplineSet
EndChar

StartChar: q
Encoding: 113 113 280
GlifName: q
Width: 1024
VWidth: 0
Flags: W
LayerCount: 2
Fore
SplineSet
867.064453125 1201 m 257
 282.1640625 -406 l 257
 481.1640625 -406 l 257
 1066.06445312 1201 l 257
 867.064453125 1201 l 257
329.27734375 1023 m 257
 256.484375 823 l 257
 905.484375 823 l 257
 978.27734375 1023 l 257
 329.27734375 1023 l 257
31.822265625 203 m 257
 -42.064453125 0 l 257
 573.935546875 0 l 257
 647.822265625 203 l 257
 31.822265625 203 l 257
267.130859375 855 m 257
 -5.119140625 107 l 257
 194.880859375 107 l 257
 467.130859375 855 l 257
 267.130859375 855 l 257
371.392578125 -268 m 257
 321.1640625 -406 l 257
 557.1640625 -406 l 257
 607.392578125 -268 l 257
 371.392578125 -268 l 257
EndSplineSet
EndChar

StartChar: question
Encoding: 63 63 281
GlifName: question
Width: 1024
VWidth: 0
Flags: W
LayerCount: 2
Fore
SplineSet
94.375 247 m 257
 4.474609375 0 l 257
 250.474609375 0 l 257
 340.375 247 l 257
 94.375 247 l 257
381.345703125 1519 m 257
 313.646484375 1333 l 257
 949.646484375 1333 l 257
 1017.34570312 1519 l 257
 381.345703125 1519 l 257
825.525390625 1514 m 257
 626.0703125 966 l 257
 820.0703125 966 l 257
 1019.52539062 1514 l 257
 825.525390625 1514 l 257
373.904296875 1015 m 257
 301.474609375 816 l 257
 765.474609375 816 l 257
 837.904296875 1015 l 257
 373.904296875 1015 l 257
372.448242188 1011 m 257
 147.151367188 392 l 257
 395.151367188 392 l 257
 620.448242188 1011 l 257
 372.448242188 1011 l 257
EndSplineSet
EndChar

StartChar: questiondown
Encoding: 191 191 282
GlifName: questiondown
Width: 1024
VWidth: 0
Flags: W
LayerCount: 2
Fore
SplineSet
929.98828125 1273 m 257
 1019.52539062 1519 l 257
 769.525390625 1519 l 257
 679.624023438 1272 l 257
 929.98828125 1273 l 257
643.654296875 0 m 257
 711.352539062 186 l 257
 74.3525390625 186 l 257
 6.654296875 0 l 257
 643.654296875 0 l 257
198.474609375 5 m 257
 397.9296875 553 l 257
 203.9296875 553 l 257
 4.474609375 5 l 257
 198.474609375 5 l 257
650.095703125 504 m 257
 722.525390625 703 l 257
 258.525390625 703 l 257
 186.095703125 504 l 257
 650.095703125 504 l 257
651.55078125 508 m 257
 876.848632812 1127 l 257
 628.848632812 1127 l 257
 403.55078125 508 l 257
 651.55078125 508 l 257
EndSplineSet
EndChar

StartChar: quotedbl
Encoding: 34 34 283
GlifName: quotedbl
Width: 1024
VWidth: 0
Flags: W
LayerCount: 2
Fore
SplineSet
194.868164062 1326 m 257
 338.868164062 1326 l 257
 429.131835938 1574 l 257
 285.131835938 1574 l 257
 194.868164062 1326 l 257
594.868164062 1326 m 257
 738.868164062 1326 l 257
 829.131835938 1574 l 257
 685.131835938 1574 l 257
 594.868164062 1326 l 257
EndSplineSet
EndChar

StartChar: quotedblbase
Encoding: 8222 8222 284
GlifName: quotedblbase
Width: 1024
VWidth: 0
Flags: W
LayerCount: 2
Fore
SplineSet
267.700195312 237 m 257
 184.3515625 8 l 257
 432.3515625 8 l 257
 515.700195312 237 l 257
 267.700195312 237 l 257
329.575195312 135 m 257
 109.299804688 -146 l 257
 230.461914062 -206 l 257
 427.439453125 0 l 257
 329.575195312 135 l 257
666.700195312 237 m 257
 583.3515625 8 l 257
 831.3515625 8 l 257
 914.700195312 237 l 257
 666.700195312 237 l 257
728.575195312 135 m 257
 508.299804688 -146 l 257
 629.461914062 -206 l 257
 826.439453125 0 l 257
 728.575195312 135 l 257
EndSplineSet
EndChar

StartChar: quotedblleft
Encoding: 8220 8220 285
GlifName: quotedblleft
Width: 1024
VWidth: 0
Flags: W
LayerCount: 2
Fore
SplineSet
388.299804688 1842 m 257
 471.6484375 2071 l 257
 223.6484375 2071 l 257
 140.299804688 1842 l 257
 388.299804688 1842 l 257
327.424804688 1944 m 257
 547.700195312 2225 l 257
 425.538085938 2285 l 257
 227.104492188 2075 l 257
 327.424804688 1944 l 257
724.299804688 1842 m 257
 807.6484375 2071 l 257
 559.6484375 2071 l 257
 476.299804688 1842 l 257
 724.299804688 1842 l 257
663.424804688 1944 m 257
 883.700195312 2225 l 257
 761.538085938 2285 l 257
 563.104492188 2075 l 257
 663.424804688 1944 l 257
EndSplineSet
EndChar

StartChar: quotedblright
Encoding: 8221 8221 286
GlifName: quotedblright
Width: 1024
VWidth: 0
Flags: W
LayerCount: 2
Fore
SplineSet
625.700195312 2285 m 257
 542.3515625 2056 l 257
 790.3515625 2056 l 257
 873.700195312 2285 l 257
 625.700195312 2285 l 257
688.575195312 2183 m 257
 468.299804688 1902 l 257
 588.461914062 1842 l 257
 786.895507812 2052 l 257
 688.575195312 2183 l 257
307.700195312 2285 m 257
 224.3515625 2056 l 257
 472.3515625 2056 l 257
 555.700195312 2285 l 257
 307.700195312 2285 l 257
370.575195312 2183 m 257
 150.299804688 1902 l 257
 270.461914062 1842 l 257
 468.895507812 2052 l 257
 370.575195312 2183 l 257
EndSplineSet
EndChar

StartChar: quoteleft
Encoding: 8216 8216 287
GlifName: quoteleft
Width: 1024
VWidth: 0
Flags: W
LayerCount: 2
Fore
SplineSet
556.299804688 1842 m 257
 639.6484375 2071 l 257
 391.6484375 2071 l 257
 308.299804688 1842 l 257
 556.299804688 1842 l 257
495.424804688 1944 m 257
 715.700195312 2225 l 257
 593.538085938 2285 l 257
 395.104492188 2075 l 257
 495.424804688 1944 l 257
EndSplineSet
EndChar

StartChar: quoteright
Encoding: 8217 8217 288
GlifName: quoteright
Width: 1024
VWidth: 0
Flags: W
LayerCount: 2
Fore
SplineSet
467.700195312 2285 m 257
 384.3515625 2056 l 257
 632.3515625 2056 l 257
 715.700195312 2285 l 257
 467.700195312 2285 l 257
528.575195312 2183 m 257
 308.299804688 1902 l 257
 430.461914062 1842 l 257
 628.895507812 2052 l 257
 528.575195312 2183 l 257
EndSplineSet
EndChar

StartChar: quotesinglbase
Encoding: 8218 8218 289
GlifName: quotesinglbase
Width: 1024
VWidth: 0
Flags: W
LayerCount: 2
Fore
SplineSet
467.700195312 237 m 257
 384.3515625 8 l 257
 632.3515625 8 l 257
 715.700195312 237 l 257
 467.700195312 237 l 257
528.575195312 135 m 257
 308.299804688 -146 l 257
 430.461914062 -206 l 257
 627.439453125 0 l 257
 528.575195312 135 l 257
EndSplineSet
EndChar

StartChar: quotesingle
Encoding: 39 39 290
GlifName: quotesingle
Width: 1024
VWidth: 0
Flags: W
LayerCount: 2
Fore
SplineSet
489.220703125 1496 m 257
 404.779296875 1264 l 257
 534.779296875 1264 l 257
 619.220703125 1496 l 257
 489.220703125 1496 l 257
EndSplineSet
EndChar

StartChar: r
Encoding: 114 114 291
GlifName: r
Width: 1024
VWidth: 0
Flags: W
AnchorPoint: "top" 504 1174 basechar 0
AnchorPoint: "base" 500 -70 basechar 0
LayerCount: 2
Fore
SplineSet
224.170898438 1023 m 257
 150.6484375 821 l 257
 883.6484375 821 l 257
 957.170898438 1023 l 257
 224.170898438 1023 l 257
414.056640625 954 m 257
 66.8291015625 0 l 257
 266.829101562 0 l 257
 614.056640625 954 l 257
 414.056640625 954 l 257
740.064453125 976 m 257
 621.41015625 650 l 257
 821.41015625 650 l 257
 940.064453125 976 l 257
 740.064453125 976 l 257
EndSplineSet
EndChar

StartChar: registered
Encoding: 174 174 294
GlifName: registered
Width: 1024
VWidth: 0
Flags: W
LayerCount: 2
Fore
SplineSet
492.90625 1032 m 257
 299.637695312 501 l 257
 367.637695312 501 l 257
 560.90625 1032 l 257
 492.90625 1032 l 257
517.90625 1032 m 257
 492.791992188 963 l 257
 721.791992188 963 l 257
 746.90625 1032 l 257
 517.90625 1032 l 257
686.90625 1032 m 257
 603.193359375 802 l 257
 672.193359375 802 l 257
 755.90625 1032 l 257
 686.90625 1032 l 257
456.762695312 875 m 257
 429.829101562 801 l 257
 667.829101562 801 l 257
 694.762695312 875 l 257
 456.762695312 875 l 257
479.741210938 809 m 257
 506.274414062 500 l 257
 589.274414062 500 l 257
 549.741210938 809 l 257
 479.741210938 809 l 257
320.7109375 1537 m 257
 -238.7109375 0 l 257
 -37.7109375 0 l 257
 521.7109375 1537 l 257
 320.7109375 1537 l 257
1059.7109375 1537 m 257
 500.2890625 0 l 257
 703.2890625 0 l 257
 1262.7109375 1537 l 257
 1059.7109375 1537 l 257
461.7109375 1537 m 257
 388.916992188 1337 l 257
 1031.91699219 1337 l 257
 1104.7109375 1537 l 257
 461.7109375 1537 l 257
-47.4609375 204 m 257
 -121.7109375 0 l 257
 551.2890625 0 l 257
 625.5390625 204 l 257
 -47.4609375 204 l 257
EndSplineSet
EndChar

StartChar: ring
Encoding: 730 730 295
GlifName: ring
Width: 1024
VWidth: 0
Flags: W
LayerCount: 2
Fore
SplineSet
460.294921875 1756 m 257
 608.294921875 1756 l 257
 560.978515625 1626 l 257
 412.978515625 1626 l 257
 460.294921875 1756 l 257
388.416015625 1847 m 257
 275.583984375 1537 l 257
 635.583984375 1537 l 257
 748.416015625 1847 l 257
 388.416015625 1847 l 257
EndSplineSet
EndChar

StartChar: s
Encoding: 115 115 296
GlifName: s
Width: 1024
VWidth: 0
Flags: W
AnchorPoint: "top" 472 1134 basechar 0
AnchorPoint: "base" 512 -66 basechar 0
LayerCount: 2
Fore
SplineSet
393.170898438 1023 m 257
 321.46875 826 l 257
 930.46875 826 l 257
 1002.17089844 1023 l 257
 393.170898438 1023 l 257
393.170898438 1023 m 257
 288.7109375 736 l 257
 488.7109375 736 l 257
 593.170898438 1023 l 257
 393.170898438 1023 l 257
94.9873046875 201 m 257
 21.8291015625 0 l 257
 626.829101562 0 l 257
 699.987304688 201 l 257
 94.9873046875 201 l 257
532.47265625 293 m 257
 430.196289062 12 l 257
 630.196289062 12 l 257
 732.47265625 293 l 257
 532.47265625 293 l 257
289.7109375 736 m 257
 532.47265625 293 l 257
 732.47265625 293 l 257
 489.7109375 736 l 257
 289.7109375 736 l 257
EndSplineSet
EndChar

StartChar: section
Encoding: 167 167 301
GlifName: section
Width: 1024
VWidth: 0
Flags: W
LayerCount: 2
Fore
SplineSet
396.502929688 1238 m 257
 322.6171875 1035 l 257
 920.6171875 1035 l 257
 994.502929688 1238 l 257
 396.502929688 1238 l 257
397.595703125 1241 m 257
 166.110351562 605 l 257
 368.110351562 605 l 257
 599.595703125 1241 l 257
 397.595703125 1241 l 257
-39.2939453125 -61 m 257
 -111.723632812 -260 l 257
 596.276367188 -260 l 257
 668.706054688 -61 l 257
 -39.2939453125 -61 l 257
431.639648438 -259 m 257
 632.639648438 -259 l 257
 761.485351562 95 l 257
 560.485351562 95 l 257
 431.639648438 -259 l 257
166.110351562 605 m 257
 560.485351562 95 l 257
 761.485351562 95 l 257
 368.110351562 605 l 257
 166.110351562 605 l 257
537.723632812 1626 m 257
 463.837890625 1423 l 257
 1061.83789062 1423 l 257
 1135.72363281 1626 l 257
 537.723632812 1626 l 257
538.815429688 1629 m 257
 396.139648438 1237 l 257
 598.139648438 1237 l 257
 740.815429688 1629 l 257
 538.815429688 1629 l 257
78.00390625 286 m 257
 5.5732421875 87 l 257
 713.573242188 87 l 257
 786.00390625 286 l 257
 78.00390625 286 l 257
548.9375 88 m 257
 749.9375 88 l 257
 878.783203125 442 l 257
 677.783203125 442 l 257
 548.9375 88 l 257
396.139648438 1237 m 257
 677.783203125 442 l 257
 878.783203125 442 l 257
 598.139648438 1237 l 257
 396.139648438 1237 l 257
EndSplineSet
EndChar

StartChar: semicolon
Encoding: 59 59 302
GlifName: semicolon
Width: 1024
VWidth: 0
Flags: W
LayerCount: 2
Fore
SplineSet
390.444335938 430 m 257
 307.095703125 201 l 257
 555.095703125 201 l 257
 638.444335938 430 l 257
 390.444335938 430 l 257
451.319335938 328 m 257
 231.043945312 47 l 257
 353.206054688 -13 l 257
 551.639648438 197 l 257
 451.319335938 328 l 257
526.956054688 871 m 257
 437.0546875 624 l 257
 703.0546875 624 l 257
 792.956054688 871 l 257
 526.956054688 871 l 257
EndSplineSet
EndChar

StartChar: seven
Encoding: 55 55 303
GlifName: seven
Width: 1024
VWidth: 0
Flags: W
LayerCount: 2
Fore
SplineSet
18.7392578125 1355 m 257
 728.739257812 1355 l 257
 235.559570312 0 l 257
 438.559570312 0 l 257
 1005.26074219 1557 l 257
 92.2607421875 1557 l 257
 18.7392578125 1355 l 257
EndSplineSet
EndChar

StartChar: six
Encoding: 54 54 304
GlifName: six
Width: 1024
VWidth: 0
Flags: W
LayerCount: 2
Fore
SplineSet
321.712890625 1548 m 257
 -168.5546875 201 l 257
 -241.712890625 0 l 257
 697.287109375 0 l 257
 1046.33496094 959 l 257
 310.334960938 959 l 257
 451.918945312 1348 l 257
 1192.91894531 1348 l 257
 1265.71289062 1548 l 257
 321.712890625 1548 l 257
765.540039062 759 m 257
 563.172851562 203 l 257
 41.1728515625 203 l 257
 243.540039062 759 l 257
 765.540039062 759 l 257
EndSplineSet
EndChar

StartChar: slash
Encoding: 47 47 305
GlifName: slash
Width: 1024
VWidth: 0
Flags: W
LayerCount: 2
Fore
SplineSet
985.076171875 1483 m 257
 -122.5078125 6 l 257
 38.923828125 -67 l 257
 1146.5078125 1410 l 257
 985.076171875 1483 l 257
EndSplineSet
EndChar

StartChar: sterling
Encoding: 163 163 307
GlifName: sterling
Width: 1024
VWidth: 0
Flags: W
LayerCount: 2
Fore
SplineSet
756.802734375 1543 m 257
 684.373046875 1344 l 257
 975.373046875 1344 l 257
 1047.80273438 1543 l 257
 756.802734375 1543 l 257
148.453125 770 m 257
 76.0234375 571 l 257
 802.0234375 571 l 257
 874.453125 770 l 257
 148.453125 770 l 257
712.439453125 1542 m 257
 151.197265625 0 l 257
 349.197265625 0 l 257
 910.439453125 1542 l 257
 712.439453125 1542 l 257
49.71875 202 m 257
 -23.802734375 0 l 257
 702.197265625 0 l 257
 775.71875 202 l 257
 49.71875 202 l 257
EndSplineSet
EndChar

StartChar: t
Encoding: 116 116 308
GlifName: t
Width: 1024
VWidth: 0
Flags: W
AnchorPoint: "top" 500 1642 basechar 0
AnchorPoint: "base" 500 -82 basechar 0
LayerCount: 2
Fore
SplineSet
670.254882812 1548 m 257
 106.829101562 0 l 257
 306.829101562 0 l 257
 870.254882812 1548 l 257
 670.254882812 1548 l 257
187.258789062 199 m 257
 114.829101562 0 l 257
 505.829101562 0 l 257
 578.258789062 199 l 257
 187.258789062 199 l 257
243.170898438 1023 m 257
 170.740234375 824 l 257
 844.740234375 824 l 257
 917.170898438 1023 l 257
 243.170898438 1023 l 257
EndSplineSet
EndChar

StartChar: tcaron
Encoding: 357 357 309
GlifName: tcaron
Width: 1024
VWidth: 0
Flags: HW
LayerCount: 2
Fore
SplineSet
898.510742188 1529 m 257
 342 0 l 257
 543 0 l 257
 1099.51074219 1529 l 257
 898.510742188 1529 l 257
567.4296875 199 m 257
 495 0 l 257
 886 0 l 257
 958.4296875 199 l 257
 567.4296875 199 l 257
442.341796875 1023 m 257
 369.911132812 824 l 257
 1148.91113281 824 l 257
 1221.34179688 1023 l 257
 442.341796875 1023 l 257
1216.49902344 1496 m 257
 1141.88574219 1291 l 257
 1271.88574219 1291 l 257
 1346.49902344 1496 l 257
 1216.49902344 1496 l 257
EndSplineSet
EndChar

StartChar: thorn
Encoding: 254 254 310
GlifName: thorn
Width: 1024
VWidth: 0
Flags: HW
LayerCount: 2
Fore
SplineSet
173 1034 m 257
 173 -406 l 257
 373 -406 l 257
 373 1034 l 257
 173 1034 l 257
360 667 m 257
 360 468 l 257
 916 468 l 257
 916 667 l 257
 360 667 l 257
368 6 m 257
 368 -195 l 257
 914 -195 l 257
 914 6 l 257
 368 6 l 257
716 597 m 257
 716 -104 l 257
 914 -104 l 257
 914 597 l 257
 716 597 l 257
EndSplineSet
EndChar

StartChar: three
Encoding: 51 51 311
GlifName: three
Width: 1024
VWidth: 0
Flags: W
LayerCount: 2
Fore
SplineSet
88.71484375 736 m 257
 746.71484375 736 l 257
 548.71484375 192 l 257
 -151.28515625 192 l 257
 -224.079101562 -8 l 257
 679.920898438 -8 l 257
 1248.07910156 1553 l 257
 374.079101562 1553 l 257
 301.28515625 1353 l 257
 969.28515625 1353 l 257
 817.508789062 936 l 257
 161.508789062 936 l 257
 88.71484375 736 l 257
EndSplineSet
EndChar

StartChar: threequarters
Encoding: 190 190 312
GlifName: threequarters
Width: 1024
VWidth: 0
Flags: W
LayerCount: 2
Fore
SplineSet
985.076171875 1483 m 257
 -122.5078125 6 l 257
 38.923828125 -67 l 257
 1146.5078125 1410 l 257
 985.076171875 1483 l 257
282.279296875 1272 m 257
 560.279296875 1272 l 257
 491.853515625 1084 l 257
 195.853515625 1084 l 257
 170.73828125 1015 l 257
 552.73828125 1015 l 257
 748.5546875 1553 l 257
 379.5546875 1553 l 257
 354.44140625 1484 l 257
 636.44140625 1484 l 257
 584.029296875 1340 l 257
 307.029296875 1340 l 257
 282.279296875 1272 l 257
509.05859375 340 m 257
 774.05859375 340 l 257
 652.857421875 7 l 257
 733.857421875 7 l 257
 981.357421875 687 l 257
 899.357421875 687 l 257
 805.087890625 428 l 257
 623.087890625 428 l 257
 718.083984375 689 l 257
 636.083984375 689 l 257
 509.05859375 340 l 257
EndSplineSet
EndChar

StartChar: tilde
Encoding: 732 732 313
GlifName: tilde
Width: 1024
VWidth: 0
Flags: W
LayerCount: 2
Fore
SplineSet
409.646484375 1607 m 257
 380.892578125 1528 l 257
 643.05859375 1479 l 257
 671.8125 1558 l 257
 409.646484375 1607 l 257
202.541015625 1560 m 257
 186.150390625 1482 l 257
 380.892578125 1528 l 257
 409.646484375 1607 l 257
 202.541015625 1560 l 257
671.8125 1558 m 257
 643.05859375 1479 l 257
 829.1875 1592 l 257
 837.849609375 1668 l 257
 671.8125 1558 l 257
EndSplineSet
EndChar

StartChar: tildecomb
Encoding: 771 771 314
GlifName: tildecomb
Width: 0
VWidth: 0
GlyphClass: 4
Flags: HW
AnchorPoint: "top" 672 1819 mark 0
LayerCount: 2
Fore
SplineSet
586.900390625 2015 m 257
 550.8671875 1916 l 257
 878.665039062 1855 l 257
 914.698242188 1954 l 257
 586.900390625 2015 l 257
327.790039062 1957 m 257
 307.12109375 1859 l 257
 550.8671875 1916 l 257
 586.900390625 2015 l 257
 327.790039062 1957 l 257
914.698242188 1954 m 257
 878.665039062 1855 l 257
 1110.984375 1996 l 257
 1121.92578125 2092 l 257
 914.698242188 1954 l 257
EndSplineSet
EndChar

StartChar: two
Encoding: 50 50 316
GlifName: two
Width: 1024
VWidth: 0
Flags: W
LayerCount: 2
Fore
SplineSet
311.462890625 1344 m 257
 920.462890625 1344 l 257
 761.772460938 908 l 257
 159.772460938 908 l 257
 -170.712890625 0 l 257
 617.287109375 0 l 257
 690.081054688 200 l 257
 105.081054688 200 l 257
 289.614257812 707 l 257
 888.614257812 707 l 257
 1194.71289062 1548 l 257
 385.712890625 1548 l 257
 311.462890625 1344 l 257
EndSplineSet
EndChar

StartChar: u
Encoding: 117 117 317
GlifName: u
Width: 1024
VWidth: 0
Flags: W
AnchorPoint: "top" 440 1146 basechar 0
AnchorPoint: "base" 724 -50 basechar 0
LayerCount: 2
Fore
SplineSet
382.170898438 1023 m 257
 9.8291015625 0 l 257
 210.829101562 0 l 257
 583.170898438 1023 l 257
 382.170898438 1023 l 257
814.170898438 1023 m 257
 441.829101562 0 l 257
 641.829101562 0 l 257
 1014.17089844 1023 l 257
 814.170898438 1023 l 257
129.623046875 200 m 257
 56.8291015625 0 l 257
 758.829101562 0 l 257
 831.623046875 200 l 257
 129.623046875 200 l 257
EndSplineSet
EndChar

StartChar: underscore
Encoding: 95 95 326
GlifName: underscore
Width: 1024
VWidth: 0
Flags: W
LayerCount: 2
Fore
SplineSet
12.0107421875 -5 m 257
 -12.0107421875 -71 l 257
 1011.98925781 -71 l 257
 1036.01074219 -5 l 257
 12.0107421875 -5 l 257
EndSplineSet
EndChar

StartChar: uni00B2
Encoding: 178 178 328
GlifName: uni00B_2
Width: 1024
VWidth: 0
Flags: W
LayerCount: 2
Fore
SplineSet
371.995117188 1455 m 257
 719.995117188 1455 l 257
 648.65625 1259 l 257
 304.65625 1259 l 257
 156.15625 851 l 257
 605.15625 851 l 257
 637.549804688 940 l 257
 304.549804688 940 l 257
 387.53515625 1168 l 257
 729.53515625 1168 l 257
 867.84375 1548 l 257
 405.84375 1548 l 257
 371.995117188 1455 l 257
EndSplineSet
EndChar

StartChar: uni00B3
Encoding: 179 179 329
GlifName: uni00B_3
Width: 1024
VWidth: 0
Flags: W
LayerCount: 2
Fore
SplineSet
224.857421875 1215 m 257
 676.857421875 1215 l 257
 594.96484375 990 l 257
 113.96484375 990 l 257
 84.119140625 908 l 257
 705.119140625 908 l 257
 939.880859375 1553 l 257
 339.880859375 1553 l 257
 310.03515625 1471 l 257
 769.03515625 1471 l 257
 706.068359375 1298 l 257
 255.068359375 1298 l 257
 224.857421875 1215 l 257
EndSplineSet
EndChar

StartChar: uni00B9
Encoding: 185 185 330
GlifName: uni00B_9
Width: 1024
VWidth: 0
Flags: W
LayerCount: 2
Fore
SplineSet
321.393554688 887 m 257
 420.893554688 887 l 257
 702.606445312 1661 l 257
 603.106445312 1661 l 257
 321.393554688 887 l 257
605.106445312 1661 m 257
 452.23828125 1513 l 257
 509.040039062 1463 l 257
 662.08984375 1611.5 l 257
 605.106445312 1661 l 257
EndSplineSet
EndChar

StartChar: uni018F
Encoding: 399 399 343
GlifName: uni018F_
Width: 1024
VWidth: 0
Flags: HW
AnchorPoint: "top" 1161.27 1630 basechar 0
AnchorPoint: "base" 647.415 -117 basechar 0
LayerCount: 2
Fore
SplineSet
804 0 m 257
 880.797851562 211 l 257
 341.797851562 211 l 257
 265 0 l 257
 804 0 l 257
854 0 m 257
 1415.60644531 1543 l 257
 1213.60644531 1543 l 257
 652 0 l 257
 854 0 l 257
1240.44824219 1342 m 257
 1313.60644531 1543 l 257
 731.606445312 1543 l 257
 658.448242188 1342 l 257
 1240.44824219 1342 l 257
1034.77539062 689 m 257
 1099.92578125 868 l 257
 445.92578125 868 l 257
 380.775390625 689 l 257
 1034.77539062 689 l 257
472.918945312 30 m 257
 618.290039062 869 l 257
 423.290039062 869 l 257
 277.918945312 30 l 257
 472.918945312 30 l 257
EndSplineSet
EndChar

StartChar: uni0192
Encoding: 402 402 344
GlifName: uni0192
Width: 1024
VWidth: 0
Flags: HW
LayerCount: 2
Fore
SplineSet
413 1023 m 257
 413 -406 l 257
 613 -406 l 257
 613 1023 l 257
 413 1023 l 257
475 1023 m 257
 475 831 l 257
 957 831 l 257
 957 1023 l 257
 475 1023 l 257
229 559 m 257
 229 356 l 257
 860 356 l 257
 860 559 l 257
 229 559 l 257
167 -201 m 257
 167 -406 l 257
 615 -406 l 257
 615 -201 l 257
 167 -201 l 257
EndSplineSet
EndChar

StartChar: uni0237
Encoding: 567 567 391
GlifName: uni0237
Width: 1024
VWidth: 0
Flags: HW
AnchorPoint: "top" 1150.21 1182 basechar 0
LayerCount: 2
Fore
SplineSet
969.131835938 940 m 257
 477.408203125 -411 l 257
 676.408203125 -411 l 257
 1168.13183594 940 l 257
 969.131835938 940 l 257
120.930664062 -209 m 257
 49.228515625 -406 l 257
 579.228515625 -406 l 257
 650.930664062 -209 l 257
 120.930664062 -209 l 257
195.81640625 -6 m 257
 70.24609375 -351 l 257
 270.24609375 -351 l 257
 395.81640625 -6 l 257
 195.81640625 -6 l 257
EndSplineSet
EndChar

StartChar: uni0259
Encoding: 601 601 392
GlifName: uni0259
Width: 1024
VWidth: 0
Flags: HW
LayerCount: 2
Fore
SplineSet
804 0 m 257
 804 211 l 257
 240 278 l 257
 240 67 l 257
 804 0 l 257
854 0 m 257
 854 1023 l 257
 652 1023 l 257
 652 0 l 257
 854 0 l 257
752 822 m 257
 752 1023 l 257
 170 1023 l 257
 170 822 l 257
 752 822 l 257
784 398 m 257
 784 577 l 257
 194 577 l 257
 194 398 l 257
 784 398 l 257
437 97 m 257
 366 578 l 257
 171 578 l 257
 242 97 l 257
 437 97 l 257
EndSplineSet
EndChar

StartChar: uni02C9
Encoding: 713 713 396
GlifName: uni02C_9
Width: 1024
VWidth: 0
Flags: W
LayerCount: 2
Fore
SplineSet
246.922851562 1630 m 257
 217.077148438 1548 l 257
 777.077148438 1548 l 257
 806.922851562 1630 l 257
 246.922851562 1630 l 257
EndSplineSet
EndChar

StartChar: uni02CA
Encoding: 714 714 397
GlifName: uni02C_A_
Width: 1024
VWidth: 0
Flags: W
LayerCount: 2
Fore
SplineSet
586.9140625 1346 m 257
 364.46484375 1092 l 257
 435.72265625 1046 l 257
 659.53515625 1301 l 257
 586.9140625 1346 l 257
EndSplineSet
EndChar

StartChar: uni02CB
Encoding: 715 715 398
GlifName: uni02C_B_
Width: 1024
VWidth: 0
Flags: W
LayerCount: 2
Fore
SplineSet
441.078125 2107 m 257
 475.1796875 1871 l 257
 582.921875 1917 l 257
 550.18359375 2154 l 257
 441.078125 2107 l 257
EndSplineSet
EndChar

StartChar: uni0302
Encoding: 770 770 399
GlifName: uni0302
Width: 0
VWidth: 0
GlyphClass: 4
Flags: HW
AnchorPoint: "top" 510 1407 mark 0
LayerCount: 2
Fore
SplineSet
658.765625 1726 m 257
 598.765625 1726 l 257
 402.765625 1479 l 257
 453.765625 1454 l 257
 658.765625 1726 l 257
582.765625 1678 m 257
 604.765625 1454 l 257
 672.765625 1476 l 257
 658.765625 1726 l 257
 582.765625 1678 l 257
EndSplineSet
EndChar

StartChar: uni0304
Encoding: 772 772 400
GlifName: uni0304
Width: 0
VWidth: 0
GlyphClass: 4
Flags: HW
AnchorPoint: "top" 546 1468 mark 0
LayerCount: 2
Fore
SplineSet
313.271484375 1630 m 257
 283.42578125 1548 l 257
 843.42578125 1548 l 257
 873.271484375 1630 l 257
 313.271484375 1630 l 257
EndSplineSet
EndChar

StartChar: uni0305
Encoding: 773 773 401
GlifName: uni0305
Width: 0
VWidth: 0
GlyphClass: 4
Flags: HW
AnchorPoint: "top" 538 1464 mark 0
LayerCount: 2
Fore
SplineSet
206.080078125 1602 m 257
 184.2421875 1542 l 257
 938.2421875 1542 l 257
 960.080078125 1602 l 257
 206.080078125 1602 l 257
EndSplineSet
EndChar

StartChar: uni0306
Encoding: 774 774 402
GlifName: uni0306
Width: 0
VWidth: 0
GlyphClass: 4
Flags: HW
AnchorPoint: "top" 525 1408 mark 0
LayerCount: 2
Fore
SplineSet
728.42578125 1548 m 257
 703.67578125 1480 l 257
 893.42578125 1548 l 257
 928.73046875 1645 l 257
 728.42578125 1548 l 257
404.42578125 1548 m 257
 379.67578125 1480 l 257
 703.67578125 1480 l 257
 728.42578125 1548 l 257
 404.42578125 1548 l 257
263.271484375 1630 m 257
 233.42578125 1548 l 257
 379.67578125 1480 l 257
 404.42578125 1548 l 257
 263.271484375 1630 l 257
EndSplineSet
EndChar

StartChar: uni0307
Encoding: 775 775 403
GlifName: uni0307
Width: 0
VWidth: 0
GlyphClass: 4
Flags: HW
AnchorPoint: "top" 556 1510 mark 0
LayerCount: 2
Fore
SplineSet
538.778320312 1788 m 257
 465.256835938 1586 l 257
 689.256835938 1586 l 257
 762.778320312 1788 l 257
 538.778320312 1788 l 257
EndSplineSet
EndChar

StartChar: uni0308
Encoding: 776 776 404
GlifName: uni0308
Width: 0
VWidth: 0
GlyphClass: 4
Flags: HW
AnchorPoint: "top" 560 1545.8 mark 0
LayerCount: 2
Fore
SplineSet
455.580078125 1738 m 257
 418.818359375 1637 l 257
 530.818359375 1637 l 257
 567.580078125 1738 l 257
 455.580078125 1738 l 257
697.580078125 1738 m 257
 660.818359375 1637 l 257
 772.818359375 1637 l 257
 809.580078125 1738 l 257
 697.580078125 1738 l 257
EndSplineSet
EndChar

StartChar: uni030A
Encoding: 778 778 405
GlifName: uni030A_
Width: 0
VWidth: 0
GlyphClass: 4
Flags: HW
AnchorPoint: "top" 515 1388 mark 0
LayerCount: 2
Fore
SplineSet
564.1328125 1756 m 257
 712.1328125 1756 l 257
 664.81640625 1626 l 257
 516.81640625 1626 l 257
 564.1328125 1756 l 257
492.25390625 1847 m 257
 379.421875 1537 l 257
 739.421875 1537 l 257
 852.25390625 1847 l 257
 492.25390625 1847 l 257
EndSplineSet
EndChar

StartChar: uni030C
Encoding: 780 780 407
GlifName: uni030C_
Width: 0
VWidth: 0
GlyphClass: 4
Flags: HW
AnchorPoint: "top" 474 1287 mark 0
LayerCount: 2
Fore
SplineSet
521.49609375 1349 m 257
 514.49609375 1621 l 257
 445.396484375 1596 l 257
 461.49609375 1349 l 257
 521.49609375 1349 l 257
480.966796875 1397 m 257
 521.49609375 1349 l 257
 717.48828125 1599 l 257
 665.49609375 1621 l 257
 480.966796875 1397 l 257
EndSplineSet
EndChar

StartChar: uni030F
Encoding: 783 783 408
GlifName: uni030F_
Width: 0
VWidth: 0
GlyphClass: 4
Flags: HW
AnchorPoint: "top" 666 1798 mark 0
LayerCount: 2
Fore
SplineSet
770.385742188 2107 m 257
 804.48828125 1871 l 257
 912.23046875 1917 l 257
 879.4921875 2154 l 257
 770.385742188 2107 l 257
552.385742188 2107 m 257
 586.48828125 1871 l 257
 694.23046875 1917 l 257
 661.4921875 2154 l 257
 552.385742188 2107 l 257
EndSplineSet
EndChar

StartChar: uni0311
Encoding: 785 785 409
GlifName: uni0311
Width: 0
VWidth: 0
GlyphClass: 4
Flags: HW
AnchorPoint: "top" 530 1457 mark 0
LayerCount: 2
Fore
SplineSet
408.981445312 1577 m 257
 433.731445312 1645 l 257
 243.981445312 1577 l 257
 208.67578125 1480 l 257
 408.981445312 1577 l 257
732.981445312 1577 m 257
 757.731445312 1645 l 257
 433.731445312 1645 l 257
 408.981445312 1577 l 257
 732.981445312 1577 l 257
874.135742188 1495 m 257
 903.981445312 1577 l 257
 757.731445312 1645 l 257
 732.981445312 1577 l 257
 874.135742188 1495 l 257
EndSplineSet
EndChar

StartChar: uni0326
Encoding: 806 806 410
GlifName: uni0326
Width: 0
VWidth: 0
GlyphClass: 4
Flags: HW
AnchorPoint: "base" 22 -5 mark 0
LayerCount: 2
Fore
SplineSet
-114.5 0 m 257
 -198.212890625 -230 l 257
 49.787109375 -230 l 257
 133.5 0 l 257
 -114.5 0 l 257
-52.990234375 -103 m 257
 -273.265625 -384 l 257
 -152.103515625 -444 l 257
 46.330078125 -234 l 257
 -52.990234375 -103 l 257
EndSplineSet
EndChar

StartChar: uni0327
Encoding: 807 807 411
GlifName: uni0327
Width: 0
VWidth: 0
GlyphClass: 4
Flags: HW
AnchorPoint: "base" -446 90 mark 0
LayerCount: 2
Fore
SplineSet
-157.985351562 180 m 257
 -275.912109375 -144 l 257
 -119.912109375 -144 l 257
 -1.9853515625 180 l 257
 -157.985351562 180 l 257
-327.323242188 -288 m 257
 -370.271484375 -406 l 257
 75.728515625 -406 l 257
 118.676757812 -288 l 257
 -327.323242188 -288 l 257
71.5 0 m 257
 -63.896484375 -372 l 257
 88.103515625 -372 l 257
 223.5 0 l 257
 71.5 0 l 257
-222.5 0 m 257
 -279.279296875 -156 l 257
 166.720703125 -156 l 257
 223.5 0 l 257
 -222.5 0 l 257
EndSplineSet
EndChar

StartChar: uni0328
Encoding: 808 808 412
GlifName: uni0328
Width: 0
VWidth: 0
GlyphClass: 4
Flags: HW
AnchorPoint: "base" -167 0 mark 0
LayerCount: 2
Fore
SplineSet
-375.823242188 -288 m 257
 -418.771484375 -406 l 257
 123.228515625 -406 l 257
 166.176757812 -288 l 257
 -375.823242188 -288 l 257
-271 0 m 257
 -418.771484375 -406 l 257
 -300.771484375 -406 l 257
 -153 0 l 257
 -271 0 l 257
-271 0 m 257
 -315.040039062 -121 l 257
 226.959960938 -121 l 257
 271 0 l 257
 -271 0 l 257
EndSplineSet
EndChar

StartChar: uni0331
Encoding: 817 817 413
GlifName: uni0331
Width: 0
VWidth: 0
GlyphClass: 4
Flags: HW
AnchorPoint: "base" 4 -163 mark 0
LayerCount: 2
Fore
SplineSet
-341.875 -170 m 257
 -370.265625 -248 l 257
 189.734375 -248 l 257
 218.125 -170 l 257
 -341.875 -170 l 257
EndSplineSet
EndChar

StartChar: uni0900
Encoding: 2304 2304 414
GlifName: uni0900
Width: 0
VWidth: 0
GlyphClass: 4
LayerCount: 2
Fore
SplineSet
371.073242188 2124 m 257
 194.546875 1639 l 257
 393.546875 1639 l 257
 570.073242188 2124 l 257
 371.073242188 2124 l 257
417.80078125 2126 m 257
 344.642578125 1925 l 257
 978.642578125 1925 l 257
 1051.80078125 2126 l 257
 417.80078125 2126 l 257
588.8046875 1865 m 257
 516.010742188 1665 l 257
 716.010742188 1665 l 257
 788.8046875 1865 l 257
 588.8046875 1865 l 257
976.165039062 2127 m 257
 797.455078125 1636 l 257
 997.455078125 1636 l 257
 1176.16503906 2127 l 257
 976.165039062 2127 l 257
EndSplineSet
EndChar

StartChar: uni0901
Encoding: 2305 2305 415
GlifName: uni0901
Width: 0
VWidth: 0
GlyphClass: 4
LayerCount: 2
Fore
SplineSet
371.07421875 2124 m 257
 194.546875 1639 l 257
 393.546875 1639 l 257
 570.07421875 2124 l 257
 371.07421875 2124 l 257
314.43359375 1842 m 257
 241.275390625 1641 l 257
 875.275390625 1641 l 257
 948.43359375 1842 l 257
 314.43359375 1842 l 257
662.517578125 2095 m 257
 589.724609375 1895 l 257
 789.724609375 1895 l 257
 862.517578125 2095 l 257
 662.517578125 2095 l 257
977.984375 2132 m 257
 799.275390625 1641 l 257
 999.275390625 1641 l 257
 1177.984375 2132 l 257
 977.984375 2132 l 257
EndSplineSet
EndChar

StartChar: uni0902
Encoding: 2306 2306 416
GlifName: uni0902
Width: 0
VWidth: 0
GlyphClass: 4
LayerCount: 2
Fore
SplineSet
569.341796875 1839 m 257
 496.546875 1639 l 257
 696.546875 1639 l 257
 769.341796875 1839 l 257
 569.341796875 1839 l 257
EndSplineSet
EndChar

StartChar: uni0903
Encoding: 2307 2307 417
GlifName: uni0903
Width: 1024
VWidth: 0
Flags: W
LayerCount: 2
Fore
SplineSet
326.831054688 649 m 257
 254.037109375 449 l 257
 454.037109375 449 l 257
 526.831054688 649 l 257
 326.831054688 649 l 257
569.962890625 1317 m 257
 497.168945312 1117 l 257
 697.168945312 1117 l 257
 769.962890625 1317 l 257
 569.962890625 1317 l 257
EndSplineSet
EndChar

StartChar: uni0904
Encoding: 2308 2308 418
GlifName: uni0904
Width: 1024
VWidth: 0
Flags: W
LayerCount: 2
Fore
SplineSet
717.890625 2155 m 257
 601.784179688 1836 l 257
 799.784179688 1836 l 257
 915.890625 2155 l 257
 717.890625 2155 l 257
648.46484375 1967 m 257
 576.034179688 1768 l 257
 1259.03417969 1768 l 257
 1331.46484375 1967 l 257
 648.46484375 1967 l 257
1128.4609375 1956 m 257
 968.314453125 1516 l 257
 1169.31445312 1516 l 257
 1329.4609375 1956 l 257
 1128.4609375 1956 l 257
946.9609375 1548 m 257
 873.802734375 1347 l 257
 1182.80273438 1347 l 257
 1255.9609375 1548 l 257
 946.9609375 1548 l 257
961.008789062 1419 m 257
 444.53515625 0 l 257
 643.53515625 0 l 257
 1160.00878906 1419 l 257
 961.008789062 1419 l 257
280.9609375 1548 m 257
 208.166992188 1348 l 257
 731.166992188 1348 l 257
 803.9609375 1548 l 257
 280.9609375 1548 l 257
629.9609375 1548 m 257
 117.491210938 140 l 257
 317.491210938 140 l 257
 829.9609375 1548 l 257
 629.9609375 1548 l 257
126.924804688 894 m 257
 53.7666015625 693 l 257
 750.766601562 693 l 257
 823.924804688 894 l 257
 126.924804688 894 l 257
-234.306640625 201 m 257
 -307.46484375 0 l 257
 266.53515625 0 l 257
 339.693359375 201 l 257
 -234.306640625 201 l 257
EndSplineSet
EndChar

StartChar: uni0905
Encoding: 2309 2309 419
GlifName: uni0905
Width: 1024
VWidth: 0
Flags: W
LayerCount: 2
Fore
SplineSet
983.712890625 1548 m 257
 910.918945312 1348 l 257
 1221.91894531 1348 l 257
 1294.71289062 1548 l 257
 983.712890625 1548 l 257
997.760742188 1419 m 257
 481.287109375 0 l 257
 680.287109375 0 l 257
 1196.76074219 1419 l 257
 997.760742188 1419 l 257
317.712890625 1548 m 257
 244.918945312 1348 l 257
 767.918945312 1348 l 257
 840.712890625 1548 l 257
 317.712890625 1548 l 257
666.712890625 1548 m 257
 154.243164062 140 l 257
 354.243164062 140 l 257
 866.712890625 1548 l 257
 666.712890625 1548 l 257
163.676757812 894 m 257
 90.5185546875 693 l 257
 787.518554688 693 l 257
 860.676757812 894 l 257
 163.676757812 894 l 257
-197.5546875 201 m 257
 -270.712890625 0 l 257
 303.287109375 0 l 257
 376.4453125 201 l 257
 -197.5546875 201 l 257
EndSplineSet
EndChar

StartChar: uni0906
Encoding: 2310 2310 420
GlifName: uni0906
Width: 1024
VWidth: 0
Flags: W
LayerCount: 2
Fore
SplineSet
809.212890625 1548 m 257
 736.418945312 1348 l 257
 1233.41894531 1348 l 257
 1306.21289062 1548 l 257
 809.212890625 1548 l 257
778.260742188 1419 m 257
 261.787109375 0 l 257
 460.787109375 0 l 257
 977.260742188 1419 l 257
 778.260742188 1419 l 257
306.212890625 1548 m 257
 233.418945312 1348 l 257
 593.418945312 1348 l 257
 666.212890625 1548 l 257
 306.212890625 1548 l 257
492.212890625 1548 m 257
 -20.2568359375 140 l 257
 179.743164062 140 l 257
 692.212890625 1548 l 257
 492.212890625 1548 l 257
152.176757812 894 m 257
 79.0185546875 693 l 257
 613.018554688 693 l 257
 686.176757812 894 l 257
 152.176757812 894 l 257
-209.0546875 201 m 257
 -282.212890625 0 l 257
 128.787109375 0 l 257
 201.9453125 201 l 257
 -209.0546875 201 l 257
1045.625 1420 m 257
 528.787109375 0 l 257
 727.787109375 0 l 257
 1244.625 1420 l 257
 1045.625 1420 l 257
EndSplineSet
EndChar

StartChar: uni0907
Encoding: 2311 2311 421
GlifName: uni0907
Width: 1024
VWidth: 0
Flags: W
LayerCount: 2
Fore
SplineSet
196.1171875 1548 m 257
 123.323242188 1348 l 257
 1148.32324219 1348 l 257
 1221.1171875 1548 l 257
 196.1171875 1548 l 257
735.565429688 1530 m 257
 582.698242188 1110 l 257
 782.698242188 1110 l 257
 935.565429688 1530 l 257
 735.565429688 1530 l 257
236.275390625 1205 m 257
 163.1171875 1004 l 257
 744.1171875 1004 l 257
 817.275390625 1205 l 257
 236.275390625 1205 l 257
227.540039062 1181 m 257
 66.3017578125 738 l 257
 236.301757812 738 l 257
 397.540039062 1181 l 257
 227.540039062 1181 l 257
118.349609375 881 m 257
 45.5546875 681 l 257
 640.5546875 681 l 257
 713.349609375 881 l 257
 118.349609375 881 l 257
592.349609375 881 m 257
 372.875 278 l 257
 571.875 278 l 257
 791.349609375 881 l 257
 592.349609375 881 l 257
-115.845703125 298 m 257
 -189.00390625 97 l 257
 505.99609375 97 l 257
 579.154296875 298 l 257
 -115.845703125 298 l 257
0.154296875 298 m 257
 -197.1171875 -244 l 257
 2.8828125 -244 l 257
 200.154296875 298 l 257
 0.154296875 298 l 257
EndSplineSet
EndChar

StartChar: uni0908
Encoding: 2312 2312 422
GlifName: uni0908
Width: 1024
VWidth: 0
Flags: W
LayerCount: 2
Fore
SplineSet
196.1171875 1548 m 257
 123.323242188 1348 l 257
 1148.32324219 1348 l 257
 1221.1171875 1548 l 257
 196.1171875 1548 l 257
742.1171875 1548 m 257
 580.514648438 1104 l 257
 780.514648438 1104 l 257
 942.1171875 1548 l 257
 742.1171875 1548 l 257
236.275390625 1205 m 257
 163.1171875 1004 l 257
 744.1171875 1004 l 257
 817.275390625 1205 l 257
 236.275390625 1205 l 257
227.540039062 1181 m 257
 66.3017578125 738 l 257
 266.301757812 738 l 257
 427.540039062 1181 l 257
 227.540039062 1181 l 257
118.349609375 881 m 257
 45.5546875 681 l 257
 640.5546875 681 l 257
 713.349609375 881 l 257
 118.349609375 881 l 257
610.349609375 881 m 257
 393.422851562 285 l 257
 574.422851562 285 l 257
 791.349609375 881 l 257
 610.349609375 881 l 257
-115.845703125 298 m 257
 -189.00390625 97 l 257
 508.99609375 97 l 257
 582.154296875 298 l 257
 -115.845703125 298 l 257
0.154296875 298 m 257
 -197.1171875 -244 l 257
 25.8828125 -244 l 257
 223.154296875 298 l 257
 0.154296875 298 l 257
544.918945312 1770 m 257
 665.62109375 1423 l 257
 870.11328125 1537 l 257
 749.139648438 1886 l 257
 544.918945312 1770 l 257
EndSplineSet
EndChar

StartChar: uni0909
Encoding: 2313 2313 423
GlifName: uni0909
Width: 1024
VWidth: 0
Flags: W
LayerCount: 2
Fore
SplineSet
215.712890625 1548 m 257
 142.918945312 1348 l 257
 1168.91894531 1348 l 257
 1241.71289062 1548 l 257
 215.712890625 1548 l 257
689.161132812 1530 m 257
 496.62109375 1001 l 257
 695.62109375 1001 l 257
 888.161132812 1530 l 257
 689.161132812 1530 l 257
267.272460938 1044 m 257
 194.841796875 845 l 257
 836.841796875 845 l 257
 909.272460938 1044 l 257
 267.272460938 1044 l 257
692.073242188 994 m 257
 330.287109375 0 l 257
 530.287109375 0 l 257
 892.073242188 994 l 257
 692.073242188 994 l 257
-144.5546875 201 m 257
 -217.712890625 0 l 257
 519.287109375 0 l 257
 592.4453125 201 l 257
 -144.5546875 201 l 257
-85.591796875 363 m 257
 -204.610351562 36 l 257
 -4.6103515625 36 l 257
 114.408203125 363 l 257
 -85.591796875 363 l 257
EndSplineSet
EndChar

StartChar: uni090A
Encoding: 2314 2314 424
GlifName: uni090A_
Width: 1024
VWidth: 0
Flags: W
LayerCount: 2
Fore
SplineSet
257.302734375 1548 m 257
 184.508789062 1348 l 257
 1209.50878906 1348 l 257
 1282.30273438 1548 l 257
 257.302734375 1548 l 257
558.750976562 1530 m 257
 366.2109375 1001 l 257
 565.2109375 1001 l 257
 757.750976562 1530 l 257
 558.750976562 1530 l 257
224.862304688 1044 m 257
 152.431640625 845 l 257
 975.431640625 845 l 257
 1047.86230469 1044 l 257
 224.862304688 1044 l 257
542.663085938 994 m 257
 184.880859375 11 l 257
 384.880859375 11 l 257
 742.663085938 994 l 257
 542.663085938 994 l 257
-185.873046875 204 m 257
 -258.302734375 5 l 257
 379.697265625 5 l 257
 452.126953125 204 l 257
 -185.873046875 204 l 257
-126.91015625 366 m 257
 -245.927734375 39 l 257
 -45.927734375 39 l 257
 73.08984375 366 l 257
 -126.91015625 366 l 257
813.192382812 946 m 257
 547.858398438 217 l 257
 746.858398438 217 l 257
 1012.19238281 946 l 257
 813.192382812 946 l 257
EndSplineSet
EndChar

StartChar: uni090B
Encoding: 2315 2315 425
GlifName: uni090B_
Width: 1024
VWidth: 0
Flags: W
LayerCount: 2
Fore
SplineSet
161.33984375 1548 m 257
 87.818359375 1346 l 257
 1114.81835938 1346 l 257
 1188.33984375 1548 l 257
 161.33984375 1548 l 257
670.96875 1525 m 257
 115.9140625 0 l 257
 314.9140625 0 l 257
 869.96875 1525 l 257
 670.96875 1525 l 257
-0.1005859375 1044 m 257
 -72.53125 845 l 257
 231.46875 845 l 257
 303.899414062 1044 l 257
 -0.1005859375 1044 l 257
289.443359375 496 m 257
 -164.33984375 329 l 257
 -152.5859375 136 l 257
 301.197265625 303 l 257
 289.443359375 496 l 257
303.899414062 1044 m 257
 231.833007812 846 l 257
 475.979492188 742 l 257
 549.501953125 944 l 257
 303.899414062 1044 l 257
619.395507812 897 m 257
 547.329101562 699 l 257
 862.329101562 699 l 257
 934.395507812 897 l 257
 619.395507812 897 l 257
712.395507812 897 m 257
 481.274414062 262 l 257
 680.274414062 262 l 257
 911.395507812 897 l 257
 712.395507812 897 l 257
630.068359375 462 m 257
 557.274414062 262 l 257
 721.274414062 262 l 257
 794.068359375 462 l 257
 630.068359375 462 l 257
EndSplineSet
EndChar

StartChar: uni090C
Encoding: 2316 2316 426
GlifName: uni090C_
Width: 1024
VWidth: 0
Flags: W
LayerCount: 2
Fore
SplineSet
213.852539062 1548 m 257
 141.786132812 1350 l 257
 1167.78613281 1350 l 257
 1239.85253906 1548 l 257
 213.852539062 1548 l 257
762.1171875 1524 m 257
 458.202148438 689 l 257
 658.202148438 689 l 257
 962.1171875 1524 l 257
 762.1171875 1524 l 257
883.327148438 791 m 257
 -20.6728515625 791 l 257
 -93.8310546875 590 l 257
 810.168945312 590 l 257
 883.327148438 791 l 257
-24.7685546875 777 m 257
 -215.852539062 252 l 257
 -14.8525390625 252 l 257
 176.231445312 777 l 257
 -24.7685546875 777 l 257
331.327148438 791 m 257
 201.025390625 433 l 257
 402.025390625 433 l 257
 532.327148438 791 l 257
 331.327148438 791 l 257
683.327148438 791 m 257
 421.6328125 72 l 257
 621.6328125 72 l 257
 883.327148438 791 l 257
 683.327148438 791 l 257
565.05859375 260 m 257
 496.6328125 72 l 257
 697.6328125 72 l 257
 766.05859375 260 l 257
 565.05859375 260 l 257
EndSplineSet
EndChar

StartChar: uni090D
Encoding: 2317 2317 427
GlifName: uni090D_
Width: 1024
VWidth: 0
Flags: W
LayerCount: 2
Fore
SplineSet
151.883789062 1548 m 257
 79.08984375 1348 l 257
 1105.08984375 1348 l 257
 1177.88378906 1548 l 257
 151.883789062 1548 l 257
880.883789062 1548 m 257
 600.991210938 779 l 257
 799.991210938 779 l 257
 1079.88378906 1548 l 257
 880.883789062 1548 l 257
528.829101562 839 m 257
 456.03515625 639 l 257
 749.03515625 639 l 257
 821.829101562 839 l 257
 528.829101562 839 l 257
291.700195312 1542 m 257
 -146.520507812 338 l 257
 52.4794921875 338 l 257
 490.700195312 1542 l 257
 291.700195312 1542 l 257
-89.0126953125 496 m 257
 -161.442382812 297 l 257
 445.557617188 297 l 257
 517.987304688 496 l 257
 -89.0126953125 496 l 257
268.759765625 358 m 257
 102.7890625 -98 l 257
 301.7890625 -98 l 257
 467.759765625 358 l 257
 268.759765625 358 l 257
12.21875 101 m 257
 -60.2109375 -98 l 257
 299.7890625 -98 l 257
 372.21875 101 l 257
 12.21875 101 l 257
518.53125 2124 m 257
 342.004882812 1639 l 257
 541.004882812 1639 l 257
 717.53125 2124 l 257
 518.53125 2124 l 257
461.163085938 1840 m 257
 388.733398438 1641 l 257
 982.733398438 1641 l 257
 1055.16308594 1840 l 257
 461.163085938 1840 l 257
986.442382812 2132 m 257
 807.733398438 1641 l 257
 1006.73339844 1641 l 257
 1185.44238281 2132 l 257
 986.442382812 2132 l 257
EndSplineSet
EndChar

StartChar: uni090E
Encoding: 2318 2318 428
GlifName: uni090E_
Width: 1024
VWidth: 0
Flags: W
LayerCount: 2
Fore
SplineSet
159.541992188 1548 m 257
 86.748046875 1348 l 257
 1112.74804688 1348 l 257
 1185.54199219 1548 l 257
 159.541992188 1548 l 257
835.766601562 1403 m 257
 608.649414062 779 l 257
 807.649414062 779 l 257
 1034.76660156 1403 l 257
 835.766601562 1403 l 257
587.443359375 979 m 257
 514.649414062 779 l 257
 807.649414062 779 l 257
 880.443359375 979 l 257
 587.443359375 979 l 257
299.358398438 1542 m 257
 -138.862304688 338 l 257
 60.1376953125 338 l 257
 498.358398438 1542 l 257
 299.358398438 1542 l 257
-131.58203125 358 m 257
 -204.012695312 159 l 257
 395.987304688 159 l 257
 468.41796875 358 l 257
 -131.58203125 358 l 257
267.41796875 358 m 257
 101.447265625 -98 l 257
 302.447265625 -98 l 257
 468.41796875 358 l 257
 267.41796875 358 l 257
-35.71484375 -38 m 257
 -108.508789062 -238 l 257
 251.491210938 -238 l 257
 324.28515625 -38 l 257
 -35.71484375 -38 l 257
616.623046875 2062 m 257
 529.633789062 1823 l 257
 729.633789062 1823 l 257
 816.623046875 2062 l 257
 616.623046875 2062 l 257
545.012695312 1868 m 257
 471.854492188 1667 l 257
 1154.85449219 1667 l 257
 1228.01269531 1868 l 257
 545.012695312 1868 l 257
1022.37304688 1858 m 257
 905.538085938 1537 l 257
 1107.53808594 1537 l 257
 1224.37304688 1858 l 257
 1022.37304688 1858 l 257
EndSplineSet
EndChar

StartChar: uni090F
Encoding: 2319 2319 429
GlifName: uni090F_
Width: 1024
VWidth: 0
Flags: W
LayerCount: 2
Fore
SplineSet
157.663085938 1548 m 257
 84.869140625 1348 l 257
 1110.86914062 1348 l 257
 1183.66308594 1548 l 257
 157.663085938 1548 l 257
881.663085938 1548 m 257
 602.862304688 782 l 257
 802.862304688 782 l 257
 1081.66308594 1548 l 257
 881.663085938 1548 l 257
581.564453125 979 m 257
 508.770507812 779 l 257
 801.770507812 779 l 257
 874.564453125 979 l 257
 581.564453125 979 l 257
293.479492188 1542 m 257
 -144.741210938 338 l 257
 55.2587890625 338 l 257
 493.479492188 1542 l 257
 293.479492188 1542 l 257
-86.869140625 497 m 257
 -159.663085938 297 l 257
 440.336914062 297 l 257
 513.130859375 497 l 257
 -86.869140625 497 l 257
311.395507812 473 m 257
 103.568359375 -98 l 257
 303.568359375 -98 l 257
 511.395507812 473 l 257
 311.395507812 473 l 257
14.3623046875 102 m 257
 -58.431640625 -98 l 257
 301.568359375 -98 l 257
 374.362304688 102 l 257
 14.3623046875 102 l 257
EndSplineSet
EndChar

StartChar: uni0910
Encoding: 2320 2320 430
GlifName: uni0910
Width: 1024
VWidth: 0
Flags: W
LayerCount: 2
Fore
SplineSet
157.663085938 1548 m 257
 84.869140625 1348 l 257
 1110.86914062 1348 l 257
 1183.66308594 1548 l 257
 157.663085938 1548 l 257
881.663085938 1548 m 257
 601.770507812 779 l 257
 801.770507812 779 l 257
 1081.66308594 1548 l 257
 881.663085938 1548 l 257
581.564453125 979 m 257
 508.770507812 779 l 257
 801.770507812 779 l 257
 874.564453125 979 l 257
 581.564453125 979 l 257
293.479492188 1542 m 257
 -144.741210938 338 l 257
 55.2587890625 338 l 257
 493.479492188 1542 l 257
 293.479492188 1542 l 257
-86.869140625 497 m 257
 -159.663085938 297 l 257
 440.336914062 297 l 257
 513.130859375 497 l 257
 -86.869140625 497 l 257
304.395507812 473 m 257
 96.568359375 -98 l 257
 296.568359375 -98 l 257
 504.395507812 473 l 257
 304.395507812 473 l 257
14.3623046875 102 m 257
 -58.431640625 -98 l 257
 301.568359375 -98 l 257
 374.362304688 102 l 257
 14.3623046875 102 l 257
721.592773438 1883 m 257
 873.806640625 1433 l 257
 1079.66308594 1548 l 257
 927.450195312 1998 l 257
 721.592773438 1883 l 257
EndSplineSet
EndChar

StartChar: uni0911
Encoding: 2321 2321 431
GlifName: uni0911
Width: 1024
VWidth: 0
Flags: W
LayerCount: 2
Fore
SplineSet
712.850585938 1548 m 257
 640.056640625 1348 l 257
 1137.05664062 1348 l 257
 1209.85058594 1548 l 257
 712.850585938 1548 l 257
681.8984375 1419 m 257
 165.424804688 0 l 257
 364.424804688 0 l 257
 880.8984375 1419 l 257
 681.8984375 1419 l 257
209.850585938 1548 m 257
 137.056640625 1348 l 257
 497.056640625 1348 l 257
 569.850585938 1548 l 257
 209.850585938 1548 l 257
395.850585938 1548 m 257
 -116.619140625 140 l 257
 83.380859375 140 l 257
 595.850585938 1548 l 257
 395.850585938 1548 l 257
55.814453125 894 m 257
 -17.34375 693 l 257
 516.65625 693 l 257
 589.814453125 894 l 257
 55.814453125 894 l 257
-305.416992188 201 m 257
 -378.575195312 0 l 257
 32.4248046875 0 l 257
 105.583007812 201 l 257
 -305.416992188 201 l 257
949.262695312 1420 m 257
 432.424804688 0 l 257
 631.424804688 0 l 257
 1148.26269531 1420 l 257
 949.262695312 1420 l 257
912.302734375 2085 m 257
 749.971679688 1639 l 257
 949.971679688 1639 l 257
 1112.30273438 2085 l 257
 912.302734375 2085 l 257
822.765625 1839 m 257
 749.608398438 1638 l 257
 1240.60839844 1638 l 257
 1313.765625 1839 l 257
 822.765625 1839 l 257
1202.57519531 2083 m 257
 1041.70019531 1641 l 257
 1241.70019531 1641 l 257
 1402.57519531 2083 l 257
 1202.57519531 2083 l 257
EndSplineSet
EndChar

StartChar: uni0912
Encoding: 2322 2322 432
GlifName: uni0912
Width: 1024
VWidth: 0
Flags: W
LayerCount: 2
Fore
SplineSet
771.4609375 1548 m 257
 698.666992188 1348 l 257
 1195.66699219 1348 l 257
 1268.4609375 1548 l 257
 771.4609375 1548 l 257
745.508789062 1419 m 257
 229.03515625 0 l 257
 428.03515625 0 l 257
 944.508789062 1419 l 257
 745.508789062 1419 l 257
268.4609375 1548 m 257
 195.666992188 1348 l 257
 555.666992188 1348 l 257
 628.4609375 1548 l 257
 268.4609375 1548 l 257
454.4609375 1548 m 257
 -58.0087890625 140 l 257
 141.991210938 140 l 257
 654.4609375 1548 l 257
 454.4609375 1548 l 257
114.424804688 894 m 257
 41.2666015625 693 l 257
 575.266601562 693 l 257
 648.424804688 894 l 257
 114.424804688 894 l 257
-246.806640625 201 m 257
 -319.96484375 0 l 257
 91.03515625 0 l 257
 164.193359375 201 l 257
 -246.806640625 201 l 257
1007.87304688 1420 m 257
 491.03515625 0 l 257
 690.03515625 0 l 257
 1206.87304688 1420 l 257
 1007.87304688 1420 l 257
730.390625 2155 m 257
 614.284179688 1836 l 257
 812.284179688 1836 l 257
 928.390625 2155 l 257
 730.390625 2155 l 257
660.96484375 1967 m 257
 588.534179688 1768 l 257
 1271.53417969 1768 l 257
 1343.96484375 1967 l 257
 660.96484375 1967 l 257
1140.9609375 1956 m 257
 980.814453125 1516 l 257
 1181.81445312 1516 l 257
 1341.9609375 1956 l 257
 1140.9609375 1956 l 257
EndSplineSet
EndChar

StartChar: uni0913
Encoding: 2323 2323 433
GlifName: uni0913
Width: 1024
VWidth: 0
Flags: W
LayerCount: 2
Fore
SplineSet
806.712890625 1548 m 257
 733.918945312 1348 l 257
 1230.91894531 1348 l 257
 1303.71289062 1548 l 257
 806.712890625 1548 l 257
775.760742188 1419 m 257
 259.287109375 0 l 257
 458.287109375 0 l 257
 974.760742188 1419 l 257
 775.760742188 1419 l 257
303.712890625 1548 m 257
 230.918945312 1348 l 257
 590.918945312 1348 l 257
 663.712890625 1548 l 257
 303.712890625 1548 l 257
489.712890625 1548 m 257
 -22.7568359375 140 l 257
 177.243164062 140 l 257
 689.712890625 1548 l 257
 489.712890625 1548 l 257
149.676757812 894 m 257
 76.5185546875 693 l 257
 610.518554688 693 l 257
 683.676757812 894 l 257
 149.676757812 894 l 257
-206.5546875 201 m 257
 -279.712890625 0 l 257
 126.287109375 0 l 257
 199.4453125 201 l 257
 -206.5546875 201 l 257
1044.21679688 1423 m 257
 526.287109375 0 l 257
 725.287109375 0 l 257
 1243.21679688 1423 l 257
 1044.21679688 1423 l 257
997.786132812 1768 m 257
 1045.95605469 1458 l 257
 1256.71289062 1548 l 257
 1208.63574219 1861 l 257
 997.786132812 1768 l 257
EndSplineSet
EndChar

StartChar: uni0914
Encoding: 2324 2324 434
GlifName: uni0914
Width: 1024
VWidth: 0
Flags: W
LayerCount: 2
Fore
SplineSet
773.138671875 1548 m 257
 700.345703125 1348 l 257
 1197.34570312 1348 l 257
 1270.13867188 1548 l 257
 773.138671875 1548 l 257
742.1875 1419 m 257
 225.712890625 0 l 257
 424.712890625 0 l 257
 941.1875 1419 l 257
 742.1875 1419 l 257
270.138671875 1548 m 257
 197.345703125 1348 l 257
 557.345703125 1348 l 257
 630.138671875 1548 l 257
 270.138671875 1548 l 257
456.138671875 1548 m 257
 -56.330078125 140 l 257
 143.669921875 140 l 257
 656.138671875 1548 l 257
 456.138671875 1548 l 257
116.103515625 894 m 257
 42.9453125 693 l 257
 576.9453125 693 l 257
 650.103515625 894 l 257
 116.103515625 894 l 257
-233.12890625 201 m 257
 -306.287109375 0 l 257
 92.712890625 0 l 257
 165.87109375 201 l 257
 -233.12890625 201 l 257
1009.55078125 1420 m 257
 492.712890625 0 l 257
 691.712890625 0 l 257
 1208.55078125 1420 l 257
 1009.55078125 1420 l 257
657.662109375 1750 m 257
 864.138671875 1548 l 257
 1156.13867188 1548 l 257
 849.349609375 1903 l 257
 657.662109375 1750 l 257
1119.09179688 1949 m 257
 1026.67578125 1522 l 257
 1248.13867188 1548 l 257
 1330.28710938 1988 l 257
 1119.09179688 1949 l 257
EndSplineSet
EndChar

StartChar: uni0915
Encoding: 2325 2325 435
GlifName: uni0915
Width: 1024
VWidth: 0
Flags: W
LayerCount: 2
Fore
SplineSet
134.59375 1548 m 257
 61.798828125 1348 l 257
 1086.79882812 1348 l 257
 1159.59375 1548 l 257
 134.59375 1548 l 257
644.947265625 1516 m 257
 96.806640625 10 l 257
 296.806640625 10 l 257
 844.947265625 1516 l 257
 644.947265625 1516 l 257
77.693359375 1029 m 257
 4.53515625 828 l 257
 367.53515625 828 l 257
 440.693359375 1029 l 257
 77.693359375 1029 l 257
63.134765625 989 m 257
 -135.59375 443 l 257
 62.40625 443 l 257
 261.134765625 989 l 257
 63.134765625 989 l 257
-43.34375 647 m 257
 -117.59375 443 l 257
 308.40625 443 l 257
 382.65625 647 l 257
 -43.34375 647 l 257
517.27734375 874 m 257
 444.84765625 675 l 257
 750.84765625 675 l 257
 823.27734375 874 l 257
 517.27734375 874 l 257
674.27734375 874 m 257
 567.998046875 582 l 257
 766.998046875 582 l 257
 873.27734375 874 l 257
 674.27734375 874 l 257
EndSplineSet
EndChar

StartChar: uni0915_uni0930_uni094D.vatu
Encoding: 65536 -1 436
GlifName: uni0915_uni0930_uni094D_.vatu
Width: 1024
VWidth: 0
Flags: W
LayerCount: 2
Fore
SplineSet
248.212890625 1548 m 257
 175.0546875 1347 l 257
 1191.0546875 1347 l 257
 1264.21289062 1548 l 257
 248.212890625 1548 l 257
758.56640625 1516 m 257
 210.426757812 10 l 257
 410.426757812 10 l 257
 958.56640625 1516 l 257
 758.56640625 1516 l 257
191.3125 1029 m 257
 118.154296875 828 l 257
 600.154296875 828 l 257
 673.3125 1029 l 257
 191.3125 1029 l 257
179.75390625 989 m 257
 -18.9736328125 443 l 257
 179.026367188 443 l 257
 377.75390625 989 l 257
 179.75390625 989 l 257
68.8203125 643 m 257
 -5.4296875 439 l 257
 420.5703125 439 l 257
 494.8203125 643 l 257
 68.8203125 643 l 257
630.897460938 874 m 257
 558.466796875 675 l 257
 864.466796875 675 l 257
 936.897460938 874 l 257
 630.897460938 874 l 257
789.716796875 879 m 257
 683.4375 587 l 257
 882.4375 587 l 257
 988.716796875 879 l 257
 789.716796875 879 l 257
-240.212890625 0 m 257
 16.787109375 0 l 257
 435.041015625 215 l 257
 508.198242188 416 l 257
 -240.212890625 0 l 257
EndSplineSet
Ligature2: "rkrfRakarVariantsinDevanagari2lookup0 subtable" uni0915 uni0930_uni094D.blwf
EndChar

StartChar: uni0915_uni094D.half
Encoding: 65537 -1 437
GlifName: uni0915_uni094D_.half
Width: 1024
VWidth: 0
Flags: W
LayerCount: 2
Fore
SplineSet
137.59375 1548 m 257
 64.435546875 1347 l 257
 1080.43554688 1347 l 257
 1153.59375 1548 l 257
 137.59375 1548 l 257
647.947265625 1516 m 257
 99.806640625 10 l 257
 299.806640625 10 l 257
 847.947265625 1516 l 257
 647.947265625 1516 l 257
80.693359375 1029 m 257
 7.53515625 828 l 257
 489.53515625 828 l 257
 562.693359375 1029 l 257
 80.693359375 1029 l 257
69.134765625 989 m 257
 -129.59375 443 l 257
 68.40625 443 l 257
 267.134765625 989 l 257
 69.134765625 989 l 257
-41.798828125 643 m 257
 -116.048828125 439 l 257
 309.951171875 439 l 257
 384.201171875 643 l 257
 -41.798828125 643 l 257
520.27734375 874 m 257
 447.84765625 675 l 257
 832.84765625 675 l 257
 905.27734375 874 l 257
 520.27734375 874 l 257
EndSplineSet
Ligature2: "halfHalfFormsinDevanagari2lookup0 subtable" uni0915 uni094D
EndChar

StartChar: uni0915_uni094D.haln
Encoding: 65538 -1 438
GlifName: uni0915_uni094D_.haln
Width: 1024
VWidth: 0
Flags: W
LayerCount: 2
Fore
SplineSet
147.370117188 1548 m 257
 37.046875 1348 l 257
 1062.046875 1348 l 257
 1172.37011719 1548 l 257
 147.370117188 1548 l 257
651.71875 1516 m 257
 -179.01171875 10 l 257
 20.98828125 10 l 257
 851.71875 1516 l 257
 651.71875 1516 l 257
-6.9169921875 1029 m 257
 -117.791015625 828 l 257
 245.208984375 828 l 257
 356.083007812 1029 l 257
 -6.9169921875 1029 l 257
-28.9814453125 989 m 257
 -330.163085938 443 l 257
 -132.163085938 443 l 257
 169.018554688 989 l 257
 -28.9814453125 989 l 257
-199.633789062 647 m 257
 -312.163085938 443 l 257
 113.836914062 443 l 257
 226.366210938 647 l 257
 -199.633789062 647 l 257
403.58203125 874 m 257
 293.811523438 675 l 257
 599.811523438 675 l 257
 709.58203125 874 l 257
 403.58203125 874 l 257
560.58203125 874 m 257
 399.51171875 582 l 257
 598.51171875 582 l 257
 759.58203125 874 l 257
 560.58203125 874 l 257
12.6884765625 -22 m 257
 -95.427734375 -218 l 257
 261.572265625 -218 l 257
 369.688476562 -22 l 257
 12.6884765625 -22 l 257
139.879882812 -183 m 257
 253.475585938 -588 l 257
 487.388671875 -425 l 257
 372.240234375 -21 l 257
 139.879882812 -183 l 257
EndSplineSet
Ligature2: "halnHalantFormsinDevanagari2lookup0 subtable" uni0915 uni094D
EndChar

StartChar: uni0915_uni094D_uni0937.akhn
Encoding: 65539 -1 439
GlifName: uni0915_uni094D__uni0937.akhn
Width: 1024
VWidth: 0
Flags: W
LayerCount: 2
Fore
SplineSet
837.50390625 1548 m 257
 765.80078125 1351 l 257
 1124.80078125 1351 l 257
 1196.50390625 1548 l 257
 837.50390625 1548 l 257
881.037109375 1511 m 257
 331.078125 0 l 257
 530.078125 0 l 257
 1080.03710938 1511 l 257
 881.037109375 1511 l 257
49.4375 1078 m 257
 -23.357421875 878 l 257
 849.642578125 878 l 257
 922.4375 1078 l 257
 49.4375 1078 l 257
28.419921875 1023 m 257
 229.419921875 1023 l 257
 374.642578125 1422 l 257
 173.642578125 1422 l 257
 28.419921875 1023 l 257
179.375 1435 m 257
 106.580078125 1235 l 257
 625.580078125 1235 l 257
 698.375 1435 l 257
 179.375 1435 l 257
494.642578125 1422 m 257
 298.099609375 882 l 257
 496.099609375 882 l 257
 692.642578125 1422 l 257
 494.642578125 1422 l 257
-1.80078125 635 m 257
 195.19921875 635 l 257
 494.37109375 880 l 257
 296.37109375 880 l 257
 -1.80078125 635 l 257
-1.80078125 635 m 257
 -160.12890625 200 l 257
 38.87109375 200 l 257
 197.19921875 635 l 257
 -1.80078125 635 l 257
-99.345703125 367 m 257
 -172.50390625 166 l 257
 551.49609375 166 l 257
 624.654296875 367 l 257
 -99.345703125 367 l 257
EndSplineSet
Ligature2: "akhnAkhandinDevanagari2lookup0 subtable" uni0915 uni094D uni0937
EndChar

StartChar: uni0915_uni094D_uni0937.half
Encoding: 65540 -1 440
GlifName: uni0915_uni094D__uni0937.half
Width: 1024
VWidth: 0
Flags: W
LayerCount: 2
Fore
SplineSet
837.50390625 1548 m 257
 765.80078125 1351 l 257
 1124.80078125 1351 l 257
 1196.50390625 1548 l 257
 837.50390625 1548 l 257
49.4375 1078 m 257
 -23.357421875 878 l 257
 1049.64257812 878 l 257
 1122.4375 1078 l 257
 49.4375 1078 l 257
28.419921875 1023 m 257
 229.419921875 1023 l 257
 374.642578125 1422 l 257
 173.642578125 1422 l 257
 28.419921875 1023 l 257
179.375 1435 m 257
 106.580078125 1235 l 257
 625.580078125 1235 l 257
 698.375 1435 l 257
 179.375 1435 l 257
494.642578125 1422 m 257
 298.099609375 882 l 257
 496.099609375 882 l 257
 692.642578125 1422 l 257
 494.642578125 1422 l 257
-1.80078125 635 m 257
 195.19921875 635 l 257
 494.37109375 880 l 257
 296.37109375 880 l 257
 -1.80078125 635 l 257
-1.80078125 635 m 257
 -160.12890625 200 l 257
 38.87109375 200 l 257
 197.19921875 635 l 257
 -1.80078125 635 l 257
-99.345703125 367 m 257
 -172.50390625 166 l 257
 751.49609375 166 l 257
 824.654296875 367 l 257
 -99.345703125 367 l 257
EndSplineSet
Ligature2: "halfHalfFormsinDevanagari2lookup0 subtable" uni0915_uni094D_uni0937.akhn uni094D
EndChar

StartChar: uni0915_uni094D_uni0937_uni094D
Encoding: 65541 -1 441
GlifName: uni0915_uni094D__uni0937_uni094D_
Width: 1024
VWidth: 0
Flags: W
LayerCount: 2
Fore
SplineSet
1089.0078125 1548 m 257
 945.602539062 1351 l 257
 1304.60253906 1351 l 257
 1448.0078125 1548 l 257
 1089.0078125 1548 l 257
1119.07421875 1511 m 257
 19.15625 0 l 257
 218.15625 0 l 257
 1318.07421875 1511 l 257
 1119.07421875 1511 l 257
129.875 1078 m 257
 -15.7138671875 878 l 257
 857.286132812 878 l 257
 1002.875 1078 l 257
 129.875 1078 l 257
88.8388671875 1023 m 257
 289.838867188 1023 l 257
 580.286132812 1422 l 257
 379.286132812 1422 l 257
 88.8388671875 1023 l 257
389.75 1435 m 257
 244.161132812 1235 l 257
 763.161132812 1235 l 257
 908.75 1435 l 257
 389.75 1435 l 257
700.286132812 1422 m 257
 307.19921875 882 l 257
 505.19921875 882 l 257
 898.286132812 1422 l 257
 700.286132812 1422 l 257
-82.6015625 635 m 257
 114.3984375 635 l 257
 502.743164062 880 l 257
 304.743164062 880 l 257
 -82.6015625 635 l 257
-82.6015625 635 m 257
 -399.256835938 200 l 257
 -200.256835938 200 l 257
 116.3984375 635 l 257
 -82.6015625 635 l 257
-277.690429688 367 m 257
 -424.006835938 166 l 257
 299.993164062 166 l 257
 446.309570312 367 l 257
 -277.690429688 367 l 257
1005.58105469 -22 m 257
 862.905273438 -218 l 257
 1219.90527344 -218 l 257
 1362.58105469 -22 l 257
 1005.58105469 -22 l 257
1104.38378906 -183 m 257
 1146.56738281 -588 l 257
 1409.22167969 -425 l 257
 1365.30957031 -21 l 257
 1104.38378906 -183 l 257
EndSplineSet
Ligature2: "halnHalantFormsinDevanagari2lookup0 subtable" uni0915_uni094D_uni0937.akhn uni094D
EndChar

StartChar: uni0916
Encoding: 2326 2326 442
GlifName: uni0916
Width: 1024
VWidth: 0
Flags: W
LayerCount: 2
Fore
SplineSet
205.974609375 1548 m 257
 133.544921875 1349 l 257
 1163.54492188 1349 l 257
 1235.97460938 1548 l 257
 205.974609375 1548 l 257
890.599609375 1514 m 257
 339.548828125 0 l 257
 539.548828125 0 l 257
 1090.59960938 1514 l 257
 890.599609375 1514 l 257
434.875 979 m 257
 362.08203125 779 l 257
 590.08203125 779 l 257
 662.875 979 l 257
 434.875 979 l 257
404.875 979 m 257
 214.8828125 457 l 257
 414.8828125 457 l 257
 604.875 979 l 257
 404.875 979 l 257
255.283203125 568 m 257
 182.490234375 368 l 257
 525.490234375 368 l 257
 598.283203125 568 l 257
 255.283203125 568 l 257
288.029296875 1441 m 257
 -192.775390625 120 l 257
 7.224609375 120 l 257
 488.029296875 1441 l 257
 288.029296875 1441 l 257
-74.296875 734 m 257
 -147.091796875 534 l 257
 156.908203125 534 l 257
 229.703125 734 l 257
 -74.296875 734 l 257
-139.1796875 270 m 257
 -211.974609375 70 l 257
 502.025390625 70 l 257
 574.8203125 270 l 257
 -139.1796875 270 l 257
EndSplineSet
EndChar

StartChar: uni0916_uni0930_uni094D.vatu
Encoding: 65542 -1 443
GlifName: uni0916_uni0930_uni094D_.vatu
Width: 1024
VWidth: 0
Flags: W
LayerCount: 2
Fore
SplineSet
-243.712890625 0 m 257
 13.287109375 0 l 257
 431.541015625 215 l 257
 504.698242188 416 l 257
 -243.712890625 0 l 257
237.712890625 1548 m 257
 165.283203125 1349 l 257
 1195.28320312 1349 l 257
 1267.71289062 1548 l 257
 237.712890625 1548 l 257
922.337890625 1514 m 257
 371.287109375 0 l 257
 571.287109375 0 l 257
 1122.33789062 1514 l 257
 922.337890625 1514 l 257
527.033203125 1145 m 257
 454.239257812 945 l 257
 682.239257812 945 l 257
 755.033203125 1145 l 257
 527.033203125 1145 l 257
497.033203125 1145 m 257
 307.041015625 623 l 257
 507.041015625 623 l 257
 697.033203125 1145 l 257
 497.033203125 1145 l 257
347.44140625 734 m 257
 274.647460938 534 l 257
 617.647460938 534 l 257
 690.44140625 734 l 257
 347.44140625 734 l 257
319.768554688 1441 m 257
 -100.6171875 286 l 257
 99.3828125 286 l 257
 519.768554688 1441 l 257
 319.768554688 1441 l 257
17.8603515625 900 m 257
 -54.93359375 700 l 257
 249.06640625 700 l 257
 321.860351562 900 l 257
 17.8603515625 900 l 257
-47.021484375 436 m 257
 -119.815429688 236 l 257
 594.184570312 236 l 257
 666.978515625 436 l 257
 -47.021484375 436 l 257
EndSplineSet
Ligature2: "rkrfRakarVariantsinDevanagari2lookup0 subtable" uni0916 uni0930_uni094D.blwf
EndChar

StartChar: uni0916_uni094D.half
Encoding: 65543 -1 444
GlifName: uni0916_uni094D_.half
Width: 1024
VWidth: 0
Flags: W
LayerCount: 2
Fore
SplineSet
108.974609375 1548 m 257
 36.544921875 1349 l 257
 1066.54492188 1349 l 257
 1138.97460938 1548 l 257
 108.974609375 1548 l 257
531.875 979 m 257
 459.08203125 779 l 257
 687.08203125 779 l 257
 759.875 979 l 257
 531.875 979 l 257
501.875 979 m 257
 311.8828125 457 l 257
 511.8828125 457 l 257
 701.875 979 l 257
 501.875 979 l 257
352.283203125 568 m 257
 279.490234375 368 l 257
 701.490234375 368 l 257
 774.283203125 568 l 257
 352.283203125 568 l 257
385.029296875 1441 m 257
 -95.775390625 120 l 257
 104.224609375 120 l 257
 585.029296875 1441 l 257
 385.029296875 1441 l 257
22.703125 734 m 257
 -50.091796875 534 l 257
 253.908203125 534 l 257
 326.703125 734 l 257
 22.703125 734 l 257
-42.1796875 270 m 257
 -114.974609375 70 l 257
 599.025390625 70 l 257
 671.8203125 270 l 257
 -42.1796875 270 l 257
EndSplineSet
Ligature2: "halfHalfFormsinDevanagari2lookup0 subtable" uni0916 uni094D
EndChar

StartChar: uni0916_uni094D.haln
Encoding: 65544 -1 445
GlifName: uni0916_uni094D_.haln
Width: 1024
VWidth: 0
Flags: W
LayerCount: 2
Fore
SplineSet
286.630859375 1548 m 257
 176.860351562 1349 l 257
 1206.86035156 1349 l 257
 1316.63085938 1548 l 257
 286.630859375 1548 l 257
964.875976562 1514 m 257
 129.733398438 0 l 257
 329.733398438 0 l 257
 1164.87597656 1514 l 257
 964.875976562 1514 l 257
408.762695312 979 m 257
 298.44140625 779 l 257
 526.44140625 779 l 257
 636.762695312 979 l 257
 408.762695312 979 l 257
378.762695312 979 m 257
 90.8203125 457 l 257
 290.8203125 457 l 257
 578.762695312 979 l 257
 378.762695312 979 l 257
152.049804688 568 m 257
 41.7275390625 368 l 257
 384.727539062 368 l 257
 495.049804688 568 l 257
 152.049804688 568 l 257
348.607421875 1441 m 257
 -380.073242188 120 l 257
 -180.073242188 120 l 257
 548.607421875 1441 l 257
 348.607421875 1441 l 257
-146.381835938 734 m 257
 -256.705078125 534 l 257
 47.294921875 534 l 257
 157.618164062 734 l 257
 -146.381835938 734 l 257
-298.331054688 270 m 257
 -408.654296875 70 l 257
 305.345703125 70 l 257
 415.668945312 270 l 257
 -298.331054688 270 l 257
-72.4326171875 -22 m 257
 -180.547851562 -218 l 257
 176.452148438 -218 l 257
 284.567382812 -22 l 257
 -72.4326171875 -22 l 257
54.7587890625 -183 m 257
 168.354492188 -588 l 257
 402.267578125 -425 l 257
 287.119140625 -21 l 257
 54.7587890625 -183 l 257
EndSplineSet
Ligature2: "halnHalantFormsinDevanagari2lookup0 subtable" uni0916 uni094D
EndChar

StartChar: uni0917
Encoding: 2327 2327 446
GlifName: uni0917
Width: 1024
VWidth: 0
Flags: W
LayerCount: 2
Fore
SplineSet
-45.0419921875 853 m 257
 153.958007812 853 l 257
 223.4765625 1044 l 257
 24.4765625 1044 l 257
 -45.0419921875 853 l 257
-34.4873046875 882 m 257
 -106.916992188 683 l 257
 369.083007812 683 l 257
 441.512695312 882 l 257
 -34.4873046875 882 l 257
484.916992188 1548 m 257
 217.03515625 812 l 257
 416.03515625 812 l 257
 683.916992188 1548 l 257
 484.916992188 1548 l 257
1130.91699219 1548 m 257
 366.916992188 1548 l 257
 294.123046875 1348 l 257
 1058.12304688 1348 l 257
 1130.91699219 1548 l 257
828.818359375 1523 m 257
 274.491210938 0 l 257
 473.491210938 0 l 257
 1027.81835938 1523 l 257
 828.818359375 1523 l 257
EndSplineSet
EndChar

StartChar: uni0917_uni0930_uni094D.vatu
Encoding: 65545 -1 447
GlifName: uni0917_uni0930_uni094D_.vatu
Width: 1024
VWidth: 0
Flags: W
LayerCount: 2
Fore
SplineSet
-199.212890625 0 m 257
 57.787109375 0 l 257
 476.041015625 215 l 257
 549.198242188 416 l 257
 -199.212890625 0 l 257
60.25390625 853 m 257
 259.25390625 853 l 257
 328.772460938 1044 l 257
 129.772460938 1044 l 257
 60.25390625 853 l 257
70.80859375 882 m 257
 -1.62109375 683 l 257
 474.37890625 683 l 257
 546.80859375 882 l 257
 70.80859375 882 l 257
590.212890625 1548 m 257
 322.331054688 812 l 257
 521.331054688 812 l 257
 789.212890625 1548 l 257
 590.212890625 1548 l 257
1223.21289062 1548 m 257
 472.212890625 1548 l 257
 399.418945312 1348 l 257
 1150.41894531 1348 l 257
 1223.21289062 1548 l 257
934.114257812 1523 m 257
 379.787109375 0 l 257
 578.787109375 0 l 257
 1133.11425781 1523 l 257
 934.114257812 1523 l 257
EndSplineSet
Ligature2: "rkrfRakarVariantsinDevanagari2lookup0 subtable" uni0917 uni0930_uni094D.blwf
EndChar

StartChar: uni0917_uni094D.half
Encoding: 65546 -1 448
GlifName: uni0917_uni094D_.half
Width: 1024
VWidth: 0
Flags: W
LayerCount: 2
Fore
SplineSet
-38.5419921875 853 m 257
 160.458007812 853 l 257
 229.9765625 1044 l 257
 30.9765625 1044 l 257
 -38.5419921875 853 l 257
-27.9873046875 882 m 257
 -100.416992188 683 l 257
 375.583007812 683 l 257
 448.012695312 882 l 257
 -27.9873046875 882 l 257
491.416992188 1548 m 257
 223.53515625 812 l 257
 422.53515625 812 l 257
 690.416992188 1548 l 257
 491.416992188 1548 l 257
1124.41699219 1548 m 257
 373.416992188 1548 l 257
 300.623046875 1348 l 257
 1051.62304688 1348 l 257
 1124.41699219 1548 l 257
EndSplineSet
Ligature2: "halfHalfFormsinDevanagari2lookup0 subtable" uni0917 uni094D
EndChar

StartChar: uni0917_uni094D.haln
Encoding: 65547 -1 449
GlifName: uni0917_uni094D_.haln
Width: 1024
VWidth: 0
Flags: W
LayerCount: 2
Fore
SplineSet
-206.354492188 853 m 257
 -7.3544921875 853 l 257
 98.00390625 1044 l 257
 -100.99609375 1044 l 257
 -206.354492188 853 l 257
-190.358398438 882 m 257
 -300.12890625 683 l 257
 175.87109375 683 l 257
 285.641601562 882 l 257
 -190.358398438 882 l 257
454.016601562 1548 m 257
 48.029296875 812 l 257
 247.029296875 812 l 257
 653.016601562 1548 l 257
 454.016601562 1548 l 257
1100.01660156 1548 m 257
 336.016601562 1548 l 257
 225.693359375 1348 l 257
 989.693359375 1348 l 257
 1100.01660156 1548 l 257
793.2265625 1523 m 257
 -46.880859375 0 l 257
 152.119140625 0 l 257
 992.2265625 1523 l 257
 793.2265625 1523 l 257
26.0078125 -22 m 257
 -82.1083984375 -218 l 257
 274.891601562 -218 l 257
 383.0078125 -22 l 257
 26.0078125 -22 l 257
153.198242188 -183 m 257
 266.794921875 -588 l 257
 500.708007812 -425 l 257
 385.559570312 -21 l 257
 153.198242188 -183 l 257
EndSplineSet
Ligature2: "halnHalantFormsinDevanagari2lookup0 subtable" uni0917 uni094D
EndChar

StartChar: uni0918
Encoding: 2328 2328 450
GlifName: uni0918
Width: 1024
VWidth: 0
Flags: W
LayerCount: 2
Fore
SplineSet
145.258789062 1548 m 257
 72.46484375 1348 l 257
 1098.46484375 1348 l 257
 1171.25878906 1548 l 257
 145.258789062 1548 l 257
836.795898438 1522 m 257
 287.564453125 13 l 257
 487.564453125 13 l 257
 1036.79589844 1522 l 257
 836.795898438 1522 l 257
306.248046875 1515 m 257
 76.21875 883 l 257
 275.21875 883 l 257
 505.248046875 1515 l 257
 306.248046875 1515 l 257
182.59375 917 m 257
 109.799804688 717 l 257
 353.799804688 717 l 257
 426.59375 917 l 257
 182.59375 917 l 257
-68.46484375 469 m 257
 -141.258789062 269 l 257
 556.741210938 269 l 257
 629.53515625 469 l 257
 -68.46484375 469 l 257
-147.258789062 269 m 257
 51.7412109375 269 l 257
 231.90625 764 l 257
 32.90625 764 l 257
 -147.258789062 269 l 257
EndSplineSet
EndChar

StartChar: uni0918_uni0930_uni094D.vatu
Encoding: 65548 -1 451
GlifName: uni0918_uni0930_uni094D_.vatu
Width: 1024
VWidth: 0
Flags: W
LayerCount: 2
Fore
SplineSet
-217.3046875 0 m 257
 39.6953125 0 l 257
 457.94921875 215 l 257
 531.106445312 416 l 257
 -217.3046875 0 l 257
219.3046875 1554 m 257
 146.510742188 1354 l 257
 1168.51074219 1354 l 257
 1241.3046875 1554 l 257
 219.3046875 1554 l 257
908.658203125 1522 m 257
 359.426757812 13 l 257
 559.426757812 13 l 257
 1108.65820312 1522 l 257
 908.658203125 1522 l 257
378.110351562 1515 m 257
 148.081054688 883 l 257
 347.081054688 883 l 257
 577.110351562 1515 l 257
 378.110351562 1515 l 257
254.456054688 917 m 257
 181.662109375 717 l 257
 425.662109375 717 l 257
 498.456054688 917 l 257
 254.456054688 917 l 257
3.3974609375 469 m 257
 -69.396484375 269 l 257
 628.603515625 269 l 257
 701.397460938 469 l 257
 3.3974609375 469 l 257
-75.396484375 269 m 257
 123.603515625 269 l 257
 303.768554688 764 l 257
 104.768554688 764 l 257
 -75.396484375 269 l 257
EndSplineSet
Ligature2: "rkrfRakarVariantsinDevanagari2lookup0 subtable" uni0918 uni0930_uni094D.blwf
EndChar

StartChar: uni0918_uni094D.half
Encoding: 65549 -1 452
GlifName: uni0918_uni094D_.half
Width: 1024
VWidth: 0
Flags: W
LayerCount: 2
Fore
SplineSet
148.350585938 1554 m 257
 75.556640625 1354 l 257
 1097.55664062 1354 l 257
 1170.35058594 1554 l 257
 148.350585938 1554 l 257
307.15625 1515 m 257
 77.126953125 883 l 257
 276.126953125 883 l 257
 506.15625 1515 l 257
 307.15625 1515 l 257
183.501953125 917 m 257
 110.708007812 717 l 257
 354.708007812 717 l 257
 427.501953125 917 l 257
 183.501953125 917 l 257
-67.556640625 469 m 257
 -140.350585938 269 l 257
 694.649414062 269 l 257
 767.443359375 469 l 257
 -67.556640625 469 l 257
-146.350585938 269 m 257
 52.6494140625 269 l 257
 232.814453125 764 l 257
 33.814453125 764 l 257
 -146.350585938 269 l 257
EndSplineSet
Ligature2: "halfHalfFormsinDevanagari2lookup0 subtable" uni0918 uni094D
EndChar

StartChar: uni0918_uni094D.haln
Encoding: 65550 -1 453
GlifName: uni0918_uni094D_.haln
Width: 1024
VWidth: 0
Flags: W
LayerCount: 2
Fore
SplineSet
189.700195312 1548 m 257
 79.3779296875 1348 l 257
 1105.37792969 1348 l 257
 1215.70019531 1548 l 257
 189.700195312 1548 l 257
876.358398438 1522 m 257
 43.9736328125 13 l 257
 243.973632812 13 l 257
 1076.35839844 1522 l 257
 876.358398438 1522 l 257
344.497070312 1515 m 257
 -4.1220703125 883 l 257
 194.877929688 883 l 257
 543.497070312 1515 l 257
 344.497070312 1515 l 257
108.6328125 917 m 257
 -1.6904296875 717 l 257
 242.309570312 717 l 257
 352.6328125 917 l 257
 108.6328125 917 l 257
-226.490234375 469 m 257
 -336.8125 269 l 257
 361.1875 269 l 257
 471.509765625 469 l 257
 -226.490234375 469 l 257
-342.8125 269 m 257
 -143.8125 269 l 257
 129.235351562 764 l 257
 -69.7646484375 764 l 257
 -342.8125 269 l 257
20.34765625 -22 m 257
 -87.7685546875 -218 l 257
 269.231445312 -218 l 257
 377.34765625 -22 l 257
 20.34765625 -22 l 257
147.538085938 -183 m 257
 261.134765625 -588 l 257
 495.047851562 -425 l 257
 379.899414062 -21 l 257
 147.538085938 -183 l 257
EndSplineSet
Ligature2: "halnHalantFormsinDevanagari2lookup0 subtable" uni0918 uni094D
EndChar

StartChar: uni0919
Encoding: 2329 2329 454
GlifName: uni0919
Width: 1024
VWidth: 0
Flags: W
LayerCount: 2
Fore
SplineSet
225.212890625 1548 m 257
 153.146484375 1350 l 257
 1178.14648438 1350 l 257
 1250.21289062 1548 l 257
 225.212890625 1548 l 257
732.393554688 1543 m 257
 543.12890625 1023 l 257
 743.12890625 1023 l 257
 932.393554688 1543 l 257
 732.393554688 1543 l 257
808.014648438 1226 m 257
 334.014648438 1226 l 257
 260.12890625 1023 l 257
 734.12890625 1023 l 257
 808.014648438 1226 l 257
280.966796875 1083 m 257
 115.724609375 629 l 257
 320.724609375 629 l 257
 485.966796875 1083 l 257
 280.966796875 1083 l 257
185.243164062 820 m 257
 112.448242188 620 l 257
 673.448242188 620 l 257
 746.243164062 820 l 257
 185.243164062 820 l 257
495.287109375 680 m 257
 258.341796875 29 l 257
 458.341796875 29 l 257
 695.287109375 680 l 257
 495.287109375 680 l 257
-153.0546875 201 m 257
 -226.212890625 0 l 257
 448.787109375 0 l 257
 521.9453125 201 l 257
 -153.0546875 201 l 257
-72.25390625 423 m 257
 -223.30078125 8 l 257
 -22.30078125 8 l 257
 128.74609375 423 l 257
 -72.25390625 423 l 257
852.224609375 1037 m 257
 798.720703125 890 l 257
 955.720703125 890 l 257
 1009.22460938 1037 l 257
 852.224609375 1037 l 257
EndSplineSet
EndChar

StartChar: uni0919_uni0930_uni094D.vatu
Encoding: 65551 -1 455
GlifName: uni0919_uni0930_uni094D_.vatu
Width: 1024
VWidth: 0
Flags: W
LayerCount: 2
Fore
SplineSet
121.869140625 112 m 257
 207.560546875 -268 l 257
 489.560546875 -268 l 257
 305.380859375 281 l 257
 121.869140625 112 l 257
305.380859375 281 m 257
 -304.71484375 -277 l 257
 -83.71484375 -277 l 257
 360.326171875 116 l 257
 305.380859375 281 l 257
306.71484375 1554 m 257
 233.919921875 1354 l 257
 1255.91992188 1354 l 257
 1328.71484375 1554 l 257
 306.71484375 1554 l 257
811.7109375 1543 m 257
 646.10546875 1088 l 257
 846.10546875 1088 l 257
 1011.7109375 1543 l 257
 811.7109375 1543 l 257
909.8984375 1288 m 257
 435.8984375 1288 l 257
 363.10546875 1088 l 257
 837.10546875 1088 l 257
 909.8984375 1288 l 257
382.8515625 1145 m 257
 217.609375 691 l 257
 422.609375 691 l 257
 587.8515625 1145 l 257
 382.8515625 1145 l 257
287.126953125 882 m 257
 214.33203125 682 l 257
 775.33203125 682 l 257
 848.126953125 882 l 257
 287.126953125 882 l 257
597.169921875 742 m 257
 447.580078125 331 l 257
 647.580078125 331 l 257
 797.169921875 742 l 257
 597.169921875 742 l 257
36.181640625 503 m 257
 -36.9765625 302 l 257
 638.0234375 302 l 257
 711.181640625 503 l 257
 36.181640625 503 l 257
85.681640625 639 m 257
 -34.064453125 310 l 257
 166.935546875 310 l 257
 286.681640625 639 l 257
 85.681640625 639 l 257
954.107421875 1099 m 257
 900.60546875 952 l 257
 1057.60546875 952 l 257
 1111.10742188 1099 l 257
 954.107421875 1099 l 257
EndSplineSet
Ligature2: "rkrfRakarVariantsinDevanagari2lookup0 subtable" uni0919 uni0930_uni094D.blwf
EndChar

StartChar: uni0919_uni094D.half
Encoding: 65552 -1 456
GlifName: uni0919_uni094D_.half
Width: 1024
VWidth: 0
Flags: W
LayerCount: 2
Fore
SplineSet
203.0546875 1554 m 257
 130.260742188 1354 l 257
 1152.26074219 1354 l 257
 1225.0546875 1554 l 257
 203.0546875 1554 l 257
708.051757812 1543 m 257
 518.787109375 1023 l 257
 718.787109375 1023 l 257
 908.051757812 1543 l 257
 708.051757812 1543 l 257
783.672851562 1226 m 257
 309.672851562 1226 l 257
 235.787109375 1023 l 257
 709.787109375 1023 l 257
 783.672851562 1226 l 257
256.625 1083 m 257
 91.3828125 629 l 257
 296.3828125 629 l 257
 461.625 1083 l 257
 256.625 1083 l 257
160.901367188 820 m 257
 88.1064453125 620 l 257
 649.106445312 620 l 257
 721.901367188 820 l 257
 160.901367188 820 l 257
470.9453125 680 m 257
 283.5 165 l 257
 483.5 165 l 257
 670.9453125 680 l 257
 470.9453125 680 l 257
-127.896484375 337 m 257
 -201.0546875 136 l 257
 473.9453125 136 l 257
 547.103515625 337 l 257
 -127.896484375 337 l 257
-47.095703125 559 m 257
 -198.142578125 144 l 257
 2.857421875 144 l 257
 153.904296875 559 l 257
 -47.095703125 559 l 257
827.8828125 1037 m 257
 774.37890625 890 l 257
 931.37890625 890 l 257
 984.8828125 1037 l 257
 827.8828125 1037 l 257
-3.5361328125 55 m 257
 -198.874023438 -141 l 257
 158.125976562 -141 l 257
 353.463867188 55 l 257
 -3.5361328125 55 l 257
147.864257812 -106 m 257
 337.456054688 -511 l 257
 540.783203125 -348 l 257
 349.828125 56 l 257
 147.864257812 -106 l 257
EndSplineSet
Ligature2: "halfHalfFormsinDevanagari2lookup0 subtable" uni0919 uni094D
EndChar

StartChar: uni0919_uni094D.haln
Encoding: 65553 -1 457
GlifName: uni0919_uni094D_.haln
Width: 1024
VWidth: 0
Flags: W
LayerCount: 2
Fore
SplineSet
318.608398438 1548 m 257
 209.388671875 1350 l 257
 1234.38867188 1350 l 257
 1343.60839844 1548 l 257
 318.608398438 1548 l 257
824.850585938 1543 m 257
 538.01171875 1023 l 257
 738.01171875 1023 l 257
 1024.85058594 1543 l 257
 824.850585938 1543 l 257
840.989257812 1226 m 257
 366.989257812 1226 l 257
 255.01171875 1023 l 257
 729.01171875 1023 l 257
 840.989257812 1226 l 257
287.108398438 1083 m 257
 36.67578125 629 l 257
 241.67578125 629 l 257
 492.108398438 1083 l 257
 287.108398438 1083 l 257
142.034179688 820 m 257
 31.7109375 620 l 257
 592.7109375 620 l 257
 703.034179688 820 l 257
 142.034179688 820 l 257
425.80859375 680 m 257
 66.70703125 29 l 257
 266.70703125 29 l 257
 625.80859375 680 l 257
 425.80859375 680 l 257
-312.4140625 201 m 257
 -423.2890625 0 l 257
 251.7109375 0 l 257
 362.5859375 201 l 257
 -312.4140625 201 l 257
-189.95703125 423 m 257
 -418.875976562 8 l 257
 -217.875976562 8 l 257
 11.04296875 423 l 257
 -189.95703125 423 l 257
849.734375 1037 m 257
 768.647460938 890 l 257
 925.647460938 890 l 257
 1006.734375 1037 l 257
 849.734375 1037 l 257
-87.6923828125 -22 m 257
 -195.80859375 -218 l 257
 161.19140625 -218 l 257
 269.307617188 -22 l 257
 -87.6923828125 -22 l 257
39.498046875 -183 m 257
 153.094726562 -588 l 257
 387.0078125 -425 l 257
 271.859375 -21 l 257
 39.498046875 -183 l 257
EndSplineSet
Ligature2: "halnHalantFormsinDevanagari2lookup0 subtable" uni0919 uni094D
EndChar

StartChar: uni091A
Encoding: 2330 2330 458
GlifName: uni091A_
Width: 1024
VWidth: 0
Flags: W
LayerCount: 2
Fore
SplineSet
101.262695312 1548 m 257
 29.560546875 1351 l 257
 1054.56054688 1351 l 257
 1126.26269531 1548 l 257
 101.262695312 1548 l 257
739.083007812 1553 m 257
 173.836914062 0 l 257
 373.836914062 0 l 257
 939.083007812 1553 l 257
 739.083007812 1553 l 257
442.749023438 280 m 257
 515.54296875 480 l 257
 8.54296875 480 l 257
 -64.2509765625 280 l 257
 442.749023438 280 l 257
138.48046875 837 m 257
 -12.931640625 421 l 257
 187.068359375 421 l 257
 338.48046875 837 l 257
 138.48046875 837 l 257
-29.46875 991 m 257
 -102.262695312 791 l 257
 393.737304688 791 l 257
 466.53125 991 l 257
 -29.46875 991 l 257
EndSplineSet
EndChar

StartChar: uni091A_uni0930_uni094D.vatu
Encoding: 65554 -1 459
GlifName: uni091A__uni0930_uni094D_.vatu
Width: 1024
VWidth: 0
Flags: W
LayerCount: 2
Fore
SplineSet
-217.668945312 0 m 257
 39.3310546875 0 l 257
 457.584960938 215 l 257
 530.7421875 416 l 257
 -217.668945312 0 l 257
219.668945312 1556 m 257
 146.875 1356 l 257
 1168.875 1356 l 257
 1241.66894531 1556 l 257
 219.668945312 1556 l 257
854.577148438 1553 m 257
 289.331054688 0 l 257
 489.331054688 0 l 257
 1054.57714844 1553 l 257
 854.577148438 1553 l 257
558.243164062 280 m 257
 631.037109375 480 l 257
 124.037109375 480 l 257
 51.2431640625 280 l 257
 558.243164062 280 l 257
253.974609375 837 m 257
 102.5625 421 l 257
 302.5625 421 l 257
 453.974609375 837 l 257
 253.974609375 837 l 257
86.025390625 991 m 257
 13.2314453125 791 l 257
 509.231445312 791 l 257
 582.025390625 991 l 257
 86.025390625 991 l 257
EndSplineSet
Ligature2: "rkrfRakarVariantsinDevanagari2lookup0 subtable" uni091A uni0930_uni094D.blwf
EndChar

StartChar: uni091A_uni094D.half
Encoding: 65555 -1 460
GlifName: uni091A__uni094D_.half
Width: 1024
VWidth: 0
Flags: W
LayerCount: 2
Fore
SplineSet
104.21875 1556 m 257
 31.4248046875 1356 l 257
 1053.42480469 1356 l 257
 1126.21875 1556 l 257
 104.21875 1556 l 257
692.79296875 280 m 257
 765.586914062 480 l 257
 8.5869140625 480 l 257
 -64.20703125 280 l 257
 692.79296875 280 l 257
138.524414062 837 m 257
 -12.8876953125 421 l 257
 187.112304688 421 l 257
 338.524414062 837 l 257
 138.524414062 837 l 257
-29.4248046875 991 m 257
 -102.21875 791 l 257
 393.78125 791 l 257
 466.575195312 991 l 257
 -29.4248046875 991 l 257
EndSplineSet
Ligature2: "halfHalfFormsinDevanagari2lookup0 subtable" uni091A uni094D
EndChar

StartChar: uni091A_uni094D.haln
Encoding: 65556 -1 461
GlifName: uni091A__uni094D_.haln
Width: 1024
VWidth: 0
Flags: W
LayerCount: 2
Fore
SplineSet
125.13671875 1548 m 257
 16.4697265625 1351 l 257
 1041.46972656 1351 l 257
 1150.13671875 1548 l 257
 125.13671875 1548 l 257
763.895507812 1553 m 257
 -92.759765625 0 l 257
 107.240234375 0 l 257
 963.895507812 1553 l 257
 763.895507812 1553 l 257
228.692382812 280 m 257
 339.014648438 480 l 257
 -167.985351562 480 l 257
 -278.307617188 280 l 257
 228.692382812 280 l 257
28.9404296875 837 m 257
 -200.53125 421 l 257
 -0.53125 421 l 257
 228.940429688 837 l 257
 28.9404296875 837 l 257
-110.111328125 991 m 257
 -220.434570312 791 l 257
 275.565429688 791 l 257
 385.888671875 991 l 257
 -110.111328125 991 l 257
89.7890625 -22 m 257
 -18.3271484375 -218 l 257
 338.672851562 -218 l 257
 446.7890625 -22 l 257
 89.7890625 -22 l 257
216.979492188 -183 m 257
 330.576171875 -588 l 257
 564.489257812 -425 l 257
 449.340820312 -21 l 257
 216.979492188 -183 l 257
EndSplineSet
Ligature2: "halnHalantFormsinDevanagari2lookup0 subtable" uni091A uni094D
EndChar

StartChar: uni091B
Encoding: 2331 2331 462
GlifName: uni091B_
Width: 1024
VWidth: 0
Flags: W
LayerCount: 2
Fore
SplineSet
238.712890625 1548 m 257
 166.646484375 1350 l 257
 1192.64648438 1350 l 257
 1264.71289062 1548 l 257
 238.712890625 1548 l 257
519.573242188 1130 m 257
 178.573242188 1130 l 257
 106.143554688 931 l 257
 447.143554688 931 l 257
 519.573242188 1130 l 257
175.573242188 1130 m 257
 -23.154296875 584 l 257
 176.845703125 584 l 257
 375.573242188 1130 l 257
 175.573242188 1130 l 257
74.8642578125 639 m 257
 2.0703125 439 l 257
 252.0703125 439 l 257
 324.864257812 639 l 257
 74.8642578125 639 l 257
-61.275390625 493 m 257
 -240.712890625 0 l 257
 -40.712890625 0 l 257
 138.724609375 493 l 257
 -61.275390625 493 l 257
-168.283203125 199 m 257
 -240.712890625 0 l 257
 394.287109375 0 l 257
 466.716796875 199 l 257
 -168.283203125 199 l 257
195.470703125 6 m 257
 396.470703125 6 l 257
 945.702148438 1515 l 257
 744.702148438 1515 l 257
 195.470703125 6 l 257
700.8046875 1007 m 257
 628.375 808 l 257
 966.375 808 l 257
 1038.8046875 1007 l 257
 700.8046875 1007 l 257
787.212890625 868 m 257
 642.716796875 471 l 257
 843.716796875 471 l 257
 988.212890625 868 l 257
 787.212890625 868 l 257
EndSplineSet
EndChar

StartChar: uni091B_uni0930_uni094D.vatu
Encoding: 65557 -1 463
GlifName: uni091B__uni0930_uni094D_.vatu
Width: 1024
VWidth: 0
Flags: W
LayerCount: 2
Fore
SplineSet
-228.986328125 0 m 257
 28.013671875 0 l 257
 446.267578125 215 l 257
 519.423828125 416 l 257
 -228.986328125 0 l 257
230.986328125 1555 m 257
 158.193359375 1355 l 257
 1180.19335938 1355 l 257
 1252.98632812 1555 l 257
 230.986328125 1555 l 257
542.9609375 1206 m 257
 201.9609375 1206 l 257
 129.53125 1007 l 257
 470.53125 1007 l 257
 542.9609375 1206 l 257
198.9609375 1206 m 257
 31.53515625 746 l 257
 231.53515625 746 l 257
 398.9609375 1206 l 257
 198.9609375 1206 l 257
129.552734375 801 m 257
 56.759765625 601 l 257
 306.759765625 601 l 257
 379.552734375 801 l 257
 129.552734375 801 l 257
-6.5859375 655 m 257
 -159.818359375 234 l 257
 40.181640625 234 l 257
 193.4140625 655 l 257
 -6.5859375 655 l 257
-87.388671875 433 m 257
 -159.818359375 234 l 257
 475.181640625 234 l 257
 547.611328125 433 l 257
 -87.388671875 433 l 257
189.013671875 0 m 257
 390.013671875 0 l 257
 916.314453125 1446 l 257
 715.314453125 1446 l 257
 189.013671875 0 l 257
696.53125 1007 m 257
 624.1015625 808 l 257
 962.1015625 808 l 257
 1034.53125 1007 l 257
 696.53125 1007 l 257
782.939453125 868 m 257
 638.443359375 471 l 257
 839.443359375 471 l 257
 983.939453125 868 l 257
 782.939453125 868 l 257
EndSplineSet
Ligature2: "rkrfRakarVariantsinDevanagari2lookup0 subtable" uni091B uni0930_uni094D.blwf
EndChar

StartChar: uni091B_uni094D.half
Encoding: 65558 -1 464
GlifName: uni091B__uni094D_.half
Width: 1024
VWidth: 0
Flags: W
LayerCount: 2
Fore
SplineSet
113.986328125 1555 m 257
 41.193359375 1355 l 257
 1063.19335938 1355 l 257
 1135.98632812 1555 l 257
 113.986328125 1555 l 257
648.298828125 1130 m 257
 307.298828125 1130 l 257
 234.869140625 931 l 257
 575.869140625 931 l 257
 648.298828125 1130 l 257
304.298828125 1130 m 257
 105.572265625 584 l 257
 305.572265625 584 l 257
 504.298828125 1130 l 257
 304.298828125 1130 l 257
203.58984375 639 m 257
 130.796875 439 l 257
 380.796875 439 l 257
 453.58984375 639 l 257
 203.58984375 639 l 257
67.451171875 493 m 257
 -111.986328125 0 l 257
 88.013671875 0 l 257
 267.451171875 493 l 257
 67.451171875 493 l 257
-39.556640625 199 m 257
 -111.986328125 0 l 257
 573.013671875 0 l 257
 645.443359375 199 l 257
 -39.556640625 199 l 257
EndSplineSet
Ligature2: "halfHalfFormsinDevanagari2lookup0 subtable" uni091B uni094D
EndChar

StartChar: uni091B_uni094D.haln
Encoding: 65559 -1 465
GlifName: uni091B__uni094D_.haln
Width: 1024
VWidth: 0
Flags: W
LayerCount: 2
Fore
SplineSet
332.901367188 1548 m 257
 223.681640625 1350 l 257
 1249.68164062 1350 l 257
 1358.90136719 1548 l 257
 332.901367188 1548 l 257
535.327148438 1130 m 257
 194.327148438 1130 l 257
 84.556640625 931 l 257
 425.556640625 931 l 257
 535.327148438 1130 l 257
191.327148438 1130 m 257
 -109.853515625 584 l 257
 90.146484375 584 l 257
 391.327148438 1130 l 257
 191.327148438 1130 l 257
-1.5146484375 639 m 257
 -111.837890625 439 l 257
 138.162109375 439 l 257
 248.485351562 639 l 257
 -1.5146484375 639 l 257
-165.05078125 493 m 257
 -436.99609375 0 l 257
 -236.99609375 0 l 257
 34.94921875 493 l 257
 -165.05078125 493 l 257
-327.225585938 199 m 257
 -436.99609375 0 l 257
 198.00390625 0 l 257
 307.774414062 199 l 257
 -327.225585938 199 l 257
0.3134765625 6 m 257
 201.313476562 6 l 257
 1033.69824219 1515 l 257
 832.698242188 1515 l 257
 0.3134765625 6 l 257
693.478515625 1007 m 257
 583.708007812 808 l 257
 921.708007812 808 l 257
 1031.47851562 1007 l 257
 693.478515625 1007 l 257
753.803710938 868 m 257
 534.813476562 471 l 257
 735.813476562 471 l 257
 954.803710938 868 l 257
 753.803710938 868 l 257
-259.216796875 -13 m 257
 -367.33203125 -209 l 257
 -10.33203125 -209 l 257
 97.783203125 -13 l 257
 -259.216796875 -13 l 257
-132.025390625 -174 m 257
 -18.4287109375 -579 l 257
 215.483398438 -416 l 257
 100.3359375 -12 l 257
 -132.025390625 -174 l 257
EndSplineSet
Ligature2: "halnHalantFormsinDevanagari2lookup0 subtable" uni091B uni094D
EndChar

StartChar: uni091C
Encoding: 2332 2332 466
GlifName: uni091C_
Width: 1024
VWidth: 0
Flags: W
LayerCount: 2
Fore
SplineSet
193.423828125 1548 m 257
 120.630859375 1348 l 257
 1146.63085938 1348 l 257
 1219.42382812 1548 l 257
 193.423828125 1548 l 257
871.423828125 1548 m 257
 303.630859375 -12 l 257
 502.630859375 -12 l 257
 1070.42382812 1548 l 257
 871.423828125 1548 l 257
340.013671875 860 m 257
 268.310546875 663 l 257
 682.310546875 663 l 257
 754.013671875 860 l 257
 340.013671875 860 l 257
294.013671875 860 m 257
 131.318359375 413 l 257
 331.318359375 413 l 257
 494.013671875 860 l 257
 294.013671875 860 l 257
-122.630859375 567 m 257
 -195.423828125 367 l 257
 314.576171875 367 l 257
 387.369140625 567 l 257
 -122.630859375 567 l 257
-64.39453125 727 m 257
 -143.740234375 509 l 257
 56.259765625 509 l 257
 135.60546875 727 l 257
 -64.39453125 727 l 257
EndSplineSet
EndChar

StartChar: uni091C_uni0930_uni094D.vatu
Encoding: 65560 -1 467
GlifName: uni091C__uni0930_uni094D_.vatu
Width: 1024
VWidth: 0
Flags: W
LayerCount: 2
Fore
SplineSet
-217.212890625 0 m 257
 39.787109375 0 l 257
 458.041015625 215 l 257
 531.198242188 416 l 257
 -217.212890625 0 l 257
183.212890625 1548 m 257
 111.146484375 1350 l 257
 1169.14648438 1350 l 257
 1241.21289062 1548 l 257
 183.212890625 1548 l 257
895.212890625 1548 m 257
 327.419921875 -12 l 257
 526.419921875 -12 l 257
 1094.21289062 1548 l 257
 895.212890625 1548 l 257
363.801757812 860 m 257
 292.099609375 663 l 257
 706.099609375 663 l 257
 777.801757812 860 l 257
 363.801757812 860 l 257
317.801757812 860 m 257
 155.106445312 413 l 257
 355.106445312 413 l 257
 517.801757812 860 l 257
 317.801757812 860 l 257
-98.841796875 567 m 257
 -171.635742188 367 l 257
 338.364257812 367 l 257
 411.158203125 567 l 257
 -98.841796875 567 l 257
-40.6064453125 727 m 257
 -119.952148438 509 l 257
 80.0478515625 509 l 257
 159.393554688 727 l 257
 -40.6064453125 727 l 257
EndSplineSet
Ligature2: "rkrfRakarVariantsinDevanagari2lookup0 subtable" uni091C uni0930_uni094D.blwf
EndChar

StartChar: uni091C_uni094D.half
Encoding: 65561 -1 468
GlifName: uni091C__uni094D_.half
Width: 1024
VWidth: 0
Flags: W
LayerCount: 2
Fore
SplineSet
85.423828125 1548 m 257
 13.357421875 1350 l 257
 1071.35742188 1350 l 257
 1143.42382812 1548 l 257
 85.423828125 1548 l 257
416.013671875 860 m 257
 344.310546875 663 l 257
 858.310546875 663 l 257
 930.013671875 860 l 257
 416.013671875 860 l 257
370.013671875 860 m 257
 207.318359375 413 l 257
 407.318359375 413 l 257
 570.013671875 860 l 257
 370.013671875 860 l 257
-46.630859375 567 m 257
 -119.423828125 367 l 257
 390.576171875 367 l 257
 463.369140625 567 l 257
 -46.630859375 567 l 257
11.60546875 727 m 257
 -67.740234375 509 l 257
 132.259765625 509 l 257
 211.60546875 727 l 257
 11.60546875 727 l 257
EndSplineSet
Ligature2: "halfHalfFormsinDevanagari2lookup0 subtable" uni091C uni094D
EndChar

StartChar: uni091C_uni094D.haln
Encoding: 65562 -1 469
GlifName: uni091C__uni094D_.haln
Width: 1024
VWidth: 0
Flags: W
LayerCount: 2
Fore
SplineSet
220.030273438 1548 m 257
 109.708984375 1348 l 257
 1135.70898438 1348 l 257
 1246.03027344 1548 l 257
 220.030273438 1548 l 257
898.030273438 1548 m 257
 37.513671875 -12 l 257
 236.513671875 -12 l 257
 1097.03027344 1548 l 257
 898.030273438 1548 l 257
237.521484375 860 m 257
 128.852539062 663 l 257
 542.852539062 663 l 257
 651.521484375 860 l 257
 237.521484375 860 l 257
191.521484375 860 m 257
 -55.0498046875 413 l 257
 144.950195312 413 l 257
 391.521484375 860 l 257
 191.521484375 860 l 257
-280.102539062 567 m 257
 -390.423828125 367 l 257
 119.576171875 367 l 257
 229.897460938 567 l 257
 -280.102539062 567 l 257
-191.842773438 727 m 257
 -312.094726562 509 l 257
 -112.094726562 509 l 257
 8.1572265625 727 l 257
 -191.842773438 727 l 257
-93.4833984375 -22 m 257
 -201.599609375 -218 l 257
 155.400390625 -218 l 257
 263.516601562 -22 l 257
 -93.4833984375 -22 l 257
33.70703125 -183 m 257
 147.303710938 -588 l 257
 381.216796875 -425 l 257
 266.068359375 -21 l 257
 33.70703125 -183 l 257
EndSplineSet
Ligature2: "halnHalantFormsinDevanagari2lookup0 subtable" uni091C uni094D
EndChar

StartChar: uni091C_uni094D_uni091E.akhn
Encoding: 65563 -1 470
GlifName: uni091C__uni094D__uni091E_.akhn
Width: 1024
VWidth: 0
Flags: W
LayerCount: 2
Fore
SplineSet
160.423828125 1548 m 257
 88.357421875 1350 l 257
 1146.35742188 1350 l 257
 1218.42382812 1548 l 257
 160.423828125 1548 l 257
872.423828125 1548 m 257
 304.630859375 -12 l 257
 503.630859375 -12 l 257
 1071.42382812 1548 l 257
 872.423828125 1548 l 257
341.013671875 860 m 257
 269.310546875 663 l 257
 683.310546875 663 l 257
 755.013671875 860 l 257
 341.013671875 860 l 257
295.013671875 860 m 257
 132.318359375 413 l 257
 332.318359375 413 l 257
 495.013671875 860 l 257
 295.013671875 860 l 257
-121.630859375 567 m 257
 -194.423828125 367 l 257
 315.576171875 367 l 257
 388.369140625 567 l 257
 -121.630859375 567 l 257
-194.060546875 368 m 257
 -152.703125 75 l 257
 105.296875 75 l 257
 48.939453125 368 l 257
 -194.060546875 368 l 257
EndSplineSet
Ligature2: "akhnAkhandinDevanagari2lookup0 subtable" uni091C uni094D uni091E
EndChar

StartChar: uni091C_uni094D_uni091E.half
Encoding: 65564 -1 471
GlifName: uni091C__uni094D__uni091E_.half
Width: 1024
VWidth: 0
Flags: W
LayerCount: 2
Fore
SplineSet
62.423828125 1548 m 257
 -9.642578125 1350 l 257
 1048.35742188 1350 l 257
 1120.42382812 1548 l 257
 62.423828125 1548 l 257
439.013671875 860 m 257
 367.310546875 663 l 257
 781.310546875 663 l 257
 853.013671875 860 l 257
 439.013671875 860 l 257
393.013671875 860 m 257
 230.318359375 413 l 257
 430.318359375 413 l 257
 593.013671875 860 l 257
 393.013671875 860 l 257
-23.630859375 567 m 257
 -96.423828125 367 l 257
 413.576171875 367 l 257
 486.369140625 567 l 257
 -23.630859375 567 l 257
-96.060546875 368 m 257
 -54.703125 75 l 257
 203.296875 75 l 257
 146.939453125 368 l 257
 -96.060546875 368 l 257
EndSplineSet
Ligature2: "halfHalfFormsinDevanagari2lookup0 subtable" uni091C_uni094D_uni091E.akhn uni094D
EndChar

StartChar: uni091C_uni094D_uni091E_uni094D
Encoding: 65565 -1 472
GlifName: uni091C__uni094D__uni091E__uni094D_
Width: 1024
VWidth: 0
Flags: W
LayerCount: 2
Fore
SplineSet
219.310546875 1548 m 257
 110.090820312 1350 l 257
 1168.09082031 1350 l 257
 1277.31054688 1548 l 257
 219.310546875 1548 l 257
931.310546875 1548 m 257
 70.7939453125 -12 l 257
 269.793945312 -12 l 257
 1130.31054688 1548 l 257
 931.310546875 1548 l 257
270.801757812 860 m 257
 162.1328125 663 l 257
 576.1328125 663 l 257
 684.801757812 860 l 257
 270.801757812 860 l 257
224.801757812 860 m 257
 -21.7705078125 413 l 257
 178.229492188 413 l 257
 424.801757812 860 l 257
 224.801757812 860 l 257
-246.822265625 567 m 257
 -357.143554688 367 l 257
 152.856445312 367 l 257
 263.177734375 567 l 257
 -246.822265625 567 l 257
-356.592773438 368 m 257
 -370.21484375 75 l 257
 -112.21484375 75 l 257
 -113.592773438 368 l 257
 -356.592773438 368 l 257
936.797851562 -22 m 257
 828.681640625 -218 l 257
 1185.68164062 -218 l 257
 1293.79785156 -22 l 257
 936.797851562 -22 l 257
1063.98828125 -183 m 257
 1177.58496094 -588 l 257
 1411.49804688 -425 l 257
 1296.34960938 -21 l 257
 1063.98828125 -183 l 257
EndSplineSet
Ligature2: "halnHalantFormsinDevanagari2lookup0 subtable" uni091C_uni094D_uni091E.akhn uni094D
EndChar

StartChar: uni091D
Encoding: 2333 2333 473
GlifName: uni091D_
Width: 1024
VWidth: 0
Flags: W
LayerCount: 2
Fore
SplineSet
245.146484375 1548 m 257
 172.716796875 1349 l 257
 1198.71679688 1349 l 257
 1271.14648438 1548 l 257
 245.146484375 1548 l 257
924.146484375 1548 m 257
 360.720703125 0 l 257
 561.720703125 0 l 257
 1125.14648438 1548 l 257
 924.146484375 1548 l 257
688.142578125 1537 m 257
 501.0625 1023 l 257
 700.0625 1023 l 257
 887.142578125 1537 l 257
 688.142578125 1537 l 257
251.856445312 1223 m 257
 179.0625 1023 l 257
 700.0625 1023 l 257
 772.856445312 1223 l 257
 251.856445312 1223 l 257
201.627929688 1085 m 257
 43.6650390625 651 l 257
 243.665039062 651 l 257
 401.627929688 1085 l 257
 201.627929688 1085 l 257
111.364257812 837 m 257
 38.93359375 638 l 257
 787.93359375 638 l 257
 860.364257812 837 l 257
 111.364257812 837 l 257
351.224609375 691 m 257
 102.268554688 7 l 257
 302.268554688 7 l 257
 551.224609375 691 l 257
 351.224609375 691 l 257
-120.485351562 200 m 257
 -193.279296875 0 l 257
 299.720703125 0 l 257
 372.514648438 200 l 257
 -120.485351562 200 l 257
-170.349609375 63 m 257
 -247.146484375 -148 l 257
 -47.146484375 -148 l 257
 29.650390625 63 l 257
 -170.349609375 63 l 257
EndSplineSet
EndChar

StartChar: uni091D_uni0930_uni094D.vatu
Encoding: 65566 -1 474
GlifName: uni091D__uni0930_uni094D_.vatu
Width: 1024
VWidth: 0
Flags: W
LayerCount: 2
Fore
SplineSet
100.787109375 0 m 257
 266.787109375 0 l 257
 578.041015625 215 l 257
 678.1328125 490 l 257
 100.787109375 0 l 257
255.212890625 1548 m 257
 182.783203125 1349 l 257
 1223.78320312 1349 l 257
 1296.21289062 1548 l 257
 255.212890625 1548 l 257
1009.20898438 1537 m 257
 447.966796875 -5 l 257
 648.966796875 -5 l 257
 1210.20898438 1537 l 257
 1009.20898438 1537 l 257
716.208984375 1537 m 257
 529.12890625 1023 l 257
 728.12890625 1023 l 257
 915.208984375 1537 l 257
 716.208984375 1537 l 257
279.922851562 1223 m 257
 207.12890625 1023 l 257
 728.12890625 1023 l 257
 800.922851562 1223 l 257
 279.922851562 1223 l 257
195.102539062 1218 m 257
 -11.2685546875 651 l 257
 188.731445312 651 l 257
 395.102539062 1218 l 257
 195.102539062 1218 l 257
143.797851562 849 m 257
 71.3681640625 650 l 257
 820.368164062 650 l 257
 892.797851562 849 l 257
 143.797851562 849 l 257
182.291015625 691 m 257
 -15.708984375 147 l 257
 184.291015625 147 l 257
 382.291015625 691 l 257
 182.291015625 691 l 257
-144.823242188 350 m 257
 -218.708984375 147 l 257
 163.291015625 147 l 257
 237.176757812 350 l 257
 -144.823242188 350 l 257
-195.779296875 210 m 257
 -272.212890625 0 l 257
 -72.212890625 0 l 257
 4.220703125 210 l 257
 -195.779296875 210 l 257
EndSplineSet
Ligature2: "rkrfRakarVariantsinDevanagari2lookup0 subtable" uni091D uni0930_uni094D.blwf
EndChar

StartChar: uni091D_uni094D.half
Encoding: 65567 -1 475
GlifName: uni091D__uni094D_.half
Width: 1024
VWidth: 0
Flags: W
LayerCount: 2
Fore
SplineSet
228.646484375 1548 m 257
 156.216796875 1349 l 257
 1197.21679688 1349 l 257
 1269.64648438 1548 l 257
 228.646484375 1548 l 257
689.642578125 1537 m 257
 502.5625 1023 l 257
 701.5625 1023 l 257
 888.642578125 1537 l 257
 689.642578125 1537 l 257
253.356445312 1223 m 257
 180.5625 1023 l 257
 701.5625 1023 l 257
 774.356445312 1223 l 257
 253.356445312 1223 l 257
203.127929688 1085 m 257
 45.1650390625 651 l 257
 245.165039062 651 l 257
 403.127929688 1085 l 257
 203.127929688 1085 l 257
112.864257812 837 m 257
 40.43359375 638 l 257
 989.43359375 638 l 257
 1061.86425781 837 l 257
 112.864257812 837 l 257
352.724609375 691 m 257
 103.768554688 7 l 257
 303.768554688 7 l 257
 552.724609375 691 l 257
 352.724609375 691 l 257
-117.893554688 203 m 257
 -191.779296875 0 l 257
 301.220703125 0 l 257
 375.106445312 203 l 257
 -117.893554688 203 l 257
-168.849609375 63 m 257
 -245.646484375 -148 l 257
 -45.646484375 -148 l 257
 31.150390625 63 l 257
 -168.849609375 63 l 257
EndSplineSet
Ligature2: "halfHalfFormsinDevanagari2lookup0 subtable" uni091D uni094D
EndChar

StartChar: uni091D_uni094D.haln
Encoding: 65568 -1 476
GlifName: uni091D__uni094D_.haln
Width: 1024
VWidth: 0
Flags: W
LayerCount: 2
Fore
SplineSet
365.475585938 1548 m 257
 255.705078125 1349 l 257
 1281.70507812 1349 l 257
 1391.47558594 1548 l 257
 365.475585938 1548 l 257
1044.47558594 1548 m 257
 190.579101562 0 l 257
 391.579101562 0 l 257
 1245.47558594 1548 l 257
 1044.47558594 1548 l 257
806.408203125 1537 m 257
 522.87890625 1023 l 257
 721.87890625 1023 l 257
 1005.40820312 1537 l 257
 806.408203125 1537 l 257
311.202148438 1223 m 257
 200.87890625 1023 l 257
 721.87890625 1023 l 257
 832.202148438 1223 l 257
 311.202148438 1223 l 257
235.078125 1085 m 257
 -4.3212890625 651 l 257
 195.678710938 651 l 257
 435.078125 1085 l 257
 235.078125 1085 l 257
98.279296875 837 m 257
 -11.4921875 638 l 257
 737.5078125 638 l 257
 847.279296875 837 l 257
 98.279296875 837 l 257
310.744140625 691 m 257
 -66.5595703125 7 l 257
 133.440429688 7 l 257
 510.744140625 691 l 257
 310.744140625 691 l 257
-253.098632812 200 m 257
 -363.420898438 0 l 257
 129.579101562 0 l 257
 239.901367188 200 l 257
 -253.098632812 200 l 257
-328.669921875 63 m 257
 -445.059570312 -148 l 257
 -245.059570312 -148 l 257
 -128.669921875 63 l 257
 -328.669921875 63 l 257
-101.762695312 -22 m 257
 -209.877929688 -218 l 257
 147.122070312 -218 l 257
 255.237304688 -22 l 257
 -101.762695312 -22 l 257
25.4287109375 -183 m 257
 139.024414062 -588 l 257
 372.9375 -425 l 257
 257.7890625 -21 l 257
 25.4287109375 -183 l 257
EndSplineSet
Ligature2: "halnHalantFormsinDevanagari2lookup0 subtable" uni091D uni094D
EndChar

StartChar: uni091E
Encoding: 2334 2334 477
GlifName: uni091E_
Width: 1024
VWidth: 0
Flags: W
LayerCount: 2
Fore
SplineSet
202.896484375 1548 m 257
 130.103515625 1348 l 257
 1156.10351562 1348 l 257
 1228.89648438 1548 l 257
 202.896484375 1548 l 257
933.892578125 1537 m 257
 371.55859375 -8 l 257
 571.55859375 -8 l 257
 1133.89257812 1537 l 257
 933.892578125 1537 l 257
372.716796875 737 m 257
 299.923828125 537 l 257
 666.923828125 537 l 257
 739.716796875 737 l 257
 372.716796875 737 l 257
72.8828125 960 m 257
 0.087890625 760 l 257
 358.087890625 760 l 257
 430.8828125 960 l 257
 72.8828125 960 l 257
399.8828125 960 m 257
 165.486328125 316 l 257
 365.486328125 316 l 257
 599.8828125 960 l 257
 399.8828125 960 l 257
-132.1015625 460 m 257
 -204.896484375 260 l 257
 345.103515625 260 l 257
 417.8984375 460 l 257
 -132.1015625 460 l 257
EndSplineSet
EndChar

StartChar: uni091E_uni0930_uni094D.vatu
Encoding: 65569 -1 478
GlifName: uni091E__uni0930_uni094D_.vatu
Width: 1024
VWidth: 0
Flags: W
LayerCount: 2
Fore
SplineSet
-200.212890625 0 m 257
 56.787109375 0 l 257
 463.029296875 182 l 257
 536.1875 383 l 257
 -200.212890625 0 l 257
190.212890625 1548 m 257
 117.418945312 1348 l 257
 1151.41894531 1348 l 257
 1224.21289062 1548 l 257
 190.212890625 1548 l 257
926.208984375 1537 m 257
 363.875 -8 l 257
 563.875 -8 l 257
 1126.20898438 1537 l 257
 926.208984375 1537 l 257
365.033203125 737 m 257
 292.239257812 537 l 257
 659.239257812 537 l 257
 732.033203125 737 l 257
 365.033203125 737 l 257
65.1982421875 960 m 257
 -7.595703125 760 l 257
 350.404296875 760 l 257
 423.198242188 960 l 257
 65.1982421875 960 l 257
392.198242188 960 m 257
 157.801757812 316 l 257
 357.801757812 316 l 257
 592.198242188 960 l 257
 392.198242188 960 l 257
-121.587890625 510 m 257
 -194.381835938 310 l 257
 355.618164062 310 l 257
 428.412109375 510 l 257
 -121.587890625 510 l 257
EndSplineSet
Ligature2: "rkrfRakarVariantsinDevanagari2lookup0 subtable" uni091E uni0930_uni094D.blwf
EndChar

StartChar: uni091E_uni094D.half
Encoding: 65570 -1 479
GlifName: uni091E__uni094D_.half
Width: 1024
VWidth: 0
Flags: W
LayerCount: 2
Fore
SplineSet
96.396484375 1548 m 257
 23.603515625 1348 l 257
 1057.60351562 1348 l 257
 1130.39648438 1548 l 257
 96.396484375 1548 l 257
471.216796875 737 m 257
 398.423828125 537 l 257
 765.423828125 537 l 257
 838.216796875 737 l 257
 471.216796875 737 l 257
171.3828125 960 m 257
 98.587890625 760 l 257
 456.587890625 760 l 257
 529.3828125 960 l 257
 171.3828125 960 l 257
498.3828125 960 m 257
 263.986328125 316 l 257
 463.986328125 316 l 257
 698.3828125 960 l 257
 498.3828125 960 l 257
-33.6015625 460 m 257
 -106.396484375 260 l 257
 443.603515625 260 l 257
 516.3984375 460 l 257
 -33.6015625 460 l 257
EndSplineSet
Ligature2: "halfHalfFormsinDevanagari2lookup0 subtable" uni091E uni094D
EndChar

StartChar: uni091E_uni094D.haln
Encoding: 65571 -1 480
GlifName: uni091E__uni094D_.haln
Width: 1024
VWidth: 0
Flags: W
LayerCount: 2
Fore
SplineSet
248.975585938 1548 m 257
 138.654296875 1348 l 257
 1164.65429688 1348 l 257
 1274.97558594 1548 l 257
 248.975585938 1548 l 257
977.908203125 1537 m 257
 125.665039062 -8 l 257
 325.665039062 -8 l 257
 1177.90820312 1537 l 257
 977.908203125 1537 l 257
266.618164062 737 m 257
 156.295898438 537 l 257
 523.295898438 537 l 257
 633.618164062 737 l 257
 266.618164062 737 l 257
8.6279296875 960 m 257
 -101.6953125 760 l 257
 256.3046875 760 l 257
 366.627929688 960 l 257
 8.6279296875 960 l 257
335.627929688 960 m 257
 -19.6103515625 316 l 257
 180.389648438 316 l 257
 535.627929688 960 l 257
 335.627929688 960 l 257
-290.177734375 460 m 257
 -400.500976562 260 l 257
 149.499023438 260 l 257
 259.822265625 460 l 257
 -290.177734375 460 l 257
-93.0126953125 -22 m 257
 -201.127929688 -218 l 257
 155.872070312 -218 l 257
 263.987304688 -22 l 257
 -93.0126953125 -22 l 257
34.1787109375 -183 m 257
 147.774414062 -588 l 257
 381.6875 -425 l 257
 266.5390625 -21 l 257
 34.1787109375 -183 l 257
EndSplineSet
Ligature2: "halnHalantFormsinDevanagari2lookup0 subtable" uni091E uni094D
EndChar

StartChar: uni091F
Encoding: 2335 2335 481
GlifName: uni091F_
Width: 1024
VWidth: 0
Flags: W
LayerCount: 2
Fore
SplineSet
242.212890625 1548 m 257
 169.783203125 1349 l 257
 1183.78320312 1349 l 257
 1256.21289062 1548 l 257
 242.212890625 1548 l 257
793.93359375 1528 m 257
 597.389648438 988 l 257
 797.389648438 988 l 257
 993.93359375 1528 l 257
 793.93359375 1528 l 257
810.12890625 1023 m 257
 161.12890625 1023 l 257
 87.970703125 822 l 257
 736.970703125 822 l 257
 810.12890625 1023 l 257
140.12890625 1023 m 257
 -230.392578125 5 l 257
 -30.392578125 5 l 257
 340.12890625 1023 l 257
 140.12890625 1023 l 257
-159.0546875 201 m 257
 -232.212890625 0 l 257
 480.787109375 0 l 257
 553.9453125 201 l 257
 -159.0546875 201 l 257
EndSplineSet
EndChar

StartChar: uni091F_uni0930_uni094D.vatu
Encoding: 65572 -1 482
GlifName: uni091F__uni0930_uni094D_.vatu
Width: 1024
VWidth: 0
Flags: W
LayerCount: 2
Fore
SplineSet
174.841796875 213 m 257
 260.533203125 -167 l 257
 542.533203125 -167 l 257
 358.353515625 382 l 257
 174.841796875 213 l 257
358.353515625 382 m 257
 -251.7421875 -176 l 257
 -30.7421875 -176 l 257
 413.297851562 217 l 257
 358.353515625 382 l 257
249.7421875 1548 m 257
 176.948242188 1348 l 257
 1202.94824219 1348 l 257
 1275.7421875 1548 l 257
 249.7421875 1548 l 257
801.462890625 1528 m 257
 632.581054688 1064 l 257
 832.581054688 1064 l 257
 1001.46289062 1528 l 257
 801.462890625 1528 l 257
845.319335938 1099 m 257
 196.319335938 1099 l 257
 123.162109375 898 l 257
 772.162109375 898 l 257
 845.319335938 1099 l 257
175.68359375 1100 m 257
 -77.275390625 405 l 257
 122.724609375 405 l 257
 375.68359375 1100 l 257
 175.68359375 1100 l 257
-5.9375 601 m 257
 -79.095703125 400 l 257
 633.904296875 400 l 257
 707.0625 601 l 257
 -5.9375 601 l 257
EndSplineSet
Ligature2: "rkrfRakarVariantsinDevanagari2lookup0 subtable" uni091F uni0930_uni094D.blwf
EndChar

StartChar: uni091F_uni094D.haln
Encoding: 65573 -1 483
GlifName: uni091F__uni094D_.haln
Width: 1024
VWidth: 0
Flags: W
LayerCount: 2
Fore
SplineSet
335.608398438 1548 m 257
 225.837890625 1349 l 257
 1239.83789062 1349 l 257
 1349.60839844 1548 l 257
 335.608398438 1548 l 257
883.576171875 1528 m 257
 585.705078125 988 l 257
 785.705078125 988 l 257
 1083.57617188 1528 l 257
 883.576171875 1528 l 257
805.01171875 1023 m 257
 156.01171875 1023 l 257
 45.1376953125 822 l 257
 694.137695312 822 l 257
 805.01171875 1023 l 257
135.01171875 1023 m 257
 -426.530273438 5 l 257
 -226.530273438 5 l 257
 335.01171875 1023 l 257
 135.01171875 1023 l 257
-318.4140625 201 m 257
 -429.2890625 0 l 257
 283.7109375 0 l 257
 394.5859375 201 l 257
 -318.4140625 201 l 257
-99.6923828125 -22 m 257
 -207.80859375 -218 l 257
 149.19140625 -218 l 257
 257.307617188 -22 l 257
 -99.6923828125 -22 l 257
27.498046875 -183 m 257
 141.094726562 -588 l 257
 375.0078125 -425 l 257
 259.859375 -21 l 257
 27.498046875 -183 l 257
EndSplineSet
Ligature2: "halnHalantFormsinDevanagari2lookup0 subtable" uni091F uni094D
EndChar

StartChar: uni0920
Encoding: 2336 2336 484
GlifName: uni0920
Width: 1024
VWidth: 0
Flags: W
LayerCount: 2
Fore
SplineSet
244.712890625 1548 m 257
 172.283203125 1349 l 257
 1197.28320312 1349 l 257
 1269.71289062 1548 l 257
 244.712890625 1548 l 257
632.418945312 1484 m 257
 464.62890625 1023 l 257
 664.62890625 1023 l 257
 832.418945312 1484 l 257
 632.418945312 1484 l 257
142.99609375 1035 m 257
 69.837890625 834 l 257
 947.837890625 834 l 257
 1020.99609375 1035 l 257
 142.99609375 1035 l 257
129.99609375 1035 m 257
 -241.981445312 13 l 257
 -41.9814453125 13 l 257
 329.99609375 1035 l 257
 129.99609375 1035 l 257
820.99609375 1035 m 257
 444.287109375 0 l 257
 644.287109375 0 l 257
 1020.99609375 1035 l 257
 820.99609375 1035 l 257
-173.646484375 198 m 257
 -245.712890625 0 l 257
 624.287109375 0 l 257
 696.353515625 198 l 257
 -173.646484375 198 l 257
EndSplineSet
EndChar

StartChar: uni0920_uni0930_uni094D.vatu
Encoding: 65574 -1 485
GlifName: uni0920_uni0930_uni094D_.vatu
Width: 1024
VWidth: 0
Flags: W
LayerCount: 2
Fore
SplineSet
187.387695312 216 m 257
 273.079101562 -164 l 257
 555.079101562 -164 l 257
 370.899414062 385 l 257
 187.387695312 216 l 257
370.899414062 385 m 257
 -239.196289062 -173 l 257
 -18.1962890625 -173 l 257
 425.84375 220 l 257
 370.899414062 385 l 257
237.196289062 1548 m 257
 165.129882812 1350 l 257
 1191.12988281 1350 l 257
 1263.19628906 1548 l 257
 237.196289062 1548 l 257
670.90234375 1484 m 257
 503.112304688 1023 l 257
 703.112304688 1023 l 257
 870.90234375 1484 l 257
 670.90234375 1484 l 257
135.479492188 1035 m 257
 62.3212890625 834 l 257
 940.321289062 834 l 257
 1013.47949219 1035 l 257
 135.479492188 1035 l 257
122.479492188 1035 m 257
 -103.91015625 413 l 257
 96.08984375 413 l 257
 322.479492188 1035 l 257
 122.479492188 1035 l 257
813.479492188 1035 m 257
 581.630859375 398 l 257
 781.630859375 398 l 257
 1013.47949219 1035 l 257
 813.479492188 1035 l 257
-35.5751953125 598 m 257
 -108.733398438 397 l 257
 761.266601562 397 l 257
 834.424804688 598 l 257
 -35.5751953125 598 l 257
EndSplineSet
Ligature2: "rkrfRakarVariantsinDevanagari2lookup0 subtable" uni0920 uni0930_uni094D.blwf
EndChar

StartChar: uni0920_uni094D.haln
Encoding: 65575 -1 486
GlifName: uni0920_uni094D_.haln
Width: 1024
VWidth: 0
Flags: W
LayerCount: 2
Fore
SplineSet
338.108398438 1548 m 257
 228.337890625 1349 l 257
 1253.33789062 1349 l 257
 1363.10839844 1548 l 257
 338.108398438 1548 l 257
713.8046875 1484 m 257
 459.51171875 1023 l 257
 659.51171875 1023 l 257
 913.8046875 1484 l 257
 713.8046875 1484 l 257
140.130859375 1035 m 257
 29.255859375 834 l 257
 907.255859375 834 l 257
 1018.13085938 1035 l 257
 140.130859375 1035 l 257
127.130859375 1035 m 257
 -436.618164062 13 l 257
 -236.618164062 13 l 257
 327.130859375 1035 l 257
 127.130859375 1035 l 257
818.130859375 1035 m 257
 247.2109375 0 l 257
 447.2109375 0 l 257
 1018.13085938 1035 l 257
 818.130859375 1035 l 257
-333.569335938 198 m 257
 -442.7890625 0 l 257
 427.2109375 0 l 257
 536.430664062 198 l 257
 -333.569335938 198 l 257
-126.692382812 -22 m 257
 -234.80859375 -218 l 257
 122.19140625 -218 l 257
 230.307617188 -22 l 257
 -126.692382812 -22 l 257
0.498046875 -183 m 257
 114.094726562 -588 l 257
 348.0078125 -425 l 257
 232.859375 -21 l 257
 0.498046875 -183 l 257
EndSplineSet
Ligature2: "halnHalantFormsinDevanagari2lookup0 subtable" uni0920 uni094D
EndChar

StartChar: uni0921
Encoding: 2337 2337 487
GlifName: uni0921
Width: 1024
VWidth: 0
Flags: W
LayerCount: 2
Fore
SplineSet
249.712890625 1548 m 257
 176.918945312 1348 l 257
 1202.91894531 1348 l 257
 1275.71289062 1548 l 257
 249.712890625 1548 l 257
452.091796875 1049 m 257
 302.5 638 l 257
 501.5 638 l 257
 651.091796875 1049 l 257
 452.091796875 1049 l 257
341.80859375 746 m 257
 266.103515625 538 l 257
 809.103515625 538 l 257
 884.80859375 746 l 257
 341.80859375 746 l 257
670.158203125 703 m 257
 416.107421875 5 l 257
 615.107421875 5 l 257
 869.158203125 703 l 257
 670.158203125 703 l 257
-178.918945312 200 m 257
 -251.712890625 0 l 257
 613.287109375 0 l 257
 686.081054688 200 l 257
 -178.918945312 200 l 257
-131.23828125 331 m 257
 -249.892578125 5 l 257
 -49.892578125 5 l 257
 68.76171875 331 l 257
 -131.23828125 331 l 257
483.029296875 1134 m 257
 407.323242188 926 l 257
 950.323242188 926 l 257
 1026.02929688 1134 l 257
 483.029296875 1134 l 257
920.569335938 1391 m 257
 770.977539062 980 l 257
 969.977539062 980 l 257
 1119.56933594 1391 l 257
 920.569335938 1391 l 257
EndSplineSet
EndChar

StartChar: uni0921_uni0930_uni094D.vatu
Encoding: 65576 -1 488
GlifName: uni0921_uni0930_uni094D_.vatu
Width: 1024
VWidth: 0
Flags: W
LayerCount: 2
Fore
SplineSet
147.583984375 134 m 257
 272.947265625 -137 l 257
 554.947265625 -137 l 257
 313.623046875 255 l 257
 147.583984375 134 l 257
313.623046875 255 m 257
 -238.236328125 -143 l 257
 -17.236328125 -143 l 257
 385.67578125 137 l 257
 313.623046875 255 l 257
236.236328125 1548 m 257
 163.443359375 1348 l 257
 1189.44335938 1348 l 257
 1262.23632812 1548 l 257
 236.236328125 1548 l 257
467.734375 1129 m 257
 331.97265625 756 l 257
 530.97265625 756 l 257
 666.734375 1129 l 257
 467.734375 1129 l 257
371.28125 864 m 257
 295.576171875 656 l 257
 838.576171875 656 l 257
 914.28125 864 l 257
 371.28125 864 l 257
699.630859375 821 m 257
 493.259765625 254 l 257
 692.259765625 254 l 257
 898.630859375 821 l 257
 699.630859375 821 l 257
-101.765625 449 m 257
 -174.560546875 249 l 257
 690.439453125 249 l 257
 763.234375 449 l 257
 -101.765625 449 l 257
-54.0859375 580 m 257
 -172.740234375 254 l 257
 27.259765625 254 l 257
 145.9140625 580 l 257
 -54.0859375 580 l 257
498.671875 1214 m 257
 422.96484375 1006 l 257
 965.96484375 1006 l 257
 1041.671875 1214 l 257
 498.671875 1214 l 257
907.09375 1391 m 257
 786.619140625 1060 l 257
 985.619140625 1060 l 257
 1106.09375 1391 l 257
 907.09375 1391 l 257
EndSplineSet
Ligature2: "rkrfRakarVariantsinDevanagari2lookup0 subtable" uni0921 uni0930_uni094D.blwf
EndChar

StartChar: uni0921_uni094D.haln
Encoding: 65577 -1 489
GlifName: uni0921_uni094D_.haln
Width: 1024
VWidth: 0
Flags: W
LayerCount: 2
Fore
SplineSet
343.108398438 1548 m 257
 232.786132812 1348 l 257
 1258.78613281 1348 l 257
 1369.10839844 1548 l 257
 343.108398438 1548 l 257
451.853515625 1049 m 257
 225.140625 638 l 257
 424.140625 638 l 257
 650.853515625 1049 l 257
 451.853515625 1049 l 257
284.713867188 746 m 257
 169.979492188 538 l 257
 712.979492188 538 l 257
 827.713867188 746 l 257
 284.713867188 746 l 257
604.995117188 703 m 257
 219.969726562 5 l 257
 418.969726562 5 l 257
 803.995117188 703 l 257
 604.995117188 703 l 257
-338.466796875 200 m 257
 -448.7890625 0 l 257
 416.2109375 0 l 257
 526.533203125 200 l 257
 -338.466796875 200 l 257
-266.204101562 331 m 257
 -446.030273438 5 l 257
 -246.030273438 5 l 257
 -66.2041015625 331 l 257
 -266.204101562 331 l 257
498.740234375 1134 m 257
 384.004882812 926 l 257
 927.004882812 926 l 257
 1041.74023438 1134 l 257
 498.740234375 1134 l 257
984.504882812 1391 m 257
 757.791992188 980 l 257
 956.791992188 980 l 257
 1183.50488281 1391 l 257
 984.504882812 1391 l 257
-138.692382812 -22 m 257
 -246.80859375 -218 l 257
 110.19140625 -218 l 257
 218.307617188 -22 l 257
 -138.692382812 -22 l 257
-11.501953125 -183 m 257
 102.094726562 -588 l 257
 336.0078125 -425 l 257
 220.859375 -21 l 257
 -11.501953125 -183 l 257
EndSplineSet
Ligature2: "halnHalantFormsinDevanagari2lookup0 subtable" uni0921 uni094D
EndChar

StartChar: uni0922
Encoding: 2338 2338 490
GlifName: uni0922
Width: 1024
VWidth: 0
Flags: W
LayerCount: 2
Fore
SplineSet
231.712890625 1548 m 257
 158.918945312 1348 l 257
 1183.91894531 1348 l 257
 1256.71289062 1548 l 257
 231.712890625 1548 l 257
793.43359375 1528 m 257
 596.889648438 988 l 257
 796.889648438 988 l 257
 993.43359375 1528 l 257
 793.43359375 1528 l 257
809.62890625 1023 m 257
 160.62890625 1023 l 257
 87.470703125 822 l 257
 736.470703125 822 l 257
 809.62890625 1023 l 257
139.62890625 1023 m 257
 -230.892578125 5 l 257
 -30.892578125 5 l 257
 339.62890625 1023 l 257
 139.62890625 1023 l 257
-159.5546875 201 m 257
 -232.712890625 0 l 257
 480.287109375 0 l 257
 553.4453125 201 l 257
 -159.5546875 201 l 257
479.287109375 544 m 257
 281.287109375 0 l 257
 482.287109375 0 l 257
 680.287109375 544 l 257
 479.287109375 544 l 257
427.37890625 547 m 257
 354.584960938 347 l 257
 606.584960938 347 l 257
 679.37890625 547 l 257
 427.37890625 547 l 257
EndSplineSet
EndChar

StartChar: uni0922_uni0930_uni094D.vatu
Encoding: 65578 -1 491
GlifName: uni0922_uni0930_uni094D_.vatu
Width: 1024
VWidth: 0
Flags: W
LayerCount: 2
Fore
SplineSet
186.435546875 230 m 257
 272.126953125 -150 l 257
 554.126953125 -150 l 257
 369.947265625 399 l 257
 186.435546875 230 l 257
369.947265625 399 m 257
 -240.1484375 -159 l 257
 -19.1484375 -159 l 257
 424.891601562 234 l 257
 369.947265625 399 l 257
250.1484375 1548 m 257
 177.354492188 1348 l 257
 1191.35449219 1348 l 257
 1264.1484375 1548 l 257
 250.1484375 1548 l 257
801.869140625 1528 m 257
 605.325195312 988 l 257
 805.325195312 988 l 257
 1001.86914062 1528 l 257
 801.869140625 1528 l 257
871.204101562 1169 m 257
 222.204101562 1169 l 257
 149.045898438 968 l 257
 798.045898438 968 l 257
 871.204101562 1169 l 257
200.83984375 1168 m 257
 -76.869140625 405 l 257
 123.130859375 405 l 257
 400.83984375 1168 l 257
 200.83984375 1168 l 257
-5.53125 601 m 257
 -78.689453125 400 l 257
 634.310546875 400 l 257
 707.46875 601 l 257
 -5.53125 601 l 257
596.913085938 844 m 257
 434.583007812 398 l 257
 635.583007812 398 l 257
 797.913085938 844 l 257
 596.913085938 844 l 257
545.005859375 847 m 257
 472.2109375 647 l 257
 724.2109375 647 l 257
 797.005859375 847 l 257
 545.005859375 847 l 257
EndSplineSet
Ligature2: "rkrfRakarVariantsinDevanagari2lookup0 subtable" uni0922 uni0930_uni094D.blwf
EndChar

StartChar: uni0922_uni094D.haln
Encoding: 65579 -1 492
GlifName: uni0922_uni094D_.haln
Width: 1024
VWidth: 0
Flags: W
LayerCount: 2
Fore
SplineSet
325.108398438 1548 m 257
 214.786132812 1348 l 257
 1239.78613281 1348 l 257
 1350.10839844 1548 l 257
 325.108398438 1548 l 257
883.076171875 1528 m 257
 585.205078125 988 l 257
 785.205078125 988 l 257
 1083.07617188 1528 l 257
 883.076171875 1528 l 257
804.51171875 1023 m 257
 155.51171875 1023 l 257
 44.6376953125 822 l 257
 693.637695312 822 l 257
 804.51171875 1023 l 257
134.51171875 1023 m 257
 -427.030273438 5 l 257
 -227.030273438 5 l 257
 334.51171875 1023 l 257
 134.51171875 1023 l 257
-318.9140625 201 m 257
 -429.7890625 0 l 257
 283.2109375 0 l 257
 394.0859375 201 l 257
 -318.9140625 201 l 257
384.2890625 544 m 257
 84.2109375 0 l 257
 285.2109375 0 l 257
 585.2890625 544 l 257
 384.2890625 544 l 257
332.943359375 547 m 257
 222.62109375 347 l 257
 474.62109375 347 l 257
 584.943359375 547 l 257
 332.943359375 547 l 257
-100.692382812 -22 m 257
 -208.80859375 -218 l 257
 148.19140625 -218 l 257
 256.307617188 -22 l 257
 -100.692382812 -22 l 257
26.498046875 -183 m 257
 140.094726562 -588 l 257
 374.0078125 -425 l 257
 258.859375 -21 l 257
 26.498046875 -183 l 257
EndSplineSet
Ligature2: "halnHalantFormsinDevanagari2lookup0 subtable" uni0922 uni094D
EndChar

